<mxfile host="Electron" modified="2023-06-29T11:13:55.878Z" agent="Mozilla/5.0 (X11; Linux x86_64) AppleWebKit/537.36 (KHTML, like Gecko) draw.io/21.5.1 Chrome/112.0.5615.204 Electron/24.6.0 Safari/537.36" etag="oAj4hWdqxTGDrSeBUA9t" version="21.5.1" type="device">
  <diagram name="Page-1" id="edf60f1a-56cd-e834-aa8a-f176f3a09ee4">
    <mxGraphModel dx="7628" dy="7204" grid="1" gridSize="10" guides="1" tooltips="1" connect="1" arrows="1" fold="1" page="1" pageScale="1" pageWidth="1100" pageHeight="850" background="none" math="0" shadow="0">
      <root>
        <mxCell id="0" />
        <mxCell id="1" parent="0" />
        <mxCell id="FMaZAtzqC5wsarscTpgY-27" value="" style="edgeStyle=orthogonalEdgeStyle;shape=connector;rounded=0;orthogonalLoop=1;jettySize=auto;html=1;labelBackgroundColor=none;strokeColor=default;strokeWidth=1;fontFamily=Verdana;fontSize=8;fontColor=default;endArrow=none;endFill=0;startSize=5;endSize=5;dashed=1;curved=1;startArrow=none;startFill=0;" parent="1" source="KZAsET0lDErMvSsKAa-C-3" target="j1TnudKSoMf6J_vbDHsm-75" edge="1">
          <mxGeometry relative="1" as="geometry">
            <mxPoint x="79.96999999999989" y="-1165.7642857142855" as="sourcePoint" />
            <mxPoint x="-499.91999999999996" y="-1283" as="targetPoint" />
          </mxGeometry>
        </mxCell>
        <mxCell id="KZAsET0lDErMvSsKAa-C-51" style="edgeStyle=orthogonalEdgeStyle;shape=connector;rounded=0;orthogonalLoop=1;jettySize=auto;html=1;exitX=0.5;exitY=1;exitDx=0;exitDy=0;entryX=0.5;entryY=0;entryDx=0;entryDy=0;labelBackgroundColor=none;strokeColor=default;strokeWidth=1;fontFamily=Verdana;fontSize=8;fontColor=default;startArrow=none;endArrow=classicThin;endFill=1;startSize=5;endSize=5;" parent="1" source="d4-_k5U_l92kHuHyqdDG-8" target="KZAsET0lDErMvSsKAa-C-50" edge="1">
          <mxGeometry relative="1" as="geometry" />
        </mxCell>
        <mxCell id="d4-_k5U_l92kHuHyqdDG-8" value="Install&lt;br style=&quot;border-color: var(--border-color);&quot;&gt;(normal&lt;br&gt;procedure)" style="ellipse;whiteSpace=wrap;html=1;aspect=fixed;rounded=0;shadow=1;labelBackgroundColor=none;strokeColor=default;strokeWidth=1;fontFamily=Verdana;fontSize=8;fontColor=default;fillColor=default;" parent="1" vertex="1">
          <mxGeometry x="-1469.47" y="660" width="40" height="40" as="geometry" />
        </mxCell>
        <mxCell id="WXgyV-pI2MA7BBpM_h7G-46" style="edgeStyle=orthogonalEdgeStyle;shape=connector;rounded=0;orthogonalLoop=1;jettySize=auto;html=1;exitX=0.5;exitY=1;exitDx=0;exitDy=0;entryX=0.5;entryY=0;entryDx=0;entryDy=0;labelBackgroundColor=none;strokeColor=default;strokeWidth=1;fontFamily=Verdana;fontSize=8;fontColor=default;endArrow=classicThin;endFill=1;startSize=5;endSize=5;" parent="1" source="d4-_k5U_l92kHuHyqdDG-16" target="WXgyV-pI2MA7BBpM_h7G-33" edge="1">
          <mxGeometry relative="1" as="geometry" />
        </mxCell>
        <mxCell id="d4-_k5U_l92kHuHyqdDG-16" value="Check if the system is&lt;br&gt;running as &lt;br&gt;Live Session (aka Live CS)" style="whiteSpace=wrap;html=1;rounded=0;shadow=1;labelBackgroundColor=none;strokeWidth=1;fontFamily=Verdana;fontSize=8;align=center;" parent="1" vertex="1">
          <mxGeometry x="39.999999999999886" y="-688" width="120" height="40" as="geometry" />
        </mxCell>
        <mxCell id="d4-_k5U_l92kHuHyqdDG-20" style="edgeStyle=orthogonalEdgeStyle;shape=connector;rounded=0;orthogonalLoop=1;jettySize=auto;html=1;exitX=0.5;exitY=1;exitDx=0;exitDy=0;labelBackgroundColor=none;strokeColor=default;strokeWidth=1;fontFamily=Verdana;fontSize=8;fontColor=default;endArrow=classicThin;endFill=1;startSize=5;endSize=5;" parent="1" source="d4-_k5U_l92kHuHyqdDG-18" target="d4-_k5U_l92kHuHyqdDG-19" edge="1">
          <mxGeometry relative="1" as="geometry" />
        </mxCell>
        <mxCell id="d4-_k5U_l92kHuHyqdDG-18" value="setup gettext" style="whiteSpace=wrap;html=1;rounded=0;shadow=1;labelBackgroundColor=none;strokeWidth=1;fontFamily=Verdana;fontSize=8;align=center;" parent="1" vertex="1">
          <mxGeometry x="-1360.74" y="-730" width="120" height="40" as="geometry" />
        </mxCell>
        <mxCell id="d4-_k5U_l92kHuHyqdDG-22" value="Yes" style="edgeStyle=orthogonalEdgeStyle;shape=connector;rounded=0;orthogonalLoop=1;jettySize=auto;html=1;exitX=0.5;exitY=1;exitDx=0;exitDy=0;labelBackgroundColor=none;strokeColor=default;strokeWidth=1;fontFamily=Verdana;fontSize=8;fontColor=default;endArrow=classicThin;endFill=1;startSize=5;endSize=5;entryX=0.5;entryY=0;entryDx=0;entryDy=0;" parent="1" source="d4-_k5U_l92kHuHyqdDG-19" target="d4-_k5U_l92kHuHyqdDG-21" edge="1">
          <mxGeometry y="10" relative="1" as="geometry">
            <mxPoint x="-1340.74" y="-570" as="targetPoint" />
            <mxPoint as="offset" />
          </mxGeometry>
        </mxCell>
        <mxCell id="d4-_k5U_l92kHuHyqdDG-30" style="edgeStyle=orthogonalEdgeStyle;shape=connector;rounded=0;orthogonalLoop=1;jettySize=auto;html=1;exitX=1;exitY=0.5;exitDx=0;exitDy=0;labelBackgroundColor=none;strokeColor=default;strokeWidth=1;fontFamily=Verdana;fontSize=8;fontColor=default;endArrow=classicThin;endFill=1;startSize=5;endSize=5;entryX=0;entryY=0.5;entryDx=0;entryDy=0;" parent="1" source="d4-_k5U_l92kHuHyqdDG-19" target="d4-_k5U_l92kHuHyqdDG-29" edge="1">
          <mxGeometry relative="1" as="geometry">
            <mxPoint x="-1190.74" y="-610" as="targetPoint" />
          </mxGeometry>
        </mxCell>
        <mxCell id="d4-_k5U_l92kHuHyqdDG-31" value="No" style="edgeLabel;html=1;align=center;verticalAlign=middle;resizable=0;points=[];fontSize=8;fontFamily=Verdana;fontColor=default;" parent="d4-_k5U_l92kHuHyqdDG-30" vertex="1" connectable="0">
          <mxGeometry x="-0.3517" relative="1" as="geometry">
            <mxPoint x="4" y="-10" as="offset" />
          </mxGeometry>
        </mxCell>
        <mxCell id="d4-_k5U_l92kHuHyqdDG-19" value="System locale &lt;br&gt;matches any&lt;br&gt;supported ?" style="rhombus;whiteSpace=wrap;html=1;rounded=0;shadow=1;labelBackgroundColor=none;strokeWidth=1;fontFamily=Verdana;fontSize=8;align=center;" parent="1" vertex="1">
          <mxGeometry x="-1350.74" y="-670" width="100" height="60" as="geometry" />
        </mxCell>
        <mxCell id="7SOeXMoNOYHlSDrnlrKF-4" style="edgeStyle=orthogonalEdgeStyle;shape=connector;rounded=0;orthogonalLoop=1;jettySize=auto;html=1;exitX=0.5;exitY=1;exitDx=0;exitDy=0;entryX=0.5;entryY=0;entryDx=0;entryDy=0;entryPerimeter=0;labelBackgroundColor=none;strokeColor=default;strokeWidth=1;fontFamily=Verdana;fontSize=8;fontColor=default;endArrow=classicThin;endFill=1;startSize=5;endSize=5;" parent="1" source="d4-_k5U_l92kHuHyqdDG-21" target="7SOeXMoNOYHlSDrnlrKF-3" edge="1">
          <mxGeometry relative="1" as="geometry" />
        </mxCell>
        <mxCell id="d4-_k5U_l92kHuHyqdDG-21" value="set program&#39;s interface&amp;nbsp;&lt;br&gt;to system&#39;s locale" style="rounded=1;whiteSpace=wrap;html=1;shadow=1;labelBackgroundColor=none;strokeWidth=1;fontFamily=Verdana;fontSize=8;align=center;" parent="1" vertex="1">
          <mxGeometry x="-1350.74" y="-580" width="100" height="40" as="geometry" />
        </mxCell>
        <mxCell id="7SOeXMoNOYHlSDrnlrKF-5" style="edgeStyle=orthogonalEdgeStyle;shape=connector;rounded=0;orthogonalLoop=1;jettySize=auto;html=1;exitX=0.5;exitY=1;exitDx=0;exitDy=0;labelBackgroundColor=none;strokeColor=default;strokeWidth=1;fontFamily=Verdana;fontSize=8;fontColor=default;endArrow=classicThin;endFill=1;startSize=5;endSize=5;" parent="1" source="d4-_k5U_l92kHuHyqdDG-29" target="7SOeXMoNOYHlSDrnlrKF-3" edge="1">
          <mxGeometry relative="1" as="geometry">
            <Array as="points">
              <mxPoint x="-1180.74" y="-520" />
              <mxPoint x="-1300.74" y="-520" />
            </Array>
          </mxGeometry>
        </mxCell>
        <mxCell id="d4-_k5U_l92kHuHyqdDG-29" value="use hard coded, untranslated strings" style="rounded=1;whiteSpace=wrap;html=1;shadow=1;labelBackgroundColor=none;strokeWidth=1;fontFamily=Verdana;fontSize=8;align=center;" parent="1" vertex="1">
          <mxGeometry x="-1230.74" y="-660" width="100" height="40" as="geometry" />
        </mxCell>
        <mxCell id="gZyHitp84woVGNt1j31F-232" style="edgeStyle=orthogonalEdgeStyle;shape=connector;rounded=0;orthogonalLoop=1;jettySize=auto;html=1;exitX=0.5;exitY=1;exitDx=0;exitDy=0;entryX=0.5;entryY=0;entryDx=0;entryDy=0;labelBackgroundColor=none;strokeColor=default;strokeWidth=1;fontFamily=Verdana;fontSize=8;fontColor=default;endArrow=classicThin;endFill=1;startSize=5;endSize=5;" parent="1" source="gZyHitp84woVGNt1j31F-12" target="gZyHitp84woVGNt1j31F-89" edge="1">
          <mxGeometry relative="1" as="geometry" />
        </mxCell>
        <mxCell id="FMaZAtzqC5wsarscTpgY-113" style="edgeStyle=orthogonalEdgeStyle;shape=connector;rounded=0;orthogonalLoop=1;jettySize=auto;html=1;exitX=0.5;exitY=1;exitDx=0;exitDy=0;entryX=0.5;entryY=0;entryDx=0;entryDy=0;labelBackgroundColor=none;strokeColor=default;strokeWidth=1;fontFamily=Verdana;fontSize=8;fontColor=default;endArrow=classicThin;endFill=1;startSize=5;endSize=5;" parent="1" source="gZyHitp84woVGNt1j31F-9" target="gZyHitp84woVGNt1j31F-12" edge="1">
          <mxGeometry relative="1" as="geometry" />
        </mxCell>
        <mxCell id="FMaZAtzqC5wsarscTpgY-116" style="edgeStyle=orthogonalEdgeStyle;shape=connector;rounded=0;orthogonalLoop=1;jettySize=auto;html=1;exitX=0;exitY=0.5;exitDx=0;exitDy=0;entryX=0.5;entryY=0;entryDx=0;entryDy=0;labelBackgroundColor=none;strokeColor=default;strokeWidth=1;fontFamily=Verdana;fontSize=8;fontColor=default;endArrow=classicThin;endFill=1;startSize=5;endSize=5;" parent="1" source="gZyHitp84woVGNt1j31F-9" target="gZyHitp84woVGNt1j31F-89" edge="1">
          <mxGeometry relative="1" as="geometry">
            <Array as="points">
              <mxPoint x="-1519" y="2090" />
              <mxPoint x="-1519" y="2200" />
              <mxPoint x="-1449" y="2200" />
            </Array>
          </mxGeometry>
        </mxCell>
        <mxCell id="gZyHitp84woVGNt1j31F-9" value="should downloaded&lt;br&gt;packages be&lt;br&gt;removed ?" style="rhombus;whiteSpace=wrap;html=1;rounded=0;shadow=1;labelBackgroundColor=none;strokeWidth=1;fontFamily=Verdana;fontSize=8;align=center;" parent="1" vertex="1">
          <mxGeometry x="-1499.47" y="2060" width="100" height="60" as="geometry" />
        </mxCell>
        <mxCell id="gZyHitp84woVGNt1j31F-12" value="RUN&lt;br&gt;delete collected packages" style="rounded=1;whiteSpace=wrap;html=1;shadow=1;labelBackgroundColor=none;strokeWidth=1;fontFamily=Verdana;fontSize=8;align=center;" parent="1" vertex="1">
          <mxGeometry x="-1499.47" y="2140" width="100" height="40" as="geometry" />
        </mxCell>
        <mxCell id="gZyHitp84woVGNt1j31F-24" value="" style="strokeWidth=1;html=1;shape=mxgraph.flowchart.terminator;whiteSpace=wrap;rounded=0;shadow=1;labelBackgroundColor=none;fontFamily=Verdana;fontSize=8;align=center;" parent="1" vertex="1">
          <mxGeometry x="-1479.47" y="2402.5" width="60" height="30" as="geometry" />
        </mxCell>
        <mxCell id="gZyHitp84woVGNt1j31F-73" style="edgeStyle=orthogonalEdgeStyle;shape=connector;rounded=0;orthogonalLoop=1;jettySize=auto;html=1;exitX=0.5;exitY=1;exitDx=0;exitDy=0;entryX=0.5;entryY=0;entryDx=0;entryDy=0;labelBackgroundColor=none;strokeColor=default;strokeWidth=1;fontFamily=Verdana;fontSize=8;fontColor=default;endArrow=classicThin;endFill=1;startSize=5;endSize=5;" parent="1" source="FMaZAtzqC5wsarscTpgY-100" target="gZyHitp84woVGNt1j31F-72" edge="1">
          <mxGeometry relative="1" as="geometry">
            <mxPoint x="-1458.5800000000002" y="1630" as="sourcePoint" />
          </mxGeometry>
        </mxCell>
        <mxCell id="FMaZAtzqC5wsarscTpgY-89" style="edgeStyle=orthogonalEdgeStyle;shape=connector;rounded=0;orthogonalLoop=1;jettySize=auto;html=1;exitX=0.5;exitY=1;exitDx=0;exitDy=0;entryX=0.5;entryY=0;entryDx=0;entryDy=0;labelBackgroundColor=none;strokeColor=default;strokeWidth=1;fontFamily=Verdana;fontSize=8;fontColor=default;endArrow=classicThin;endFill=1;startSize=5;endSize=5;" parent="1" source="gZyHitp84woVGNt1j31F-63" target="FMaZAtzqC5wsarscTpgY-88" edge="1">
          <mxGeometry relative="1" as="geometry" />
        </mxCell>
        <mxCell id="gZyHitp84woVGNt1j31F-63" value="RUN&lt;br&gt;Office&amp;nbsp;uninstall&lt;br&gt;procedure" style="rounded=1;whiteSpace=wrap;html=1;shadow=1;labelBackgroundColor=none;strokeWidth=1;fontFamily=Verdana;fontSize=8;align=center;" parent="1" vertex="1">
          <mxGeometry x="-1499.47" y="1300" width="100" height="40" as="geometry" />
        </mxCell>
        <mxCell id="gZyHitp84woVGNt1j31F-97" style="edgeStyle=orthogonalEdgeStyle;shape=connector;rounded=0;orthogonalLoop=1;jettySize=auto;html=1;exitX=0.5;exitY=1;exitDx=0;exitDy=0;entryX=0.5;entryY=0;entryDx=0;entryDy=0;labelBackgroundColor=none;strokeColor=default;strokeWidth=1;fontFamily=Verdana;fontSize=8;fontColor=default;endArrow=classicThin;endFill=1;startSize=5;endSize=5;" parent="1" source="FMaZAtzqC5wsarscTpgY-109" target="gZyHitp84woVGNt1j31F-77" edge="1">
          <mxGeometry relative="1" as="geometry">
            <mxPoint x="-1449.47" y="1713" as="targetPoint" />
          </mxGeometry>
        </mxCell>
        <mxCell id="FMaZAtzqC5wsarscTpgY-104" style="edgeStyle=orthogonalEdgeStyle;shape=connector;rounded=0;orthogonalLoop=1;jettySize=auto;html=1;exitX=0.5;exitY=1;exitDx=0;exitDy=0;entryX=0.5;entryY=0;entryDx=0;entryDy=0;labelBackgroundColor=none;strokeColor=default;strokeWidth=1;fontFamily=Verdana;fontSize=8;fontColor=default;endArrow=classicThin;endFill=1;startSize=5;endSize=5;" parent="1" source="gZyHitp84woVGNt1j31F-72" target="FMaZAtzqC5wsarscTpgY-103" edge="1">
          <mxGeometry relative="1" as="geometry" />
        </mxCell>
        <mxCell id="gZyHitp84woVGNt1j31F-72" value="RUN&lt;br&gt;LibreOffice&amp;nbsp;Install&amp;nbsp;" style="rounded=1;whiteSpace=wrap;html=1;shadow=1;labelBackgroundColor=none;strokeWidth=1;fontFamily=Verdana;fontSize=8;align=center;" parent="1" vertex="1">
          <mxGeometry x="-1499.47" y="1568" width="100" height="40" as="geometry" />
        </mxCell>
        <mxCell id="gZyHitp84woVGNt1j31F-82" style="edgeStyle=orthogonalEdgeStyle;shape=connector;rounded=0;orthogonalLoop=1;jettySize=auto;html=1;exitX=0.5;exitY=1;exitDx=0;exitDy=0;entryX=0.5;entryY=0;entryDx=0;entryDy=0;labelBackgroundColor=none;strokeColor=default;strokeWidth=1;fontFamily=Verdana;fontSize=8;fontColor=default;endArrow=classicThin;endFill=1;startSize=5;endSize=5;" parent="1" source="gZyHitp84woVGNt1j31F-77" target="gZyHitp84woVGNt1j31F-78" edge="1">
          <mxGeometry relative="1" as="geometry" />
        </mxCell>
        <mxCell id="gZyHitp84woVGNt1j31F-77" value="Disable LibreOffice&#39;s&lt;br&gt;automatic on-line&lt;br&gt;update checks" style="rounded=0;whiteSpace=wrap;html=1;shadow=1;labelBackgroundColor=none;strokeWidth=1;fontFamily=Verdana;fontSize=8;align=center;" parent="1" vertex="1">
          <mxGeometry x="-1499.47" y="1830" width="100" height="40" as="geometry" />
        </mxCell>
        <mxCell id="KZAsET0lDErMvSsKAa-C-164" style="edgeStyle=orthogonalEdgeStyle;shape=connector;rounded=0;orthogonalLoop=1;jettySize=auto;html=1;exitX=0.5;exitY=1;exitDx=0;exitDy=0;entryX=0.5;entryY=0;entryDx=0;entryDy=0;labelBackgroundColor=none;strokeColor=default;strokeWidth=1;fontFamily=Verdana;fontSize=8;fontColor=default;endArrow=classic;endFill=1;startSize=5;endSize=5;" parent="1" source="gZyHitp84woVGNt1j31F-78" target="gZyHitp84woVGNt1j31F-87" edge="1">
          <mxGeometry relative="1" as="geometry" />
        </mxCell>
        <mxCell id="gZyHitp84woVGNt1j31F-78" value="add .xcu file&lt;br&gt;to /etc/skel&lt;br&gt;(and any other files that will&lt;br&gt;ensure newly created user&lt;br&gt;will have working LO)" style="rounded=0;whiteSpace=wrap;html=1;shadow=1;labelBackgroundColor=none;strokeWidth=1;fontFamily=Verdana;fontSize=8;align=center;" parent="1" vertex="1">
          <mxGeometry x="-1499.47" y="1889" width="100" height="51" as="geometry" />
        </mxCell>
        <mxCell id="KZAsET0lDErMvSsKAa-C-78" style="edgeStyle=orthogonalEdgeStyle;shape=connector;rounded=0;orthogonalLoop=1;jettySize=auto;html=1;exitX=0.5;exitY=1;exitDx=0;exitDy=0;labelBackgroundColor=none;strokeColor=default;strokeWidth=1;fontFamily=Verdana;fontSize=8;fontColor=default;startArrow=none;endArrow=classicThin;endFill=1;startSize=5;endSize=5;entryX=0.5;entryY=0;entryDx=0;entryDy=0;" parent="1" source="gZyHitp84woVGNt1j31F-86" target="KZAsET0lDErMvSsKAa-C-77" edge="1">
          <mxGeometry relative="1" as="geometry">
            <mxPoint x="-1729.11" y="710" as="targetPoint" />
          </mxGeometry>
        </mxCell>
        <mxCell id="gZyHitp84woVGNt1j31F-86" value="Install&lt;br&gt;procedure&lt;br&gt;(from local copy)" style="ellipse;whiteSpace=wrap;html=1;aspect=fixed;rounded=0;shadow=1;labelBackgroundColor=none;strokeColor=default;strokeWidth=1;fontFamily=Verdana;fontSize=8;fontColor=default;fillColor=default;" parent="1" vertex="1">
          <mxGeometry x="-1779.11" y="660" width="40" height="40" as="geometry" />
        </mxCell>
        <mxCell id="gZyHitp84woVGNt1j31F-234" style="edgeStyle=orthogonalEdgeStyle;shape=connector;rounded=0;orthogonalLoop=1;jettySize=auto;html=1;entryX=0.5;entryY=0;entryDx=0;entryDy=0;labelBackgroundColor=none;strokeColor=default;strokeWidth=1;fontFamily=Verdana;fontSize=8;fontColor=default;endArrow=classicThin;endFill=1;startSize=5;endSize=5;exitX=0.5;exitY=1;exitDx=0;exitDy=0;" parent="1" source="gZyHitp84woVGNt1j31F-87" target="gZyHitp84woVGNt1j31F-9" edge="1">
          <mxGeometry relative="1" as="geometry">
            <mxPoint x="-1449.75" y="2004" as="sourcePoint" />
          </mxGeometry>
        </mxCell>
        <mxCell id="gZyHitp84woVGNt1j31F-87" value="clean menu entires&lt;br&gt;(.desktop files)" style="rounded=0;whiteSpace=wrap;html=1;shadow=1;labelBackgroundColor=none;strokeWidth=1;fontFamily=Verdana;fontSize=8;align=center;" parent="1" vertex="1">
          <mxGeometry x="-1499.47" y="1960" width="100" height="40" as="geometry" />
        </mxCell>
        <mxCell id="gZyHitp84woVGNt1j31F-92" style="edgeStyle=orthogonalEdgeStyle;shape=connector;rounded=0;orthogonalLoop=1;jettySize=auto;html=1;exitX=0.5;exitY=1;exitDx=0;exitDy=0;entryX=0.5;entryY=0;entryDx=0;entryDy=0;labelBackgroundColor=none;strokeColor=default;strokeWidth=1;fontFamily=Verdana;fontSize=8;fontColor=default;endArrow=classicThin;endFill=1;startSize=5;endSize=5;entryPerimeter=0;startArrow=none;" parent="1" source="KZAsET0lDErMvSsKAa-C-84" target="gZyHitp84woVGNt1j31F-24" edge="1">
          <mxGeometry relative="1" as="geometry">
            <mxPoint x="-1300.87" y="2917.5" as="targetPoint" />
          </mxGeometry>
        </mxCell>
        <mxCell id="gZyHitp84woVGNt1j31F-89" value="clean up&lt;br&gt;temporary files" style="rounded=0;whiteSpace=wrap;html=1;shadow=1;labelBackgroundColor=none;strokeWidth=1;fontFamily=Verdana;fontSize=8;align=center;" parent="1" vertex="1">
          <mxGeometry x="-1499.47" y="2230" width="100" height="40" as="geometry" />
        </mxCell>
        <mxCell id="WXgyV-pI2MA7BBpM_h7G-31" style="edgeStyle=orthogonalEdgeStyle;shape=connector;rounded=0;orthogonalLoop=1;jettySize=auto;html=1;exitX=0.5;exitY=1;exitDx=0;exitDy=0;labelBackgroundColor=none;strokeColor=default;strokeWidth=1;fontFamily=Verdana;fontSize=8;fontColor=default;endArrow=classicThin;endFill=1;startSize=5;endSize=5;" parent="1" source="FMaZAtzqC5wsarscTpgY-18" target="d4-_k5U_l92kHuHyqdDG-16" edge="1">
          <mxGeometry relative="1" as="geometry" />
        </mxCell>
        <mxCell id="FMaZAtzqC5wsarscTpgY-19" style="edgeStyle=orthogonalEdgeStyle;shape=connector;rounded=0;orthogonalLoop=1;jettySize=auto;html=1;exitX=0.5;exitY=1;exitDx=0;exitDy=0;entryX=0.5;entryY=0;entryDx=0;entryDy=0;labelBackgroundColor=none;strokeColor=default;strokeWidth=1;fontFamily=Verdana;fontSize=8;fontColor=default;endArrow=classicThin;endFill=1;startSize=5;endSize=5;" parent="1" source="gZyHitp84woVGNt1j31F-103" target="FMaZAtzqC5wsarscTpgY-18" edge="1">
          <mxGeometry relative="1" as="geometry" />
        </mxCell>
        <mxCell id="gZyHitp84woVGNt1j31F-103" value="Gather&lt;br&gt;system&lt;br&gt;information" style="ellipse;whiteSpace=wrap;html=1;aspect=fixed;rounded=0;shadow=1;labelBackgroundColor=none;strokeColor=default;strokeWidth=1;fontFamily=Verdana;fontSize=8;fontColor=default;fillColor=default;" parent="1" vertex="1">
          <mxGeometry x="80" y="-800" width="40" height="40" as="geometry" />
        </mxCell>
        <mxCell id="vTeHq6-nuDfhrwUV0Sy5-2" style="edgeStyle=orthogonalEdgeStyle;rounded=0;orthogonalLoop=1;jettySize=auto;html=1;exitX=0.5;exitY=1;exitDx=0;exitDy=0;entryX=0.5;entryY=0;entryDx=0;entryDy=0;" parent="1" source="gZyHitp84woVGNt1j31F-104" target="j1TnudKSoMf6J_vbDHsm-26" edge="1">
          <mxGeometry relative="1" as="geometry" />
        </mxCell>
        <mxCell id="gZyHitp84woVGNt1j31F-104" value="Start" style="ellipse;whiteSpace=wrap;html=1;aspect=fixed;rounded=0;shadow=1;labelBackgroundColor=none;strokeColor=default;strokeWidth=1;fontFamily=Verdana;fontSize=8;fontColor=default;fillColor=default;" parent="1" vertex="1">
          <mxGeometry x="-560.11" y="-3400" width="39.86" height="39.86" as="geometry" />
        </mxCell>
        <mxCell id="gZyHitp84woVGNt1j31F-128" value="RUN&lt;br&gt;Gather&amp;nbsp;system&lt;br style=&quot;border-color: var(--border-color);&quot;&gt;information&lt;br&gt;procedure" style="whiteSpace=wrap;html=1;rounded=1;shadow=1;labelBackgroundColor=none;strokeWidth=1;fontFamily=Verdana;fontSize=8;align=center;" parent="1" vertex="1">
          <mxGeometry x="439.9999999999999" y="-1720" width="120" height="40" as="geometry" />
        </mxCell>
        <mxCell id="gZyHitp84woVGNt1j31F-135" value="End" style="strokeWidth=1;html=1;shape=mxgraph.flowchart.terminator;whiteSpace=wrap;rounded=0;shadow=1;labelBackgroundColor=none;fontFamily=Verdana;fontSize=8;align=center;" parent="1" vertex="1">
          <mxGeometry x="-569.8200000000002" y="-990" width="60" height="30" as="geometry" />
        </mxCell>
        <mxCell id="gZyHitp84woVGNt1j31F-139" value="Run selected&amp;nbsp;&lt;br&gt;combination of install/uninstall procedures" style="whiteSpace=wrap;html=1;rounded=1;shadow=1;labelBackgroundColor=none;strokeWidth=1;fontFamily=Verdana;fontSize=8;align=center;" parent="1" vertex="1">
          <mxGeometry x="80" y="-1640" width="120" height="40" as="geometry" />
        </mxCell>
        <mxCell id="j1TnudKSoMf6J_vbDHsm-25" style="edgeStyle=orthogonalEdgeStyle;shape=connector;rounded=0;orthogonalLoop=1;jettySize=auto;html=1;exitX=0.5;exitY=1;exitDx=0;exitDy=0;entryX=0.5;entryY=0;entryDx=0;entryDy=0;labelBackgroundColor=none;strokeColor=default;strokeWidth=1;fontFamily=Verdana;fontSize=8;fontColor=default;endArrow=classicThin;endFill=1;startSize=5;endSize=5;" parent="1" source="gZyHitp84woVGNt1j31F-153" target="WXgyV-pI2MA7BBpM_h7G-3" edge="1">
          <mxGeometry relative="1" as="geometry" />
        </mxCell>
        <mxCell id="gZyHitp84woVGNt1j31F-153" value="RUN&lt;br&gt;Set this program&#39;s&lt;br&gt;language&lt;br&gt;procedure" style="rounded=1;whiteSpace=wrap;html=1;shadow=1;labelBackgroundColor=none;strokeWidth=1;fontFamily=Verdana;fontSize=8;align=center;" parent="1" vertex="1">
          <mxGeometry x="-589.82" y="-3040" width="100" height="40" as="geometry" />
        </mxCell>
        <mxCell id="gZyHitp84woVGNt1j31F-157" style="edgeStyle=orthogonalEdgeStyle;shape=connector;rounded=0;orthogonalLoop=1;jettySize=auto;html=1;exitX=0.5;exitY=1;exitDx=0;exitDy=0;entryX=0.5;entryY=0;entryDx=0;entryDy=0;labelBackgroundColor=none;strokeColor=default;strokeWidth=1;fontFamily=Verdana;fontSize=8;fontColor=default;endArrow=classicThin;endFill=1;startSize=5;endSize=5;" parent="1" source="gZyHitp84woVGNt1j31F-156" target="d4-_k5U_l92kHuHyqdDG-18" edge="1">
          <mxGeometry relative="1" as="geometry" />
        </mxCell>
        <mxCell id="gZyHitp84woVGNt1j31F-156" value="Set this program&#39;s&lt;br style=&quot;border-color: var(--border-color);&quot;&gt;language" style="ellipse;whiteSpace=wrap;html=1;aspect=fixed;rounded=0;shadow=1;labelBackgroundColor=none;strokeColor=default;strokeWidth=1;fontFamily=Verdana;fontSize=8;fontColor=default;fillColor=default;" parent="1" vertex="1">
          <mxGeometry x="-1320.74" y="-800" width="40" height="40" as="geometry" />
        </mxCell>
        <mxCell id="gZyHitp84woVGNt1j31F-164" value="Uninstall&lt;br&gt;procedure" style="ellipse;whiteSpace=wrap;html=1;aspect=fixed;rounded=0;shadow=1;labelBackgroundColor=none;strokeColor=default;strokeWidth=1;fontFamily=Verdana;fontSize=8;fontColor=default;fillColor=default;" parent="1" vertex="1">
          <mxGeometry x="720" y="660" width="40" height="40" as="geometry" />
        </mxCell>
        <mxCell id="rJgeybLUH-mHBIflhnxA-9" style="edgeStyle=orthogonalEdgeStyle;shape=connector;rounded=0;orthogonalLoop=1;jettySize=auto;html=1;exitX=0.5;exitY=1;exitDx=0;exitDy=0;entryX=0.5;entryY=0;entryDx=0;entryDy=0;labelBackgroundColor=none;strokeColor=default;strokeWidth=1;fontFamily=Verdana;fontSize=8;fontColor=default;endArrow=classicThin;endFill=1;startSize=5;endSize=5;" parent="1" source="gZyHitp84woVGNt1j31F-165" target="FMaZAtzqC5wsarscTpgY-66" edge="1">
          <mxGeometry relative="1" as="geometry">
            <mxPoint x="40" y="782" as="targetPoint" />
          </mxGeometry>
        </mxCell>
        <mxCell id="gZyHitp84woVGNt1j31F-165" value="Get LO packages&lt;br style=&quot;border-color: var(--border-color);&quot;&gt;(list)" style="ellipse;whiteSpace=wrap;html=1;aspect=fixed;rounded=0;shadow=1;labelBackgroundColor=none;strokeColor=default;strokeWidth=1;fontFamily=Verdana;fontSize=8;fontColor=default;fillColor=default;" parent="1" vertex="1">
          <mxGeometry x="20" y="660" width="40" height="40" as="geometry" />
        </mxCell>
        <mxCell id="WXgyV-pI2MA7BBpM_h7G-32" style="edgeStyle=orthogonalEdgeStyle;shape=connector;rounded=0;orthogonalLoop=1;jettySize=auto;html=1;exitX=0.5;exitY=1;exitDx=0;exitDy=0;entryX=0.5;entryY=0;entryDx=0;entryDy=0;entryPerimeter=0;labelBackgroundColor=none;strokeColor=default;strokeWidth=1;fontFamily=Verdana;fontSize=8;fontColor=default;endArrow=classicThin;endFill=1;startSize=5;endSize=5;startArrow=none;" parent="1" source="KZAsET0lDErMvSsKAa-C-44" target="7SOeXMoNOYHlSDrnlrKF-6" edge="1">
          <mxGeometry relative="1" as="geometry" />
        </mxCell>
        <mxCell id="FMaZAtzqC5wsarscTpgY-3" style="edgeStyle=orthogonalEdgeStyle;shape=connector;rounded=0;orthogonalLoop=1;jettySize=auto;html=1;exitX=0.5;exitY=1;exitDx=0;exitDy=0;entryX=0.5;entryY=0;entryDx=0;entryDy=0;labelBackgroundColor=none;strokeColor=default;strokeWidth=1;fontFamily=Verdana;fontSize=8;fontColor=default;endArrow=classicThin;endFill=1;startSize=5;endSize=5;" parent="1" source="gZyHitp84woVGNt1j31F-194" target="FMaZAtzqC5wsarscTpgY-1" edge="1">
          <mxGeometry relative="1" as="geometry" />
        </mxCell>
        <mxCell id="gZyHitp84woVGNt1j31F-194" value="Detect all installed&lt;br&gt;Office Suits&amp;nbsp;&lt;br&gt;(OpenOffice, LibreOffice)&lt;br&gt;their versions, lang packs&lt;br&gt;and HDD space usage" style="whiteSpace=wrap;html=1;rounded=1;shadow=1;labelBackgroundColor=none;strokeWidth=1;fontFamily=Verdana;fontSize=8;align=center;" parent="1" vertex="1">
          <mxGeometry x="40" y="-449" width="120" height="50" as="geometry" />
        </mxCell>
        <mxCell id="rJgeybLUH-mHBIflhnxA-27" style="edgeStyle=orthogonalEdgeStyle;shape=connector;rounded=0;orthogonalLoop=1;jettySize=auto;html=1;exitX=0.5;exitY=1;exitDx=0;exitDy=0;entryX=0.5;entryY=0;entryDx=0;entryDy=0;labelBackgroundColor=none;strokeColor=default;strokeWidth=1;fontFamily=Verdana;fontSize=8;fontColor=default;endArrow=classicThin;endFill=1;startSize=5;endSize=5;" parent="1" source="gZyHitp84woVGNt1j31F-200" target="d4-_k5U_l92kHuHyqdDG-36" edge="1">
          <mxGeometry relative="1" as="geometry" />
        </mxCell>
        <mxCell id="gZyHitp84woVGNt1j31F-200" value="Detect all installed&lt;br style=&quot;border-color: var(--border-color);&quot;&gt;Office Suits&amp;nbsp;&lt;br style=&quot;border-color: var(--border-color);&quot;&gt;(OpenOffice, LibreOffice)&lt;br style=&quot;border-color: var(--border-color);&quot;&gt;their versions, lang packs&lt;br style=&quot;border-color: var(--border-color);&quot;&gt;and HDD space usage" style="ellipse;whiteSpace=wrap;html=1;aspect=fixed;rounded=0;shadow=1;labelBackgroundColor=none;strokeColor=default;strokeWidth=1;fontFamily=Verdana;fontSize=8;fontColor=default;fillColor=default;" parent="1" vertex="1">
          <mxGeometry x="440" y="662" width="40" height="40" as="geometry" />
        </mxCell>
        <mxCell id="rJgeybLUH-mHBIflhnxA-21" style="edgeStyle=orthogonalEdgeStyle;shape=connector;rounded=0;orthogonalLoop=1;jettySize=auto;html=1;exitX=0.5;exitY=1;exitDx=0;exitDy=0;entryX=0.5;entryY=0;entryDx=0;entryDy=0;labelBackgroundColor=none;strokeColor=default;strokeWidth=1;fontFamily=Verdana;fontSize=8;fontColor=default;endArrow=classicThin;endFill=1;startSize=5;endSize=5;" parent="1" source="d4-_k5U_l92kHuHyqdDG-36" target="d4-_k5U_l92kHuHyqdDG-37" edge="1">
          <mxGeometry relative="1" as="geometry" />
        </mxCell>
        <mxCell id="d4-_k5U_l92kHuHyqdDG-36" value="Detect if&lt;br&gt;OpenOffice 2.x&lt;br&gt;&amp;nbsp;is installed" style="whiteSpace=wrap;html=1;rounded=0;shadow=1;labelBackgroundColor=none;strokeWidth=1;fontFamily=Verdana;fontSize=8;align=center;" parent="1" vertex="1">
          <mxGeometry x="400" y="742" width="120" height="40" as="geometry" />
        </mxCell>
        <mxCell id="rJgeybLUH-mHBIflhnxA-22" style="edgeStyle=orthogonalEdgeStyle;shape=connector;rounded=0;orthogonalLoop=1;jettySize=auto;html=1;exitX=0.5;exitY=1;exitDx=0;exitDy=0;entryX=0.5;entryY=0;entryDx=0;entryDy=0;labelBackgroundColor=none;strokeColor=default;strokeWidth=1;fontFamily=Verdana;fontSize=8;fontColor=default;endArrow=classicThin;endFill=1;startSize=5;endSize=5;" parent="1" source="d4-_k5U_l92kHuHyqdDG-37" target="d4-_k5U_l92kHuHyqdDG-38" edge="1">
          <mxGeometry relative="1" as="geometry" />
        </mxCell>
        <mxCell id="d4-_k5U_l92kHuHyqdDG-37" value="Detect if&lt;br&gt;OpenOffice 3.0.0&lt;br&gt;is installed" style="whiteSpace=wrap;html=1;rounded=0;shadow=1;labelBackgroundColor=none;strokeWidth=1;fontFamily=Verdana;fontSize=8;align=center;" parent="1" vertex="1">
          <mxGeometry x="400" y="794" width="120" height="40" as="geometry" />
        </mxCell>
        <mxCell id="rJgeybLUH-mHBIflhnxA-23" style="edgeStyle=orthogonalEdgeStyle;shape=connector;rounded=0;orthogonalLoop=1;jettySize=auto;html=1;exitX=0.5;exitY=1;exitDx=0;exitDy=0;entryX=0.5;entryY=0;entryDx=0;entryDy=0;labelBackgroundColor=none;strokeColor=default;strokeWidth=1;fontFamily=Verdana;fontSize=8;fontColor=default;endArrow=classicThin;endFill=1;startSize=5;endSize=5;" parent="1" source="d4-_k5U_l92kHuHyqdDG-38" target="d4-_k5U_l92kHuHyqdDG-39" edge="1">
          <mxGeometry relative="1" as="geometry" />
        </mxCell>
        <mxCell id="d4-_k5U_l92kHuHyqdDG-38" value="Detect if&lt;br&gt;OpenOffice 3.0.1&lt;br&gt;or later&lt;br&gt;is installed" style="whiteSpace=wrap;html=1;rounded=0;shadow=1;labelBackgroundColor=none;strokeWidth=1;fontFamily=Verdana;fontSize=8;align=center;" parent="1" vertex="1">
          <mxGeometry x="400" y="845" width="120" height="40" as="geometry" />
        </mxCell>
        <mxCell id="rJgeybLUH-mHBIflhnxA-24" style="edgeStyle=orthogonalEdgeStyle;shape=connector;rounded=0;orthogonalLoop=1;jettySize=auto;html=1;exitX=0.5;exitY=1;exitDx=0;exitDy=0;entryX=0.5;entryY=0;entryDx=0;entryDy=0;labelBackgroundColor=none;strokeColor=default;strokeWidth=1;fontFamily=Verdana;fontSize=8;fontColor=default;endArrow=classicThin;endFill=1;startSize=5;endSize=5;" parent="1" source="d4-_k5U_l92kHuHyqdDG-39" target="d4-_k5U_l92kHuHyqdDG-40" edge="1">
          <mxGeometry relative="1" as="geometry" />
        </mxCell>
        <mxCell id="d4-_k5U_l92kHuHyqdDG-39" value="Detect if&lt;br&gt;LibreOffice 3.3&lt;br&gt;is installed" style="whiteSpace=wrap;html=1;rounded=0;shadow=1;labelBackgroundColor=none;strokeWidth=1;fontFamily=Verdana;fontSize=8;align=center;" parent="1" vertex="1">
          <mxGeometry x="400" y="897" width="120" height="40" as="geometry" />
        </mxCell>
        <mxCell id="rJgeybLUH-mHBIflhnxA-25" style="edgeStyle=orthogonalEdgeStyle;shape=connector;rounded=0;orthogonalLoop=1;jettySize=auto;html=1;exitX=0.5;exitY=1;exitDx=0;exitDy=0;entryX=0.5;entryY=0;entryDx=0;entryDy=0;labelBackgroundColor=none;strokeColor=default;strokeWidth=1;fontFamily=Verdana;fontSize=8;fontColor=default;endArrow=classicThin;endFill=1;startSize=5;endSize=5;" parent="1" source="d4-_k5U_l92kHuHyqdDG-40" target="d4-_k5U_l92kHuHyqdDG-41" edge="1">
          <mxGeometry relative="1" as="geometry" />
        </mxCell>
        <mxCell id="d4-_k5U_l92kHuHyqdDG-40" value="Detect if&lt;br&gt;LibreOffice 3.4&lt;br&gt;is installed" style="whiteSpace=wrap;html=1;rounded=0;shadow=1;labelBackgroundColor=none;strokeWidth=1;fontFamily=Verdana;fontSize=8;align=center;" parent="1" vertex="1">
          <mxGeometry x="400" y="949" width="120" height="40" as="geometry" />
        </mxCell>
        <mxCell id="rJgeybLUH-mHBIflhnxA-26" style="edgeStyle=orthogonalEdgeStyle;shape=connector;rounded=0;orthogonalLoop=1;jettySize=auto;html=1;exitX=0.5;exitY=1;exitDx=0;exitDy=0;entryX=0.5;entryY=0;entryDx=0;entryDy=0;labelBackgroundColor=none;strokeColor=default;strokeWidth=1;fontFamily=Verdana;fontSize=8;fontColor=default;endArrow=classicThin;endFill=1;startSize=5;endSize=5;" parent="1" source="d4-_k5U_l92kHuHyqdDG-41" target="d4-_k5U_l92kHuHyqdDG-43" edge="1">
          <mxGeometry relative="1" as="geometry" />
        </mxCell>
        <mxCell id="d4-_k5U_l92kHuHyqdDG-41" value="Detect if&lt;br&gt;LibreOffice 3.5 OR 3.6 OR&amp;nbsp; 4.0&lt;br&gt;is installed" style="whiteSpace=wrap;html=1;rounded=0;shadow=1;labelBackgroundColor=none;strokeWidth=1;fontFamily=Verdana;fontSize=8;align=center;" parent="1" vertex="1">
          <mxGeometry x="400" y="1000" width="120" height="40" as="geometry" />
        </mxCell>
        <mxCell id="7SOeXMoNOYHlSDrnlrKF-9" style="edgeStyle=orthogonalEdgeStyle;shape=connector;rounded=0;orthogonalLoop=1;jettySize=auto;html=1;exitX=0.5;exitY=1;exitDx=0;exitDy=0;entryX=0.5;entryY=0;entryDx=0;entryDy=0;entryPerimeter=0;labelBackgroundColor=none;strokeColor=default;strokeWidth=1;fontFamily=Verdana;fontSize=8;fontColor=default;endArrow=classicThin;endFill=1;startSize=5;endSize=5;" parent="1" source="d4-_k5U_l92kHuHyqdDG-43" target="7SOeXMoNOYHlSDrnlrKF-8" edge="1">
          <mxGeometry relative="1" as="geometry" />
        </mxCell>
        <mxCell id="d4-_k5U_l92kHuHyqdDG-43" value="Detect if&lt;br&gt;LibreOffice 4.1&lt;br&gt;&amp;nbsp;OR above&lt;br&gt;is installed" style="whiteSpace=wrap;html=1;rounded=0;shadow=1;labelBackgroundColor=none;strokeWidth=1;fontFamily=Verdana;fontSize=8;align=center;" parent="1" vertex="1">
          <mxGeometry x="400" y="1052" width="120" height="40" as="geometry" />
        </mxCell>
        <mxCell id="7SOeXMoNOYHlSDrnlrKF-3" value="" style="strokeWidth=1;html=1;shape=mxgraph.flowchart.terminator;whiteSpace=wrap;rounded=0;shadow=1;labelBackgroundColor=none;fontFamily=Verdana;fontSize=8;align=center;" parent="1" vertex="1">
          <mxGeometry x="-1330.8799999999999" y="-500" width="60" height="30" as="geometry" />
        </mxCell>
        <mxCell id="7SOeXMoNOYHlSDrnlrKF-6" value="" style="strokeWidth=1;html=1;shape=mxgraph.flowchart.terminator;whiteSpace=wrap;rounded=0;shadow=1;labelBackgroundColor=none;fontFamily=Verdana;fontSize=8;align=center;" parent="1" vertex="1">
          <mxGeometry x="70" y="-183" width="60" height="30" as="geometry" />
        </mxCell>
        <mxCell id="7SOeXMoNOYHlSDrnlrKF-8" value="" style="strokeWidth=1;html=1;shape=mxgraph.flowchart.terminator;whiteSpace=wrap;rounded=0;shadow=1;labelBackgroundColor=none;fontFamily=Verdana;fontSize=8;align=center;" parent="1" vertex="1">
          <mxGeometry x="430" y="1128" width="60" height="30" as="geometry" />
        </mxCell>
        <mxCell id="WXgyV-pI2MA7BBpM_h7G-34" style="edgeStyle=orthogonalEdgeStyle;shape=connector;rounded=0;orthogonalLoop=1;jettySize=auto;html=1;exitX=0.5;exitY=1;exitDx=0;exitDy=0;labelBackgroundColor=none;strokeColor=default;strokeWidth=1;fontFamily=Verdana;fontSize=8;fontColor=default;endArrow=classicThin;endFill=1;startSize=5;endSize=5;entryX=0.5;entryY=0;entryDx=0;entryDy=0;startArrow=none;" parent="1" source="d4-_k5U_l92kHuHyqdDG-14" target="WXgyV-pI2MA7BBpM_h7G-39" edge="1">
          <mxGeometry relative="1" as="geometry" />
        </mxCell>
        <mxCell id="WXgyV-pI2MA7BBpM_h7G-33" value="get HDD&lt;br&gt;free space" style="whiteSpace=wrap;html=1;rounded=0;shadow=1;labelBackgroundColor=none;strokeWidth=1;fontFamily=Verdana;fontSize=8;align=center;" parent="1" vertex="1">
          <mxGeometry x="40" y="-619.75" width="120" height="40" as="geometry" />
        </mxCell>
        <mxCell id="WXgyV-pI2MA7BBpM_h7G-40" style="edgeStyle=orthogonalEdgeStyle;shape=connector;rounded=0;orthogonalLoop=1;jettySize=auto;html=1;exitX=0.5;exitY=1;exitDx=0;exitDy=0;entryX=0.5;entryY=0;entryDx=0;entryDy=0;labelBackgroundColor=none;strokeColor=default;strokeWidth=1;fontFamily=Verdana;fontSize=8;fontColor=default;endArrow=classicThin;endFill=1;startSize=5;endSize=5;" parent="1" source="WXgyV-pI2MA7BBpM_h7G-39" target="gZyHitp84woVGNt1j31F-194" edge="1">
          <mxGeometry relative="1" as="geometry" />
        </mxCell>
        <mxCell id="WXgyV-pI2MA7BBpM_h7G-39" value="Detect Java installation&lt;br&gt;(and HDD space usage)" style="whiteSpace=wrap;html=1;rounded=0;shadow=1;labelBackgroundColor=none;strokeWidth=1;fontFamily=Verdana;fontSize=8;align=center;" parent="1" vertex="1">
          <mxGeometry x="40" y="-505.5" width="120" height="40" as="geometry" />
        </mxCell>
        <mxCell id="XvRja9NfxgAoNK3Vfk23-48" value="A rough check if the folder provided by the user contains a coherent set of packages need for install. This check will be based on file names and expected folder structure. As such it will not be giving guarantees of successful install" style="text;html=1;strokeColor=default;fillColor=none;align=center;verticalAlign=middle;whiteSpace=wrap;rounded=0;fontSize=8;fontFamily=Verdana;fontColor=default;dashed=1;" parent="1" vertex="1">
          <mxGeometry x="-1969" y="662" width="79.89" height="120" as="geometry" />
        </mxCell>
        <mxCell id="XvRja9NfxgAoNK3Vfk23-49" value="" style="endArrow=none;dashed=1;html=1;strokeWidth=1;rounded=0;labelBackgroundColor=none;strokeColor=default;fontFamily=Verdana;fontSize=8;fontColor=default;startSize=5;endSize=5;shape=connector;endFill=0;edgeStyle=orthogonalEdgeStyle;curved=1;" parent="1" source="KZAsET0lDErMvSsKAa-C-77" target="XvRja9NfxgAoNK3Vfk23-48" edge="1">
          <mxGeometry width="50" height="50" relative="1" as="geometry">
            <mxPoint x="-1359.11" y="1360" as="sourcePoint" />
            <mxPoint x="-1309.11" y="1310" as="targetPoint" />
          </mxGeometry>
        </mxCell>
        <mxCell id="KZAsET0lDErMvSsKAa-C-3" value="This check must be made optional because it can&#39;t&amp;nbsp; be really known what is the size of the packages especially those installed from a local copy" style="text;html=1;strokeColor=default;fillColor=none;align=center;verticalAlign=middle;whiteSpace=wrap;rounded=0;fontSize=8;fontFamily=Verdana;fontColor=default;dashed=1;" parent="1" vertex="1">
          <mxGeometry x="-290" y="-1540" width="89.93" height="63" as="geometry" />
        </mxCell>
        <mxCell id="KZAsET0lDErMvSsKAa-C-108" style="edgeStyle=orthogonalEdgeStyle;shape=connector;rounded=0;orthogonalLoop=1;jettySize=auto;html=1;exitX=0.5;exitY=1;exitDx=0;exitDy=0;labelBackgroundColor=none;strokeColor=default;strokeWidth=1;fontFamily=Verdana;fontSize=8;fontColor=default;endArrow=classicThin;endFill=1;startSize=5;endSize=5;" parent="1" source="KZAsET0lDErMvSsKAa-C-8" target="KZAsET0lDErMvSsKAa-C-106" edge="1">
          <mxGeometry relative="1" as="geometry" />
        </mxCell>
        <mxCell id="KZAsET0lDErMvSsKAa-C-8" value="Collect&lt;br&gt;packages" style="ellipse;whiteSpace=wrap;html=1;aspect=fixed;rounded=0;shadow=1;labelBackgroundColor=none;strokeColor=default;strokeWidth=1;fontFamily=Verdana;fontSize=8;fontColor=default;fillColor=default;" parent="1" vertex="1">
          <mxGeometry x="-710.01" y="660" width="40" height="40" as="geometry" />
        </mxCell>
        <mxCell id="KZAsET0lDErMvSsKAa-C-16" value="There is a reason for the user to want to keep packages. Most probably they are needed for another off-line install. Collect everything then (including java)" style="text;html=1;strokeColor=default;fillColor=none;align=center;verticalAlign=middle;whiteSpace=wrap;rounded=0;fontSize=8;fontFamily=Verdana;fontColor=default;dashed=1;" parent="1" vertex="1">
          <mxGeometry x="-780" y="-1630" width="79.89" height="100" as="geometry" />
        </mxCell>
        <mxCell id="KZAsET0lDErMvSsKAa-C-17" style="edgeStyle=orthogonalEdgeStyle;shape=connector;rounded=0;orthogonalLoop=1;jettySize=auto;html=1;labelBackgroundColor=none;strokeColor=default;strokeWidth=1;fontFamily=Verdana;fontSize=8;fontColor=default;endArrow=none;endFill=0;startSize=5;endSize=5;dashed=1;curved=1;startArrow=none;startFill=0;exitX=0;exitY=0.75;exitDx=0;exitDy=0;" parent="1" source="FMaZAtzqC5wsarscTpgY-54" target="KZAsET0lDErMvSsKAa-C-16" edge="1">
          <mxGeometry relative="1" as="geometry">
            <mxPoint x="-516.2200000000003" y="-1402.25" as="sourcePoint" />
            <mxPoint x="-301.3600000000001" y="-1382.7499999999998" as="targetPoint" />
          </mxGeometry>
        </mxCell>
        <mxCell id="KZAsET0lDErMvSsKAa-C-30" style="edgeStyle=orthogonalEdgeStyle;rounded=0;orthogonalLoop=1;jettySize=auto;html=1;exitX=0.5;exitY=1;exitDx=0;exitDy=0;entryX=0.5;entryY=0;entryDx=0;entryDy=0;" parent="1" source="KZAsET0lDErMvSsKAa-C-18" target="KZAsET0lDErMvSsKAa-C-28" edge="1">
          <mxGeometry relative="1" as="geometry" />
        </mxCell>
        <mxCell id="KZAsET0lDErMvSsKAa-C-18" value="RUN&lt;br&gt;Get Java&lt;br&gt;(download, verify)" style="rounded=1;whiteSpace=wrap;html=1;shadow=1;labelBackgroundColor=none;strokeWidth=1;fontFamily=Verdana;fontSize=8;align=center;" parent="1" vertex="1">
          <mxGeometry x="-740.01" y="802" width="100" height="40" as="geometry" />
        </mxCell>
        <mxCell id="KZAsET0lDErMvSsKAa-C-24" style="edgeStyle=orthogonalEdgeStyle;rounded=0;orthogonalLoop=1;jettySize=auto;html=1;exitX=0.5;exitY=1;exitDx=0;exitDy=0;entryX=0.5;entryY=0;entryDx=0;entryDy=0;startArrow=none;" parent="1" source="KZAsET0lDErMvSsKAa-C-115" target="KZAsET0lDErMvSsKAa-C-23" edge="1">
          <mxGeometry relative="1" as="geometry">
            <mxPoint x="-709.97" y="1061.9999999999998" as="sourcePoint" />
          </mxGeometry>
        </mxCell>
        <mxCell id="KZAsET0lDErMvSsKAa-C-31" style="edgeStyle=orthogonalEdgeStyle;rounded=0;orthogonalLoop=1;jettySize=auto;html=1;exitX=0.5;exitY=1;exitDx=0;exitDy=0;entryX=0.5;entryY=0;entryDx=0;entryDy=0;" parent="1" source="KZAsET0lDErMvSsKAa-C-23" target="KZAsET0lDErMvSsKAa-C-29" edge="1">
          <mxGeometry relative="1" as="geometry" />
        </mxCell>
        <mxCell id="KZAsET0lDErMvSsKAa-C-23" value="RUN&lt;br&gt;Get LO packages&lt;br style=&quot;border-color: var(--border-color);&quot;&gt;(list)" style="rounded=1;whiteSpace=wrap;html=1;shadow=1;labelBackgroundColor=none;strokeWidth=1;fontFamily=Verdana;fontSize=8;align=center;" parent="1" vertex="1">
          <mxGeometry x="-740.0100000000002" y="1052" width="100" height="40" as="geometry" />
        </mxCell>
        <mxCell id="KZAsET0lDErMvSsKAa-C-161" style="edgeStyle=orthogonalEdgeStyle;shape=connector;rounded=0;orthogonalLoop=1;jettySize=auto;html=1;exitX=0.5;exitY=1;exitDx=0;exitDy=0;entryX=0.5;entryY=0;entryDx=0;entryDy=0;labelBackgroundColor=none;strokeColor=default;strokeWidth=1;fontFamily=Verdana;fontSize=8;fontColor=default;endArrow=classicThin;endFill=1;startSize=5;endSize=5;" parent="1" source="KZAsET0lDErMvSsKAa-C-28" target="KZAsET0lDErMvSsKAa-C-115" edge="1">
          <mxGeometry relative="1" as="geometry" />
        </mxCell>
        <mxCell id="KZAsET0lDErMvSsKAa-C-28" value="was Java&lt;br style=&quot;border-color: var(--border-color);&quot;&gt;successfully&lt;br style=&quot;border-color: var(--border-color);&quot;&gt;collected ?" style="rhombus;whiteSpace=wrap;html=1;rounded=0;shadow=1;labelBackgroundColor=none;strokeWidth=1;fontFamily=Verdana;fontSize=8;align=center;" parent="1" vertex="1">
          <mxGeometry x="-740.01" y="870" width="100" height="60" as="geometry" />
        </mxCell>
        <mxCell id="KZAsET0lDErMvSsKAa-C-34" style="edgeStyle=orthogonalEdgeStyle;rounded=0;orthogonalLoop=1;jettySize=auto;html=1;exitX=0.5;exitY=1;exitDx=0;exitDy=0;startArrow=none;entryX=0.5;entryY=0;entryDx=0;entryDy=0;entryPerimeter=0;" parent="1" source="KZAsET0lDErMvSsKAa-C-59" target="KZAsET0lDErMvSsKAa-C-33" edge="1">
          <mxGeometry relative="1" as="geometry">
            <mxPoint x="-659.97" y="1499" as="targetPoint" />
          </mxGeometry>
        </mxCell>
        <mxCell id="KZAsET0lDErMvSsKAa-C-63" style="edgeStyle=orthogonalEdgeStyle;shape=connector;rounded=0;orthogonalLoop=1;jettySize=auto;html=1;exitX=0;exitY=0.5;exitDx=0;exitDy=0;labelBackgroundColor=none;strokeColor=default;strokeWidth=1;fontFamily=Verdana;fontSize=8;fontColor=default;startArrow=none;endArrow=classicThin;endFill=1;startSize=5;endSize=5;entryX=0.5;entryY=0;entryDx=0;entryDy=0;" parent="1" source="KZAsET0lDErMvSsKAa-C-29" target="KZAsET0lDErMvSsKAa-C-60" edge="1">
          <mxGeometry relative="1" as="geometry">
            <mxPoint x="-839.97" y="1210" as="targetPoint" />
          </mxGeometry>
        </mxCell>
        <mxCell id="KZAsET0lDErMvSsKAa-C-29" value="were LibreOffice&lt;br&gt;packages&lt;br&gt;successfully&lt;br&gt;collected ?" style="rhombus;whiteSpace=wrap;html=1;rounded=0;shadow=1;labelBackgroundColor=none;strokeWidth=1;fontFamily=Verdana;fontSize=8;align=center;" parent="1" vertex="1">
          <mxGeometry x="-740.0100000000002" y="1113" width="100" height="60" as="geometry" />
        </mxCell>
        <mxCell id="KZAsET0lDErMvSsKAa-C-33" value="" style="strokeWidth=1;html=1;shape=mxgraph.flowchart.terminator;whiteSpace=wrap;rounded=0;shadow=1;labelBackgroundColor=none;fontFamily=Verdana;fontSize=8;align=center;" parent="1" vertex="1">
          <mxGeometry x="-720.01" y="1589" width="60" height="30" as="geometry" />
        </mxCell>
        <mxCell id="KZAsET0lDErMvSsKAa-C-39" value="" style="edgeStyle=orthogonalEdgeStyle;shape=connector;rounded=0;orthogonalLoop=1;jettySize=auto;html=1;exitX=0.5;exitY=1;exitDx=0;exitDy=0;entryX=0.5;entryY=0;entryDx=0;entryDy=0;entryPerimeter=0;labelBackgroundColor=none;strokeColor=default;strokeWidth=1;fontFamily=Verdana;fontSize=8;fontColor=default;endArrow=classicThin;endFill=1;startSize=5;endSize=5;" parent="1" source="FMaZAtzqC5wsarscTpgY-1" target="KZAsET0lDErMvSsKAa-C-38" edge="1">
          <mxGeometry relative="1" as="geometry">
            <mxPoint x="100" y="-465.5" as="sourcePoint" />
            <mxPoint x="100" y="-274.25" as="targetPoint" />
          </mxGeometry>
        </mxCell>
        <mxCell id="KZAsET0lDErMvSsKAa-C-38" value="Detect running&lt;br&gt;OpenOffice and LibreOffice&lt;br&gt;processes&lt;br&gt;and get their PIDs" style="whiteSpace=wrap;html=1;rounded=0;shadow=1;labelBackgroundColor=none;strokeWidth=1;fontFamily=Verdana;fontSize=8;align=center;" parent="1" vertex="1">
          <mxGeometry x="39.999999999999886" y="-313" width="120" height="40" as="geometry" />
        </mxCell>
        <mxCell id="KZAsET0lDErMvSsKAa-C-45" value="" style="edgeStyle=orthogonalEdgeStyle;shape=connector;rounded=0;orthogonalLoop=1;jettySize=auto;html=1;exitX=0.5;exitY=1;exitDx=0;exitDy=0;entryX=0.5;entryY=0;entryDx=0;entryDy=0;entryPerimeter=0;labelBackgroundColor=none;strokeColor=default;strokeWidth=1;fontFamily=Verdana;fontSize=8;fontColor=default;endArrow=classicThin;endFill=1;startSize=5;endSize=5;startArrow=none;" parent="1" source="KZAsET0lDErMvSsKAa-C-38" target="KZAsET0lDErMvSsKAa-C-44" edge="1">
          <mxGeometry relative="1" as="geometry">
            <mxPoint x="100" y="-408" as="sourcePoint" />
            <mxPoint x="100" y="-274.25" as="targetPoint" />
          </mxGeometry>
        </mxCell>
        <mxCell id="KZAsET0lDErMvSsKAa-C-44" value="Detect running&lt;br&gt;package managers&lt;br&gt;and get their PIDs&lt;br&gt;(in: apt-get, synapitc, etc)" style="whiteSpace=wrap;html=1;rounded=0;shadow=1;labelBackgroundColor=none;strokeWidth=1;fontFamily=Verdana;fontSize=8;align=center;" parent="1" vertex="1">
          <mxGeometry x="39.999999999999886" y="-253" width="120" height="40" as="geometry" />
        </mxCell>
        <mxCell id="KZAsET0lDErMvSsKAa-C-53" style="edgeStyle=orthogonalEdgeStyle;shape=connector;rounded=0;orthogonalLoop=1;jettySize=auto;html=1;exitX=0.5;exitY=1;exitDx=0;exitDy=0;entryX=0.5;entryY=0;entryDx=0;entryDy=0;labelBackgroundColor=none;strokeColor=default;strokeWidth=1;fontFamily=Verdana;fontSize=8;fontColor=default;startArrow=none;endArrow=classicThin;endFill=1;startSize=5;endSize=5;" parent="1" source="KZAsET0lDErMvSsKAa-C-73" target="FMaZAtzqC5wsarscTpgY-82" edge="1">
          <mxGeometry relative="1" as="geometry" />
        </mxCell>
        <mxCell id="FMaZAtzqC5wsarscTpgY-84" style="edgeStyle=orthogonalEdgeStyle;shape=connector;rounded=0;orthogonalLoop=1;jettySize=auto;html=1;exitX=0.5;exitY=1;exitDx=0;exitDy=0;entryX=0.5;entryY=0;entryDx=0;entryDy=0;labelBackgroundColor=none;strokeColor=default;strokeWidth=1;fontFamily=Verdana;fontSize=8;fontColor=default;endArrow=classicThin;endFill=1;startSize=5;endSize=5;" parent="1" source="KZAsET0lDErMvSsKAa-C-50" target="KZAsET0lDErMvSsKAa-C-73" edge="1">
          <mxGeometry relative="1" as="geometry" />
        </mxCell>
        <mxCell id="KZAsET0lDErMvSsKAa-C-50" value="RUN&lt;br&gt;Collect&lt;br style=&quot;border-color: var(--border-color);&quot;&gt;packages" style="rounded=1;whiteSpace=wrap;html=1;shadow=1;labelBackgroundColor=none;strokeWidth=1;fontFamily=Verdana;fontSize=8;align=center;" parent="1" vertex="1">
          <mxGeometry x="-1499.47" y="720" width="100" height="40" as="geometry" />
        </mxCell>
        <mxCell id="KZAsET0lDErMvSsKAa-C-76" style="edgeStyle=orthogonalEdgeStyle;shape=connector;rounded=0;orthogonalLoop=1;jettySize=auto;html=1;exitX=0.5;exitY=1;exitDx=0;exitDy=0;labelBackgroundColor=none;strokeColor=default;strokeWidth=1;fontFamily=Verdana;fontSize=8;fontColor=default;startArrow=none;endArrow=classicThin;endFill=1;startSize=5;endSize=5;entryX=0.5;entryY=0;entryDx=0;entryDy=0;" parent="1" source="KZAsET0lDErMvSsKAa-C-52" target="KZAsET0lDErMvSsKAa-C-55" edge="1">
          <mxGeometry relative="1" as="geometry">
            <mxPoint x="-1449.1100000000001" y="1061.9999999999995" as="targetPoint" />
          </mxGeometry>
        </mxCell>
        <mxCell id="FMaZAtzqC5wsarscTpgY-86" style="edgeStyle=orthogonalEdgeStyle;shape=connector;rounded=0;orthogonalLoop=1;jettySize=auto;html=1;exitX=0;exitY=0.5;exitDx=0;exitDy=0;labelBackgroundColor=none;strokeColor=default;strokeWidth=1;fontFamily=Verdana;fontSize=8;fontColor=default;endArrow=classicThin;endFill=1;startSize=5;endSize=5;entryX=0.5;entryY=0;entryDx=0;entryDy=0;" parent="1" source="KZAsET0lDErMvSsKAa-C-52" target="FMaZAtzqC5wsarscTpgY-85" edge="1">
          <mxGeometry relative="1" as="geometry">
            <mxPoint x="-1499" y="1180" as="targetPoint" />
            <Array as="points">
              <mxPoint x="-1519" y="979" />
              <mxPoint x="-1519" y="1170" />
              <mxPoint x="-1449" y="1170" />
            </Array>
          </mxGeometry>
        </mxCell>
        <mxCell id="KZAsET0lDErMvSsKAa-C-52" value="Java is&lt;br&gt;needs&lt;br&gt;to&amp;nbsp;be installed ?" style="rhombus;whiteSpace=wrap;html=1;rounded=0;shadow=1;labelBackgroundColor=none;strokeWidth=1;fontFamily=Verdana;fontSize=8;align=center;" parent="1" vertex="1">
          <mxGeometry x="-1499.47" y="949" width="100" height="60" as="geometry" />
        </mxCell>
        <mxCell id="KZAsET0lDErMvSsKAa-C-58" style="edgeStyle=orthogonalEdgeStyle;shape=connector;rounded=0;orthogonalLoop=1;jettySize=auto;html=1;exitX=1;exitY=0.5;exitDx=0;exitDy=0;labelBackgroundColor=none;strokeColor=default;strokeWidth=1;fontFamily=Verdana;fontSize=8;fontColor=default;startArrow=none;endArrow=classicThin;endFill=1;startSize=5;endSize=5;entryX=0.5;entryY=0;entryDx=0;entryDy=0;" parent="1" source="KZAsET0lDErMvSsKAa-C-54" target="KZAsET0lDErMvSsKAa-C-87" edge="1">
          <mxGeometry relative="1" as="geometry">
            <mxPoint x="-1199.11" y="1050" as="targetPoint" />
          </mxGeometry>
        </mxCell>
        <mxCell id="KZAsET0lDErMvSsKAa-C-86" style="edgeStyle=orthogonalEdgeStyle;shape=connector;rounded=0;orthogonalLoop=1;jettySize=auto;html=1;labelBackgroundColor=none;strokeColor=default;strokeWidth=1;fontFamily=Verdana;fontSize=8;fontColor=default;startArrow=none;endArrow=classicThin;endFill=1;startSize=5;endSize=5;entryX=0.5;entryY=0;entryDx=0;entryDy=0;exitX=0.5;exitY=1;exitDx=0;exitDy=0;" parent="1" source="FMaZAtzqC5wsarscTpgY-85" target="gZyHitp84woVGNt1j31F-63" edge="1">
          <mxGeometry relative="1" as="geometry">
            <mxPoint x="-1450" y="1280" as="sourcePoint" />
            <mxPoint x="-1410" y="1070" as="targetPoint" />
          </mxGeometry>
        </mxCell>
        <mxCell id="FMaZAtzqC5wsarscTpgY-87" style="edgeStyle=orthogonalEdgeStyle;shape=connector;rounded=0;orthogonalLoop=1;jettySize=auto;html=1;exitX=0.5;exitY=1;exitDx=0;exitDy=0;labelBackgroundColor=none;strokeColor=default;strokeWidth=1;fontFamily=Verdana;fontSize=8;fontColor=default;endArrow=classicThin;endFill=1;startSize=5;endSize=5;entryX=0.5;entryY=0;entryDx=0;entryDy=0;" parent="1" source="KZAsET0lDErMvSsKAa-C-54" target="FMaZAtzqC5wsarscTpgY-85" edge="1">
          <mxGeometry relative="1" as="geometry">
            <mxPoint x="-1410" y="1200" as="targetPoint" />
          </mxGeometry>
        </mxCell>
        <mxCell id="KZAsET0lDErMvSsKAa-C-54" value="Java was&lt;br&gt;installed?" style="rhombus;whiteSpace=wrap;html=1;rounded=0;shadow=1;labelBackgroundColor=none;strokeWidth=1;fontFamily=Verdana;fontSize=8;align=center;" parent="1" vertex="1">
          <mxGeometry x="-1499.47" y="1092" width="100" height="60" as="geometry" />
        </mxCell>
        <mxCell id="KZAsET0lDErMvSsKAa-C-57" style="edgeStyle=orthogonalEdgeStyle;shape=connector;rounded=0;orthogonalLoop=1;jettySize=auto;html=1;exitX=0.5;exitY=1;exitDx=0;exitDy=0;entryX=0.5;entryY=0;entryDx=0;entryDy=0;labelBackgroundColor=none;strokeColor=default;strokeWidth=1;fontFamily=Verdana;fontSize=8;fontColor=default;startArrow=none;endArrow=classicThin;endFill=1;startSize=5;endSize=5;" parent="1" source="KZAsET0lDErMvSsKAa-C-55" target="KZAsET0lDErMvSsKAa-C-54" edge="1">
          <mxGeometry relative="1" as="geometry" />
        </mxCell>
        <mxCell id="KZAsET0lDErMvSsKAa-C-55" value="RUN&lt;br&gt;Java install&lt;br&gt;procedure" style="rounded=1;whiteSpace=wrap;html=1;shadow=1;labelBackgroundColor=none;strokeWidth=1;fontFamily=Verdana;fontSize=8;align=center;" parent="1" vertex="1">
          <mxGeometry x="-1499.47" y="1028" width="100" height="40" as="geometry" />
        </mxCell>
        <mxCell id="KZAsET0lDErMvSsKAa-C-61" value="" style="edgeStyle=orthogonalEdgeStyle;rounded=0;orthogonalLoop=1;jettySize=auto;html=1;exitX=0;exitY=0.5;exitDx=0;exitDy=0;endArrow=none;entryX=0.5;entryY=0;entryDx=0;entryDy=0;" parent="1" source="KZAsET0lDErMvSsKAa-C-28" target="KZAsET0lDErMvSsKAa-C-60" edge="1">
          <mxGeometry relative="1" as="geometry">
            <mxPoint x="-910.01" y="886.5" as="sourcePoint" />
            <mxPoint x="-849.97" y="1200" as="targetPoint" />
          </mxGeometry>
        </mxCell>
        <mxCell id="KZAsET0lDErMvSsKAa-C-64" style="edgeStyle=orthogonalEdgeStyle;shape=connector;rounded=0;orthogonalLoop=1;jettySize=auto;html=1;exitX=0.5;exitY=1;exitDx=0;exitDy=0;entryX=0.5;entryY=0;entryDx=0;entryDy=0;entryPerimeter=0;labelBackgroundColor=none;strokeColor=default;strokeWidth=1;fontFamily=Verdana;fontSize=8;fontColor=default;startArrow=none;endArrow=classicThin;endFill=1;startSize=5;endSize=5;" parent="1" source="KZAsET0lDErMvSsKAa-C-60" target="KZAsET0lDErMvSsKAa-C-33" edge="1">
          <mxGeometry relative="1" as="geometry" />
        </mxCell>
        <mxCell id="KZAsET0lDErMvSsKAa-C-60" value="set&lt;br&gt;procedure&lt;br&gt;failed" style="rounded=0;whiteSpace=wrap;html=1;shadow=1;labelBackgroundColor=none;strokeWidth=1;fontFamily=Verdana;fontSize=8;align=center;" parent="1" vertex="1">
          <mxGeometry x="-869.9700000000003" y="1499" width="100" height="40" as="geometry" />
        </mxCell>
        <mxCell id="KZAsET0lDErMvSsKAa-C-65" value="" style="edgeStyle=orthogonalEdgeStyle;rounded=0;orthogonalLoop=1;jettySize=auto;html=1;exitX=0.5;exitY=1;exitDx=0;exitDy=0;endArrow=classic;endFill=1;entryX=0.5;entryY=0;entryDx=0;entryDy=0;" parent="1" source="KZAsET0lDErMvSsKAa-C-29" target="FMaZAtzqC5wsarscTpgY-69" edge="1">
          <mxGeometry relative="1" as="geometry">
            <mxPoint x="-690.01" y="1210.0000000000002" as="sourcePoint" />
            <mxPoint x="-669.97" y="1220" as="targetPoint" />
          </mxGeometry>
        </mxCell>
        <mxCell id="KZAsET0lDErMvSsKAa-C-59" value="set&lt;br&gt;procedure&lt;br&gt;succeeded" style="rounded=0;whiteSpace=wrap;html=1;shadow=1;labelBackgroundColor=none;strokeWidth=1;fontFamily=Verdana;fontSize=8;align=center;" parent="1" vertex="1">
          <mxGeometry x="-740.0100000000002" y="1499" width="100" height="40" as="geometry" />
        </mxCell>
        <mxCell id="KZAsET0lDErMvSsKAa-C-75" style="edgeStyle=orthogonalEdgeStyle;shape=connector;rounded=0;orthogonalLoop=1;jettySize=auto;html=1;exitX=1;exitY=0.5;exitDx=0;exitDy=0;labelBackgroundColor=none;strokeColor=default;strokeWidth=1;fontFamily=Verdana;fontSize=8;fontColor=default;startArrow=none;endArrow=classicThin;endFill=1;startSize=5;endSize=5;entryX=0.5;entryY=0;entryDx=0;entryDy=0;" parent="1" source="KZAsET0lDErMvSsKAa-C-73" target="KZAsET0lDErMvSsKAa-C-87" edge="1">
          <mxGeometry relative="1" as="geometry">
            <mxPoint x="-1199.11" y="970" as="targetPoint" />
          </mxGeometry>
        </mxCell>
        <mxCell id="KZAsET0lDErMvSsKAa-C-73" value="packages&amp;nbsp;&lt;br&gt;successfully&lt;br&gt;collected ?" style="rhombus;whiteSpace=wrap;html=1;rounded=0;shadow=1;labelBackgroundColor=none;strokeWidth=1;fontFamily=Verdana;fontSize=8;align=center;" parent="1" vertex="1">
          <mxGeometry x="-1499.47" y="772" width="100" height="60" as="geometry" />
        </mxCell>
        <mxCell id="KZAsET0lDErMvSsKAa-C-80" style="edgeStyle=orthogonalEdgeStyle;shape=connector;rounded=0;orthogonalLoop=1;jettySize=auto;html=1;exitX=0.5;exitY=1;exitDx=0;exitDy=0;labelBackgroundColor=none;strokeColor=default;strokeWidth=1;fontFamily=Verdana;fontSize=8;fontColor=default;startArrow=none;endArrow=classicThin;endFill=1;startSize=5;endSize=5;entryX=0.5;entryY=0;entryDx=0;entryDy=0;" parent="1" source="KZAsET0lDErMvSsKAa-C-77" target="KZAsET0lDErMvSsKAa-C-79" edge="1">
          <mxGeometry relative="1" as="geometry">
            <mxPoint x="-1739.11" y="770" as="targetPoint" />
          </mxGeometry>
        </mxCell>
        <mxCell id="KZAsET0lDErMvSsKAa-C-77" value="Verify&lt;br&gt;local copy" style="rounded=0;whiteSpace=wrap;html=1;shadow=1;labelBackgroundColor=none;strokeWidth=1;fontFamily=Verdana;fontSize=8;align=center;" parent="1" vertex="1">
          <mxGeometry x="-1809.11" y="720" width="100" height="40" as="geometry" />
        </mxCell>
        <mxCell id="KZAsET0lDErMvSsKAa-C-82" style="edgeStyle=orthogonalEdgeStyle;shape=connector;rounded=0;orthogonalLoop=1;jettySize=auto;html=1;exitX=0;exitY=0.5;exitDx=0;exitDy=0;labelBackgroundColor=none;strokeColor=default;strokeWidth=1;fontFamily=Verdana;fontSize=8;fontColor=default;startArrow=none;endArrow=classicThin;endFill=1;startSize=5;endSize=5;entryX=0.5;entryY=0;entryDx=0;entryDy=0;" parent="1" source="KZAsET0lDErMvSsKAa-C-79" target="KZAsET0lDErMvSsKAa-C-89" edge="1">
          <mxGeometry relative="1" as="geometry">
            <mxPoint x="-1919.1100000000001" y="850" as="targetPoint" />
          </mxGeometry>
        </mxCell>
        <mxCell id="KZAsET0lDErMvSsKAa-C-83" style="edgeStyle=orthogonalEdgeStyle;shape=connector;rounded=0;orthogonalLoop=1;jettySize=auto;html=1;exitX=0.5;exitY=1;exitDx=0;exitDy=0;labelBackgroundColor=none;strokeColor=default;strokeWidth=1;fontFamily=Verdana;fontSize=8;fontColor=default;startArrow=none;endArrow=classicThin;endFill=1;startSize=5;endSize=5;entryX=0.5;entryY=0;entryDx=0;entryDy=0;" parent="1" source="KZAsET0lDErMvSsKAa-C-79" target="FMaZAtzqC5wsarscTpgY-82" edge="1">
          <mxGeometry relative="1" as="geometry">
            <mxPoint x="-1469.11" y="880" as="targetPoint" />
          </mxGeometry>
        </mxCell>
        <mxCell id="KZAsET0lDErMvSsKAa-C-79" value="all needed &lt;br&gt;packages&amp;nbsp;&lt;br&gt;exist ?" style="rhombus;whiteSpace=wrap;html=1;rounded=0;shadow=1;labelBackgroundColor=none;strokeWidth=1;fontFamily=Verdana;fontSize=8;align=center;" parent="1" vertex="1">
          <mxGeometry x="-1809.11" y="772" width="100" height="60" as="geometry" />
        </mxCell>
        <mxCell id="KZAsET0lDErMvSsKAa-C-85" value="" style="edgeStyle=orthogonalEdgeStyle;shape=connector;rounded=0;orthogonalLoop=1;jettySize=auto;html=1;exitX=0.5;exitY=1;exitDx=0;exitDy=0;entryX=0.5;entryY=0;entryDx=0;entryDy=0;labelBackgroundColor=none;strokeColor=default;strokeWidth=1;fontFamily=Verdana;fontSize=8;fontColor=default;endArrow=classicThin;endFill=1;startSize=5;endSize=5;entryPerimeter=0;" parent="1" source="gZyHitp84woVGNt1j31F-89" target="KZAsET0lDErMvSsKAa-C-84" edge="1">
          <mxGeometry relative="1" as="geometry">
            <mxPoint x="-1450.62" y="2402.5" as="targetPoint" />
            <mxPoint x="-1450.62" y="2280" as="sourcePoint" />
          </mxGeometry>
        </mxCell>
        <mxCell id="KZAsET0lDErMvSsKAa-C-84" value="set&lt;br&gt;procedure&lt;br&gt;succeeded" style="rounded=0;whiteSpace=wrap;html=1;shadow=1;labelBackgroundColor=none;strokeWidth=1;fontFamily=Verdana;fontSize=8;align=center;" parent="1" vertex="1">
          <mxGeometry x="-1499.47" y="2300" width="100" height="40" as="geometry" />
        </mxCell>
        <mxCell id="KZAsET0lDErMvSsKAa-C-88" style="edgeStyle=orthogonalEdgeStyle;shape=connector;rounded=0;orthogonalLoop=1;jettySize=auto;html=1;exitX=0.5;exitY=1;exitDx=0;exitDy=0;labelBackgroundColor=none;strokeColor=default;strokeWidth=1;fontFamily=Verdana;fontSize=8;fontColor=default;startArrow=none;endArrow=classicThin;endFill=1;startSize=5;endSize=5;entryX=0.5;entryY=0;entryDx=0;entryDy=0;entryPerimeter=0;" parent="1" source="KZAsET0lDErMvSsKAa-C-87" target="gZyHitp84woVGNt1j31F-24" edge="1">
          <mxGeometry relative="1" as="geometry">
            <mxPoint x="-1390.87" y="2418.5" as="targetPoint" />
          </mxGeometry>
        </mxCell>
        <mxCell id="KZAsET0lDErMvSsKAa-C-87" value="set&lt;br&gt;procedure&lt;br&gt;failed" style="rounded=0;whiteSpace=wrap;html=1;shadow=1;labelBackgroundColor=none;strokeWidth=1;fontFamily=Verdana;fontSize=8;align=center;" parent="1" vertex="1">
          <mxGeometry x="-1249.11" y="2300" width="100" height="40" as="geometry" />
        </mxCell>
        <mxCell id="KZAsET0lDErMvSsKAa-C-90" style="edgeStyle=orthogonalEdgeStyle;shape=connector;rounded=0;orthogonalLoop=1;jettySize=auto;html=1;exitX=0.5;exitY=1;exitDx=0;exitDy=0;entryX=0.5;entryY=0;entryDx=0;entryDy=0;entryPerimeter=0;labelBackgroundColor=none;strokeColor=default;strokeWidth=1;fontFamily=Verdana;fontSize=8;fontColor=default;startArrow=none;endArrow=classicThin;endFill=1;startSize=5;endSize=5;" parent="1" source="KZAsET0lDErMvSsKAa-C-89" target="gZyHitp84woVGNt1j31F-24" edge="1">
          <mxGeometry relative="1" as="geometry">
            <mxPoint x="-1839.9799999999996" y="2362.5" as="sourcePoint" />
          </mxGeometry>
        </mxCell>
        <mxCell id="KZAsET0lDErMvSsKAa-C-89" value="set&lt;br&gt;procedure&lt;br&gt;failed" style="rounded=0;whiteSpace=wrap;html=1;shadow=1;labelBackgroundColor=none;strokeWidth=1;fontFamily=Verdana;fontSize=8;align=center;" parent="1" vertex="1">
          <mxGeometry x="-1909.11" y="2300" width="100" height="40" as="geometry" />
        </mxCell>
        <mxCell id="KZAsET0lDErMvSsKAa-C-95" value="" style="edgeStyle=orthogonalEdgeStyle;shape=connector;rounded=0;orthogonalLoop=1;jettySize=auto;html=1;exitX=0.5;exitY=1;exitDx=0;exitDy=0;entryX=0.5;entryY=0;entryDx=0;entryDy=0;labelBackgroundColor=none;strokeColor=default;strokeWidth=1;fontFamily=Verdana;fontSize=8;fontColor=default;endArrow=classicThin;endFill=1;startSize=5;endSize=5;" parent="1" source="vTeHq6-nuDfhrwUV0Sy5-1" target="j1TnudKSoMf6J_vbDHsm-6" edge="1">
          <mxGeometry relative="1" as="geometry">
            <mxPoint x="-540.1100000000002" y="-2287.5" as="sourcePoint" />
            <mxPoint x="-540.1100000000002" y="-2147.5" as="targetPoint" />
          </mxGeometry>
        </mxCell>
        <mxCell id="j1TnudKSoMf6J_vbDHsm-119" style="edgeStyle=orthogonalEdgeStyle;shape=connector;rounded=0;orthogonalLoop=1;jettySize=auto;html=1;exitX=0.5;exitY=1;exitDx=0;exitDy=0;labelBackgroundColor=none;strokeColor=default;strokeWidth=1;fontFamily=Verdana;fontSize=8;fontColor=default;endArrow=classicThin;endFill=1;startSize=5;endSize=5;entryX=0.5;entryY=0;entryDx=0;entryDy=0;" parent="1" source="Q7OsvflCETNWhosahGd8-3" target="CaTrGZt4zre4TjSHEbGF-26" edge="1">
          <mxGeometry relative="1" as="geometry">
            <mxPoint x="-140" y="-3150" as="targetPoint" />
          </mxGeometry>
        </mxCell>
        <mxCell id="Q7OsvflCETNWhosahGd8-82" style="edgeStyle=orthogonalEdgeStyle;shape=connector;rounded=0;orthogonalLoop=1;jettySize=auto;html=1;exitX=0.5;exitY=1;exitDx=0;exitDy=0;entryX=0.5;entryY=0;entryDx=0;entryDy=0;labelBackgroundColor=none;strokeColor=default;strokeWidth=1;fontFamily=Verdana;fontSize=8;fontColor=default;endArrow=classicThin;endFill=1;startSize=5;endSize=5;" parent="1" source="KZAsET0lDErMvSsKAa-C-94" target="Q7OsvflCETNWhosahGd8-3" edge="1">
          <mxGeometry relative="1" as="geometry" />
        </mxCell>
        <mxCell id="KZAsET0lDErMvSsKAa-C-94" value="Create&lt;br&gt;working&amp;nbsp; folder&lt;br&gt;(if it doesn&#39;t exist)" style="whiteSpace=wrap;html=1;rounded=0;shadow=1;labelBackgroundColor=none;strokeWidth=1;fontFamily=Verdana;fontSize=8;align=center;" parent="1" vertex="1">
          <mxGeometry x="-600.0000000000001" y="-2720" width="120" height="40" as="geometry" />
        </mxCell>
        <mxCell id="j1TnudKSoMf6J_vbDHsm-24" style="edgeStyle=orthogonalEdgeStyle;shape=connector;rounded=0;orthogonalLoop=1;jettySize=auto;html=1;exitX=0.5;exitY=1;exitDx=0;exitDy=0;entryX=0.5;entryY=0;entryDx=0;entryDy=0;labelBackgroundColor=none;strokeColor=default;strokeWidth=1;fontFamily=Verdana;fontSize=8;fontColor=default;endArrow=classicThin;endFill=1;startSize=5;endSize=5;" parent="1" source="j1TnudKSoMf6J_vbDHsm-121" target="KZAsET0lDErMvSsKAa-C-94" edge="1">
          <mxGeometry relative="1" as="geometry" />
        </mxCell>
        <mxCell id="j1TnudKSoMf6J_vbDHsm-28" style="edgeStyle=orthogonalEdgeStyle;shape=connector;rounded=0;orthogonalLoop=1;jettySize=auto;html=1;exitX=0.5;exitY=1;exitDx=0;exitDy=0;entryX=0.5;entryY=0;entryDx=0;entryDy=0;labelBackgroundColor=none;strokeColor=default;strokeWidth=1;fontFamily=Verdana;fontSize=8;fontColor=default;endArrow=classicThin;endFill=1;startSize=5;endSize=5;" parent="1" source="WXgyV-pI2MA7BBpM_h7G-3" target="FMaZAtzqC5wsarscTpgY-117" edge="1">
          <mxGeometry relative="1" as="geometry" />
        </mxCell>
        <mxCell id="WXgyV-pI2MA7BBpM_h7G-3" value="Create&lt;br&gt;log file" style="whiteSpace=wrap;html=1;rounded=0;shadow=1;labelBackgroundColor=none;strokeWidth=1;fontFamily=Verdana;fontSize=8;align=center;" parent="1" vertex="1">
          <mxGeometry x="-600.1800000000001" y="-2960" width="120" height="40" as="geometry" />
        </mxCell>
        <mxCell id="KZAsET0lDErMvSsKAa-C-97" value="" style="edgeStyle=orthogonalEdgeStyle;shape=connector;rounded=0;orthogonalLoop=1;jettySize=auto;html=1;labelBackgroundColor=none;strokeColor=default;strokeWidth=1;fontFamily=Verdana;fontSize=8;fontColor=default;endArrow=classicThin;endFill=1;startSize=5;endSize=5;startArrow=none;" parent="1" source="KZAsET0lDErMvSsKAa-C-99" target="WXgyV-pI2MA7BBpM_h7G-58" edge="1">
          <mxGeometry relative="1" as="geometry">
            <mxPoint x="-439.12000000000023" y="-869.2500000000001" as="sourcePoint" />
            <mxPoint x="-439.12000000000023" y="-739.25" as="targetPoint" />
          </mxGeometry>
        </mxCell>
        <mxCell id="j1TnudKSoMf6J_vbDHsm-160" style="edgeStyle=orthogonalEdgeStyle;shape=connector;rounded=0;orthogonalLoop=1;jettySize=auto;html=1;exitX=0.5;exitY=1;exitDx=0;exitDy=0;entryX=0.5;entryY=0;entryDx=0;entryDy=0;entryPerimeter=0;labelBackgroundColor=none;strokeColor=default;strokeWidth=1;fontFamily=Verdana;fontSize=8;fontColor=default;endArrow=classicThin;endFill=1;startSize=5;endSize=5;" parent="1" source="WXgyV-pI2MA7BBpM_h7G-58" target="gZyHitp84woVGNt1j31F-135" edge="1">
          <mxGeometry relative="1" as="geometry" />
        </mxCell>
        <mxCell id="WXgyV-pI2MA7BBpM_h7G-58" value="close&lt;br&gt;log file" style="rounded=0;whiteSpace=wrap;html=1;shadow=1;labelBackgroundColor=none;strokeWidth=1;fontFamily=Verdana;fontSize=8;align=center;" parent="1" vertex="1">
          <mxGeometry x="-589.8200000000002" y="-1120" width="100" height="40" as="geometry" />
        </mxCell>
        <mxCell id="KZAsET0lDErMvSsKAa-C-99" value="clean up&lt;br&gt;working folder" style="rounded=0;whiteSpace=wrap;html=1;shadow=1;labelBackgroundColor=none;strokeWidth=1;fontFamily=Verdana;fontSize=8;align=center;" parent="1" vertex="1">
          <mxGeometry x="-589.8200000000002" y="-1200" width="100" height="40" as="geometry" />
        </mxCell>
        <mxCell id="KZAsET0lDErMvSsKAa-C-101" value="" style="edgeStyle=orthogonalEdgeStyle;shape=connector;rounded=0;orthogonalLoop=1;jettySize=auto;html=1;exitX=0.5;exitY=1;exitDx=0;exitDy=0;labelBackgroundColor=none;strokeColor=default;strokeWidth=1;fontFamily=Verdana;fontSize=8;fontColor=default;endArrow=classicThin;endFill=1;startSize=5;endSize=5;entryX=0.5;entryY=0;entryDx=0;entryDy=0;" parent="1" source="WXgyV-pI2MA7BBpM_h7G-33" target="d4-_k5U_l92kHuHyqdDG-14" edge="1">
          <mxGeometry relative="1" as="geometry">
            <mxPoint x="100" y="-579.75" as="sourcePoint" />
            <mxPoint x="100" y="-505.5" as="targetPoint" />
          </mxGeometry>
        </mxCell>
        <mxCell id="d4-_k5U_l92kHuHyqdDG-14" value="Detect regular (human)&lt;br&gt;system users&lt;br&gt;that may use Office.&lt;br&gt;Get their names and home folders" style="whiteSpace=wrap;html=1;rounded=0;shadow=1;labelBackgroundColor=none;strokeWidth=1;fontFamily=Verdana;fontSize=8;align=center;" parent="1" vertex="1">
          <mxGeometry x="39.999999999999886" y="-564.75" width="120" height="40" as="geometry" />
        </mxCell>
        <mxCell id="KZAsET0lDErMvSsKAa-C-109" style="edgeStyle=orthogonalEdgeStyle;shape=connector;rounded=0;orthogonalLoop=1;jettySize=auto;html=1;exitX=0.5;exitY=1;exitDx=0;exitDy=0;labelBackgroundColor=none;strokeColor=default;strokeWidth=1;fontFamily=Verdana;fontSize=8;fontColor=default;endArrow=classicThin;endFill=1;startSize=5;endSize=5;" parent="1" source="KZAsET0lDErMvSsKAa-C-106" target="KZAsET0lDErMvSsKAa-C-18" edge="1">
          <mxGeometry relative="1" as="geometry" />
        </mxCell>
        <mxCell id="KZAsET0lDErMvSsKAa-C-112" style="edgeStyle=orthogonalEdgeStyle;shape=connector;rounded=0;orthogonalLoop=1;jettySize=auto;html=1;exitX=1;exitY=0.5;exitDx=0;exitDy=0;entryX=0.5;entryY=0;entryDx=0;entryDy=0;labelBackgroundColor=none;strokeColor=default;strokeWidth=1;fontFamily=Verdana;fontSize=8;fontColor=default;endArrow=classicThin;endFill=1;startSize=5;endSize=5;" parent="1" source="KZAsET0lDErMvSsKAa-C-106" target="KZAsET0lDErMvSsKAa-C-115" edge="1">
          <mxGeometry relative="1" as="geometry">
            <mxPoint x="-690.01" y="962.5" as="targetPoint" />
            <Array as="points">
              <mxPoint x="-620" y="752" />
              <mxPoint x="-620" y="950" />
              <mxPoint x="-690" y="950" />
            </Array>
          </mxGeometry>
        </mxCell>
        <mxCell id="KZAsET0lDErMvSsKAa-C-106" value="collect Java?" style="rhombus;whiteSpace=wrap;html=1;rounded=0;shadow=1;labelBackgroundColor=none;strokeWidth=1;fontFamily=Verdana;fontSize=8;align=center;" parent="1" vertex="1">
          <mxGeometry x="-740.01" y="722" width="100" height="60" as="geometry" />
        </mxCell>
        <mxCell id="FMaZAtzqC5wsarscTpgY-76" style="edgeStyle=orthogonalEdgeStyle;shape=connector;rounded=0;orthogonalLoop=1;jettySize=auto;html=1;exitX=1;exitY=0.5;exitDx=0;exitDy=0;labelBackgroundColor=none;strokeColor=default;strokeWidth=1;fontFamily=Verdana;fontSize=8;fontColor=default;endArrow=classicThin;endFill=1;startSize=5;endSize=5;entryX=0.5;entryY=0;entryDx=0;entryDy=0;" parent="1" source="KZAsET0lDErMvSsKAa-C-115" target="FMaZAtzqC5wsarscTpgY-69" edge="1">
          <mxGeometry relative="1" as="geometry">
            <mxPoint x="-650" y="1190" as="targetPoint" />
            <Array as="points">
              <mxPoint x="-620" y="1010" />
              <mxPoint x="-620" y="1190" />
              <mxPoint x="-690" y="1190" />
            </Array>
          </mxGeometry>
        </mxCell>
        <mxCell id="KZAsET0lDErMvSsKAa-C-115" value="collect LibreOffice&lt;br&gt;packages from&lt;br&gt;documentfundation.org" style="rhombus;whiteSpace=wrap;html=1;rounded=0;shadow=1;labelBackgroundColor=none;strokeWidth=1;fontFamily=Verdana;fontSize=8;align=center;" parent="1" vertex="1">
          <mxGeometry x="-740.01" y="980" width="100" height="60" as="geometry" />
        </mxCell>
        <mxCell id="KZAsET0lDErMvSsKAa-C-149" style="edgeStyle=orthogonalEdgeStyle;shape=connector;rounded=0;orthogonalLoop=1;jettySize=auto;html=1;exitX=0.5;exitY=1;exitDx=0;exitDy=0;entryX=0.5;entryY=0;entryDx=0;entryDy=0;labelBackgroundColor=none;strokeColor=default;strokeWidth=1;fontFamily=Verdana;fontSize=8;fontColor=default;endArrow=classicThin;endFill=1;startSize=5;endSize=5;" parent="1" source="KZAsET0lDErMvSsKAa-C-117" target="KZAsET0lDErMvSsKAa-C-148" edge="1">
          <mxGeometry relative="1" as="geometry" />
        </mxCell>
        <mxCell id="KZAsET0lDErMvSsKAa-C-117" value="RUN&lt;br&gt;LO_package.aquire" style="whiteSpace=wrap;html=1;rounded=1;shadow=1;labelBackgroundColor=none;strokeWidth=1;fontFamily=Verdana;fontSize=8;align=center;" parent="1" vertex="1">
          <mxGeometry x="-20" y="862" width="120" height="40" as="geometry" />
        </mxCell>
        <mxCell id="KZAsET0lDErMvSsKAa-C-121" style="edgeStyle=orthogonalEdgeStyle;shape=connector;rounded=0;orthogonalLoop=1;jettySize=auto;html=1;exitX=0.5;exitY=1;exitDx=0;exitDy=0;entryX=0.5;entryY=0;entryDx=0;entryDy=0;labelBackgroundColor=none;strokeColor=default;strokeWidth=1;fontFamily=Verdana;fontSize=8;fontColor=default;endArrow=classicThin;endFill=1;startSize=5;endSize=5;" parent="1" source="KZAsET0lDErMvSsKAa-C-119" target="KZAsET0lDErMvSsKAa-C-120" edge="1">
          <mxGeometry relative="1" as="geometry" />
        </mxCell>
        <mxCell id="KZAsET0lDErMvSsKAa-C-119" value="LO_package.aquire" style="ellipse;whiteSpace=wrap;html=1;aspect=fixed;rounded=0;shadow=1;labelBackgroundColor=none;strokeColor=default;strokeWidth=1;fontFamily=Verdana;fontSize=8;fontColor=default;fillColor=default;" parent="1" vertex="1">
          <mxGeometry x="20" y="1459" width="40" height="40" as="geometry" />
        </mxCell>
        <mxCell id="KZAsET0lDErMvSsKAa-C-123" style="edgeStyle=orthogonalEdgeStyle;shape=connector;rounded=0;orthogonalLoop=1;jettySize=auto;html=1;exitX=0.5;exitY=1;exitDx=0;exitDy=0;entryX=0.5;entryY=0;entryDx=0;entryDy=0;labelBackgroundColor=none;strokeColor=default;strokeWidth=1;fontFamily=Verdana;fontSize=8;fontColor=default;endArrow=classicThin;endFill=1;startSize=5;endSize=5;" parent="1" source="KZAsET0lDErMvSsKAa-C-120" target="KZAsET0lDErMvSsKAa-C-122" edge="1">
          <mxGeometry relative="1" as="geometry" />
        </mxCell>
        <mxCell id="KZAsET0lDErMvSsKAa-C-120" value="LO_package._download" style="whiteSpace=wrap;html=1;rounded=0;shadow=1;labelBackgroundColor=none;strokeWidth=1;fontFamily=Verdana;fontSize=8;align=center;" parent="1" vertex="1">
          <mxGeometry x="-20" y="1528" width="120" height="40" as="geometry" />
        </mxCell>
        <mxCell id="KZAsET0lDErMvSsKAa-C-125" style="edgeStyle=orthogonalEdgeStyle;shape=connector;rounded=0;orthogonalLoop=1;jettySize=auto;html=1;exitX=0.5;exitY=1;exitDx=0;exitDy=0;entryX=0.5;entryY=0;entryDx=0;entryDy=0;labelBackgroundColor=none;strokeColor=default;strokeWidth=1;fontFamily=Verdana;fontSize=8;fontColor=default;endArrow=classicThin;endFill=1;startSize=5;endSize=5;" parent="1" source="KZAsET0lDErMvSsKAa-C-122" target="KZAsET0lDErMvSsKAa-C-124" edge="1">
          <mxGeometry relative="1" as="geometry" />
        </mxCell>
        <mxCell id="KZAsET0lDErMvSsKAa-C-142" style="edgeStyle=orthogonalEdgeStyle;shape=connector;rounded=0;orthogonalLoop=1;jettySize=auto;html=1;exitX=0;exitY=0.5;exitDx=0;exitDy=0;entryX=0.5;entryY=0;entryDx=0;entryDy=0;labelBackgroundColor=none;strokeColor=default;strokeWidth=1;fontFamily=Verdana;fontSize=8;fontColor=default;endArrow=classicThin;endFill=1;startSize=5;endSize=5;" parent="1" source="KZAsET0lDErMvSsKAa-C-122" target="KZAsET0lDErMvSsKAa-C-134" edge="1">
          <mxGeometry relative="1" as="geometry" />
        </mxCell>
        <mxCell id="KZAsET0lDErMvSsKAa-C-122" value="download&lt;br&gt;&amp;nbsp;successful ?" style="rhombus;whiteSpace=wrap;html=1;rounded=0;shadow=1;labelBackgroundColor=none;strokeWidth=1;fontFamily=Verdana;fontSize=8;align=center;" parent="1" vertex="1">
          <mxGeometry x="-10" y="1588" width="100" height="60" as="geometry" />
        </mxCell>
        <mxCell id="KZAsET0lDErMvSsKAa-C-127" style="edgeStyle=orthogonalEdgeStyle;shape=connector;rounded=0;orthogonalLoop=1;jettySize=auto;html=1;exitX=0.5;exitY=1;exitDx=0;exitDy=0;entryX=0.5;entryY=0;entryDx=0;entryDy=0;labelBackgroundColor=none;strokeColor=default;strokeWidth=1;fontFamily=Verdana;fontSize=8;fontColor=default;endArrow=classicThin;endFill=1;startSize=5;endSize=5;" parent="1" source="KZAsET0lDErMvSsKAa-C-124" target="KZAsET0lDErMvSsKAa-C-126" edge="1">
          <mxGeometry relative="1" as="geometry" />
        </mxCell>
        <mxCell id="KZAsET0lDErMvSsKAa-C-124" value="LO_package._verify" style="whiteSpace=wrap;html=1;rounded=0;shadow=1;labelBackgroundColor=none;strokeWidth=1;fontFamily=Verdana;fontSize=8;align=center;" parent="1" vertex="1">
          <mxGeometry x="-20" y="1667" width="120" height="40" as="geometry" />
        </mxCell>
        <mxCell id="KZAsET0lDErMvSsKAa-C-131" style="edgeStyle=orthogonalEdgeStyle;shape=connector;rounded=0;orthogonalLoop=1;jettySize=auto;html=1;exitX=0.5;exitY=1;exitDx=0;exitDy=0;entryX=0.5;entryY=0;entryDx=0;entryDy=0;labelBackgroundColor=none;strokeColor=default;strokeWidth=1;fontFamily=Verdana;fontSize=8;fontColor=default;endArrow=classicThin;endFill=1;startSize=5;endSize=5;" parent="1" source="KZAsET0lDErMvSsKAa-C-126" target="KZAsET0lDErMvSsKAa-C-129" edge="1">
          <mxGeometry relative="1" as="geometry" />
        </mxCell>
        <mxCell id="KZAsET0lDErMvSsKAa-C-143" style="edgeStyle=orthogonalEdgeStyle;shape=connector;rounded=0;orthogonalLoop=1;jettySize=auto;html=1;exitX=0;exitY=0.5;exitDx=0;exitDy=0;entryX=0.5;entryY=0;entryDx=0;entryDy=0;labelBackgroundColor=none;strokeColor=default;strokeWidth=1;fontFamily=Verdana;fontSize=8;fontColor=default;endArrow=classicThin;endFill=1;startSize=5;endSize=5;" parent="1" source="KZAsET0lDErMvSsKAa-C-126" target="KZAsET0lDErMvSsKAa-C-134" edge="1">
          <mxGeometry relative="1" as="geometry" />
        </mxCell>
        <mxCell id="KZAsET0lDErMvSsKAa-C-126" value="verification&lt;br&gt;&amp;nbsp;successful ?" style="rhombus;whiteSpace=wrap;html=1;rounded=0;shadow=1;labelBackgroundColor=none;strokeWidth=1;fontFamily=Verdana;fontSize=8;align=center;" parent="1" vertex="1">
          <mxGeometry x="-10" y="1726" width="100" height="60" as="geometry" />
        </mxCell>
        <mxCell id="KZAsET0lDErMvSsKAa-C-133" style="edgeStyle=orthogonalEdgeStyle;shape=connector;rounded=0;orthogonalLoop=1;jettySize=auto;html=1;exitX=0.5;exitY=1;exitDx=0;exitDy=0;labelBackgroundColor=none;strokeColor=default;strokeWidth=1;fontFamily=Verdana;fontSize=8;fontColor=default;endArrow=classicThin;endFill=1;startSize=5;endSize=5;" parent="1" source="KZAsET0lDErMvSsKAa-C-129" target="KZAsET0lDErMvSsKAa-C-132" edge="1">
          <mxGeometry relative="1" as="geometry" />
        </mxCell>
        <mxCell id="KZAsET0lDErMvSsKAa-C-129" value="LO_package._unzip" style="rounded=1;whiteSpace=wrap;html=1;shadow=1;labelBackgroundColor=none;strokeWidth=1;fontFamily=Verdana;fontSize=8;align=center;" parent="1" vertex="1">
          <mxGeometry x="-10" y="1805" width="100" height="40" as="geometry" />
        </mxCell>
        <mxCell id="KZAsET0lDErMvSsKAa-C-136" style="edgeStyle=orthogonalEdgeStyle;shape=connector;rounded=0;orthogonalLoop=1;jettySize=auto;html=1;exitX=0.5;exitY=1;exitDx=0;exitDy=0;entryX=0.5;entryY=0;entryDx=0;entryDy=0;labelBackgroundColor=none;strokeColor=default;strokeWidth=1;fontFamily=Verdana;fontSize=8;fontColor=default;endArrow=classicThin;endFill=1;startSize=5;endSize=5;" parent="1" source="KZAsET0lDErMvSsKAa-C-132" target="KZAsET0lDErMvSsKAa-C-135" edge="1">
          <mxGeometry relative="1" as="geometry" />
        </mxCell>
        <mxCell id="KZAsET0lDErMvSsKAa-C-145" style="edgeStyle=orthogonalEdgeStyle;shape=connector;rounded=0;orthogonalLoop=1;jettySize=auto;html=1;exitX=0;exitY=0.5;exitDx=0;exitDy=0;entryX=0.5;entryY=0;entryDx=0;entryDy=0;labelBackgroundColor=none;strokeColor=default;strokeWidth=1;fontFamily=Verdana;fontSize=8;fontColor=default;endArrow=classicThin;endFill=1;startSize=5;endSize=5;" parent="1" source="KZAsET0lDErMvSsKAa-C-132" target="KZAsET0lDErMvSsKAa-C-134" edge="1">
          <mxGeometry relative="1" as="geometry" />
        </mxCell>
        <mxCell id="KZAsET0lDErMvSsKAa-C-132" value="unzip&lt;br&gt;&amp;nbsp;successful ?" style="rhombus;whiteSpace=wrap;html=1;rounded=0;shadow=1;labelBackgroundColor=none;strokeWidth=1;fontFamily=Verdana;fontSize=8;align=center;" parent="1" vertex="1">
          <mxGeometry x="-10" y="1865" width="100" height="60" as="geometry" />
        </mxCell>
        <mxCell id="KZAsET0lDErMvSsKAa-C-139" style="edgeStyle=orthogonalEdgeStyle;shape=connector;rounded=0;orthogonalLoop=1;jettySize=auto;html=1;exitX=0.5;exitY=1;exitDx=0;exitDy=0;labelBackgroundColor=none;strokeColor=default;strokeWidth=1;fontFamily=Verdana;fontSize=8;fontColor=default;endArrow=classicThin;endFill=1;startSize=5;endSize=5;" parent="1" source="KZAsET0lDErMvSsKAa-C-134" target="KZAsET0lDErMvSsKAa-C-137" edge="1">
          <mxGeometry relative="1" as="geometry" />
        </mxCell>
        <mxCell id="KZAsET0lDErMvSsKAa-C-134" value="set&lt;br&gt;procedure&lt;br&gt;failed" style="rounded=0;whiteSpace=wrap;html=1;shadow=1;labelBackgroundColor=none;strokeWidth=1;fontFamily=Verdana;fontSize=8;align=center;" parent="1" vertex="1">
          <mxGeometry x="-130.00000000000023" y="1944" width="100" height="40" as="geometry" />
        </mxCell>
        <mxCell id="KZAsET0lDErMvSsKAa-C-138" style="edgeStyle=orthogonalEdgeStyle;shape=connector;rounded=0;orthogonalLoop=1;jettySize=auto;html=1;exitX=0.5;exitY=1;exitDx=0;exitDy=0;labelBackgroundColor=none;strokeColor=default;strokeWidth=1;fontFamily=Verdana;fontSize=8;fontColor=default;endArrow=classicThin;endFill=1;startSize=5;endSize=5;" parent="1" source="KZAsET0lDErMvSsKAa-C-135" target="KZAsET0lDErMvSsKAa-C-137" edge="1">
          <mxGeometry relative="1" as="geometry" />
        </mxCell>
        <mxCell id="KZAsET0lDErMvSsKAa-C-135" value="set&lt;br&gt;procedure&lt;br&gt;succeeded" style="rounded=0;whiteSpace=wrap;html=1;shadow=1;labelBackgroundColor=none;strokeWidth=1;fontFamily=Verdana;fontSize=8;align=center;" parent="1" vertex="1">
          <mxGeometry x="-10" y="1944" width="100" height="40" as="geometry" />
        </mxCell>
        <mxCell id="KZAsET0lDErMvSsKAa-C-137" value="" style="strokeWidth=1;html=1;shape=mxgraph.flowchart.terminator;whiteSpace=wrap;rounded=0;shadow=1;labelBackgroundColor=none;fontFamily=Verdana;fontSize=8;align=center;" parent="1" vertex="1">
          <mxGeometry x="10" y="2038" width="60" height="30" as="geometry" />
        </mxCell>
        <mxCell id="KZAsET0lDErMvSsKAa-C-152" style="edgeStyle=orthogonalEdgeStyle;shape=connector;rounded=0;orthogonalLoop=1;jettySize=auto;html=1;labelBackgroundColor=none;strokeColor=default;strokeWidth=1;fontFamily=Verdana;fontSize=8;fontColor=default;endArrow=classicThin;endFill=1;startSize=5;endSize=5;entryX=0.5;entryY=0;entryDx=0;entryDy=0;exitX=0.5;exitY=1;exitDx=0;exitDy=0;" parent="1" source="KZAsET0lDErMvSsKAa-C-157" target="KZAsET0lDErMvSsKAa-C-151" edge="1">
          <mxGeometry relative="1" as="geometry">
            <mxPoint x="50" y="963.5" as="sourcePoint" />
            <mxPoint x="60" y="1093.5" as="targetPoint" />
          </mxGeometry>
        </mxCell>
        <mxCell id="KZAsET0lDErMvSsKAa-C-153" style="edgeStyle=orthogonalEdgeStyle;shape=connector;rounded=0;orthogonalLoop=1;jettySize=auto;html=1;exitX=0;exitY=0.5;exitDx=0;exitDy=0;entryX=0.5;entryY=0;entryDx=0;entryDy=0;labelBackgroundColor=none;strokeColor=default;strokeWidth=1;fontFamily=Verdana;fontSize=8;fontColor=default;endArrow=classicThin;endFill=1;startSize=5;endSize=5;" parent="1" source="KZAsET0lDErMvSsKAa-C-148" target="KZAsET0lDErMvSsKAa-C-150" edge="1">
          <mxGeometry relative="1" as="geometry" />
        </mxCell>
        <mxCell id="KZAsET0lDErMvSsKAa-C-158" style="edgeStyle=orthogonalEdgeStyle;shape=connector;rounded=0;orthogonalLoop=1;jettySize=auto;html=1;exitX=0.5;exitY=1;exitDx=0;exitDy=0;entryX=0.5;entryY=0;entryDx=0;entryDy=0;labelBackgroundColor=none;strokeColor=default;strokeWidth=1;fontFamily=Verdana;fontSize=8;fontColor=default;endArrow=classicThin;endFill=1;startSize=5;endSize=5;" parent="1" source="KZAsET0lDErMvSsKAa-C-148" target="KZAsET0lDErMvSsKAa-C-157" edge="1">
          <mxGeometry relative="1" as="geometry" />
        </mxCell>
        <mxCell id="KZAsET0lDErMvSsKAa-C-148" value="aquisition&lt;br&gt;&amp;nbsp;successful ?" style="rhombus;whiteSpace=wrap;html=1;rounded=0;shadow=1;labelBackgroundColor=none;strokeWidth=1;fontFamily=Verdana;fontSize=8;align=center;" parent="1" vertex="1">
          <mxGeometry x="-10" y="929" width="100" height="60" as="geometry" />
        </mxCell>
        <mxCell id="KZAsET0lDErMvSsKAa-C-156" style="edgeStyle=orthogonalEdgeStyle;shape=connector;rounded=0;orthogonalLoop=1;jettySize=auto;html=1;exitX=0.5;exitY=1;exitDx=0;exitDy=0;entryX=0.5;entryY=0;entryDx=0;entryDy=0;entryPerimeter=0;labelBackgroundColor=none;strokeColor=default;strokeWidth=1;fontFamily=Verdana;fontSize=8;fontColor=default;endArrow=classicThin;endFill=1;startSize=5;endSize=5;" parent="1" source="KZAsET0lDErMvSsKAa-C-150" target="KZAsET0lDErMvSsKAa-C-154" edge="1">
          <mxGeometry relative="1" as="geometry" />
        </mxCell>
        <mxCell id="KZAsET0lDErMvSsKAa-C-150" value="set&lt;br&gt;procedure&lt;br&gt;failed" style="rounded=0;whiteSpace=wrap;html=1;shadow=1;labelBackgroundColor=none;strokeWidth=1;fontFamily=Verdana;fontSize=8;align=center;" parent="1" vertex="1">
          <mxGeometry x="-130.00000000000023" y="1148.5" width="100" height="40" as="geometry" />
        </mxCell>
        <mxCell id="KZAsET0lDErMvSsKAa-C-155" style="edgeStyle=orthogonalEdgeStyle;shape=connector;rounded=0;orthogonalLoop=1;jettySize=auto;html=1;exitX=0.5;exitY=1;exitDx=0;exitDy=0;entryX=0.5;entryY=0;entryDx=0;entryDy=0;entryPerimeter=0;labelBackgroundColor=none;strokeColor=default;strokeWidth=1;fontFamily=Verdana;fontSize=8;fontColor=default;endArrow=classicThin;endFill=1;startSize=5;endSize=5;" parent="1" source="KZAsET0lDErMvSsKAa-C-151" target="KZAsET0lDErMvSsKAa-C-154" edge="1">
          <mxGeometry relative="1" as="geometry" />
        </mxCell>
        <mxCell id="KZAsET0lDErMvSsKAa-C-151" value="set&lt;br&gt;procedure&lt;br&gt;succeeded" style="rounded=0;whiteSpace=wrap;html=1;shadow=1;labelBackgroundColor=none;strokeWidth=1;fontFamily=Verdana;fontSize=8;align=center;" parent="1" vertex="1">
          <mxGeometry x="-10" y="1148.5" width="100" height="40" as="geometry" />
        </mxCell>
        <mxCell id="KZAsET0lDErMvSsKAa-C-154" value="" style="strokeWidth=1;html=1;shape=mxgraph.flowchart.terminator;whiteSpace=wrap;rounded=0;shadow=1;labelBackgroundColor=none;fontFamily=Verdana;fontSize=8;align=center;" parent="1" vertex="1">
          <mxGeometry x="10" y="1242.5" width="60" height="30" as="geometry" />
        </mxCell>
        <mxCell id="KZAsET0lDErMvSsKAa-C-159" style="edgeStyle=orthogonalEdgeStyle;shape=connector;rounded=0;orthogonalLoop=1;jettySize=auto;html=1;exitX=1;exitY=0.5;exitDx=0;exitDy=0;entryX=0.5;entryY=0;entryDx=0;entryDy=0;labelBackgroundColor=none;strokeColor=default;strokeWidth=1;fontFamily=Verdana;fontSize=8;fontColor=default;endArrow=classicThin;endFill=1;startSize=5;endSize=5;" parent="1" source="KZAsET0lDErMvSsKAa-C-157" target="KZAsET0lDErMvSsKAa-C-117" edge="1">
          <mxGeometry relative="1" as="geometry" />
        </mxCell>
        <mxCell id="KZAsET0lDErMvSsKAa-C-157" value="last&lt;br&gt;packet on the list?" style="rhombus;whiteSpace=wrap;html=1;rounded=0;shadow=1;labelBackgroundColor=none;strokeWidth=1;fontFamily=Verdana;fontSize=8;align=center;" parent="1" vertex="1">
          <mxGeometry x="-10" y="1020" width="100" height="60" as="geometry" />
        </mxCell>
        <mxCell id="KZAsET0lDErMvSsKAa-C-162" value="Get Java" style="ellipse;whiteSpace=wrap;html=1;aspect=fixed;rounded=0;shadow=1;labelBackgroundColor=none;strokeColor=default;strokeWidth=1;fontFamily=Verdana;fontSize=8;fontColor=default;fillColor=default;" parent="1" vertex="1">
          <mxGeometry x="-349.99999999999994" y="660" width="40" height="40" as="geometry" />
        </mxCell>
        <mxCell id="FMaZAtzqC5wsarscTpgY-1" value="Detect cliparts library&lt;br&gt;installation&lt;br&gt;(and HDD space usage)" style="whiteSpace=wrap;html=1;rounded=0;shadow=1;labelBackgroundColor=none;strokeWidth=1;fontFamily=Verdana;fontSize=8;align=center;" parent="1" vertex="1">
          <mxGeometry x="40" y="-374" width="120" height="40" as="geometry" />
        </mxCell>
        <mxCell id="FMaZAtzqC5wsarscTpgY-8" value="Not presented in this document.&lt;br&gt;Implemented directly in code." style="text;html=1;strokeColor=default;fillColor=none;align=center;verticalAlign=middle;whiteSpace=wrap;rounded=0;fontSize=8;fontFamily=Verdana;fontColor=default;dashed=1;" parent="1" vertex="1">
          <mxGeometry x="-1189.9999999999998" y="950" width="79.89" height="50" as="geometry" />
        </mxCell>
        <mxCell id="FMaZAtzqC5wsarscTpgY-9" style="edgeStyle=orthogonalEdgeStyle;shape=connector;rounded=0;orthogonalLoop=1;jettySize=auto;html=1;labelBackgroundColor=none;strokeColor=default;strokeWidth=1;fontFamily=Verdana;fontSize=8;fontColor=default;endArrow=none;endFill=0;startSize=5;endSize=5;dashed=1;curved=1;startArrow=none;startFill=0;" parent="1" source="KZAsET0lDErMvSsKAa-C-55" target="FMaZAtzqC5wsarscTpgY-8" edge="1">
          <mxGeometry relative="1" as="geometry">
            <mxPoint x="-1109.1499999999999" y="540" as="sourcePoint" />
            <mxPoint x="-1159.22" y="556" as="targetPoint" />
            <Array as="points">
              <mxPoint x="-1350" y="1048" />
              <mxPoint x="-1350" y="990" />
            </Array>
          </mxGeometry>
        </mxCell>
        <mxCell id="FMaZAtzqC5wsarscTpgY-11" value="Not presented in this document.&lt;br&gt;Implemented directly in code." style="text;html=1;strokeColor=default;fillColor=none;align=center;verticalAlign=middle;whiteSpace=wrap;rounded=0;fontSize=8;fontFamily=Verdana;fontColor=default;dashed=1;" parent="1" vertex="1">
          <mxGeometry x="-1189.9999999999998" y="1200" width="79.89" height="50" as="geometry" />
        </mxCell>
        <mxCell id="FMaZAtzqC5wsarscTpgY-12" style="edgeStyle=orthogonalEdgeStyle;shape=connector;rounded=0;orthogonalLoop=1;jettySize=auto;html=1;labelBackgroundColor=none;strokeColor=default;strokeWidth=1;fontFamily=Verdana;fontSize=8;fontColor=default;endArrow=none;endFill=0;startSize=5;endSize=5;dashed=1;curved=1;startArrow=none;startFill=0;" parent="1" source="gZyHitp84woVGNt1j31F-63" target="FMaZAtzqC5wsarscTpgY-11" edge="1">
          <mxGeometry relative="1" as="geometry">
            <mxPoint x="-1329" y="1162.5" as="sourcePoint" />
            <mxPoint x="-1249.1099999999997" y="1136.5" as="targetPoint" />
            <Array as="points">
              <mxPoint x="-1280" y="1320" />
              <mxPoint x="-1280" y="1225" />
            </Array>
          </mxGeometry>
        </mxCell>
        <mxCell id="FMaZAtzqC5wsarscTpgY-13" value="Not presented in this document.&lt;br&gt;Implemented directly in code." style="text;html=1;strokeColor=default;fillColor=none;align=center;verticalAlign=middle;whiteSpace=wrap;rounded=0;fontSize=8;fontFamily=Verdana;fontColor=default;dashed=1;" parent="1" vertex="1">
          <mxGeometry x="-1189.9999999999998" y="1580" width="79.89" height="50" as="geometry" />
        </mxCell>
        <mxCell id="FMaZAtzqC5wsarscTpgY-14" style="edgeStyle=orthogonalEdgeStyle;shape=connector;rounded=0;orthogonalLoop=1;jettySize=auto;html=1;labelBackgroundColor=none;strokeColor=default;strokeWidth=1;fontFamily=Verdana;fontSize=8;fontColor=default;endArrow=none;endFill=0;startSize=5;endSize=5;dashed=1;curved=1;startArrow=none;startFill=0;" parent="1" source="gZyHitp84woVGNt1j31F-72" target="FMaZAtzqC5wsarscTpgY-13" edge="1">
          <mxGeometry relative="1" as="geometry">
            <mxPoint x="-1389.11" y="1626.5000000000005" as="sourcePoint" />
            <mxPoint x="-1169.4699999999996" y="1599.0000000000005" as="targetPoint" />
          </mxGeometry>
        </mxCell>
        <mxCell id="FMaZAtzqC5wsarscTpgY-15" value="Not presented in this document.&lt;br&gt;Implemented directly in code." style="text;html=1;strokeColor=default;fillColor=none;align=center;verticalAlign=middle;whiteSpace=wrap;rounded=0;fontSize=8;fontFamily=Verdana;fontColor=default;dashed=1;" parent="1" vertex="1">
          <mxGeometry x="-1190" y="2090" width="79.89" height="50" as="geometry" />
        </mxCell>
        <mxCell id="FMaZAtzqC5wsarscTpgY-16" style="edgeStyle=orthogonalEdgeStyle;shape=connector;rounded=0;orthogonalLoop=1;jettySize=auto;html=1;labelBackgroundColor=none;strokeColor=default;strokeWidth=1;fontFamily=Verdana;fontSize=8;fontColor=default;endArrow=none;endFill=0;startSize=5;endSize=5;dashed=1;curved=1;startArrow=none;startFill=0;" parent="1" source="gZyHitp84woVGNt1j31F-12" target="FMaZAtzqC5wsarscTpgY-15" edge="1">
          <mxGeometry relative="1" as="geometry">
            <mxPoint x="-1390" y="1795.0000000000005" as="sourcePoint" />
            <mxPoint x="-1170.3599999999997" y="1771.0000000000005" as="targetPoint" />
          </mxGeometry>
        </mxCell>
        <mxCell id="FMaZAtzqC5wsarscTpgY-18" value="Set the latest version of LibreOffice this program is able to install&lt;br&gt;(hardcoded)" style="whiteSpace=wrap;html=1;rounded=0;shadow=1;labelBackgroundColor=none;strokeWidth=1;fontFamily=Verdana;fontSize=8;align=center;" parent="1" vertex="1">
          <mxGeometry x="39.999999999999886" y="-743.75" width="120" height="40" as="geometry" />
        </mxCell>
        <mxCell id="j1TnudKSoMf6J_vbDHsm-83" style="edgeStyle=orthogonalEdgeStyle;shape=connector;rounded=0;orthogonalLoop=1;jettySize=auto;html=1;exitX=0.5;exitY=1;exitDx=0;exitDy=0;entryX=0.5;entryY=0;entryDx=0;entryDy=0;entryPerimeter=0;labelBackgroundColor=none;strokeColor=default;strokeWidth=1;fontFamily=Verdana;fontSize=8;fontColor=default;endArrow=classicThin;endFill=1;startSize=5;endSize=5;" parent="1" source="FMaZAtzqC5wsarscTpgY-22" target="j1TnudKSoMf6J_vbDHsm-71" edge="1">
          <mxGeometry relative="1" as="geometry" />
        </mxCell>
        <mxCell id="FMaZAtzqC5wsarscTpgY-22" value="USE&lt;br&gt;PackageMenu setter function" style="whiteSpace=wrap;html=1;rounded=1;shadow=1;labelBackgroundColor=none;strokeWidth=1;fontFamily=Verdana;fontSize=8;align=center;" parent="1" vertex="1">
          <mxGeometry x="-440.00000000000006" y="-1720" width="120" height="40" as="geometry" />
        </mxCell>
        <mxCell id="FMaZAtzqC5wsarscTpgY-54" value="Install/Removal of:&lt;br&gt;* LibreOffice packages&lt;br&gt;** and language packages&lt;br&gt;* OpenOffice packages&lt;br&gt;* Java packages&lt;br&gt;* Clipart library package&lt;br&gt;&lt;br&gt;* Option to keep dowloaded packages (which will force java dowload)&lt;br&gt;&lt;br&gt;Install from local copy:&lt;br&gt;* this will not select any packages but ask user for folder with a set of suitable packages" style="text;html=1;strokeColor=default;fillColor=none;align=left;verticalAlign=top;whiteSpace=wrap;rounded=0;fontSize=8;fontFamily=Verdana;fontColor=default;dashed=1;horizontal=1;" parent="1" vertex="1">
          <mxGeometry x="-670.0100000000001" y="-1695" width="100" height="180" as="geometry" />
        </mxCell>
        <mxCell id="FMaZAtzqC5wsarscTpgY-67" style="edgeStyle=orthogonalEdgeStyle;shape=connector;rounded=0;orthogonalLoop=1;jettySize=auto;html=1;exitX=0.5;exitY=1;exitDx=0;exitDy=0;entryX=0.5;entryY=0;entryDx=0;entryDy=0;labelBackgroundColor=none;strokeColor=default;strokeWidth=1;fontFamily=Verdana;fontSize=8;fontColor=default;endArrow=classicThin;endFill=1;startSize=5;endSize=5;" parent="1" source="FMaZAtzqC5wsarscTpgY-66" target="KZAsET0lDErMvSsKAa-C-117" edge="1">
          <mxGeometry relative="1" as="geometry" />
        </mxCell>
        <mxCell id="FMaZAtzqC5wsarscTpgY-68" style="edgeStyle=orthogonalEdgeStyle;shape=connector;rounded=0;orthogonalLoop=1;jettySize=auto;html=1;exitX=0;exitY=0.5;exitDx=0;exitDy=0;entryX=0.5;entryY=0;entryDx=0;entryDy=0;labelBackgroundColor=none;strokeColor=default;strokeWidth=1;fontFamily=Verdana;fontSize=8;fontColor=default;endArrow=classicThin;endFill=1;startSize=5;endSize=5;" parent="1" source="FMaZAtzqC5wsarscTpgY-66" target="KZAsET0lDErMvSsKAa-C-150" edge="1">
          <mxGeometry relative="1" as="geometry" />
        </mxCell>
        <mxCell id="FMaZAtzqC5wsarscTpgY-66" value="Are&amp;nbsp;requested&lt;br&gt;&amp;nbsp;LibreOffice packages on&lt;br&gt;documentfundation.org&lt;br style=&quot;border-color: var(--border-color);&quot;&gt;server ?" style="rhombus;whiteSpace=wrap;html=1;rounded=0;shadow=1;labelBackgroundColor=none;strokeWidth=1;fontFamily=Verdana;fontSize=8;align=center;" parent="1" vertex="1">
          <mxGeometry x="-10" y="734" width="100" height="60" as="geometry" />
        </mxCell>
        <mxCell id="FMaZAtzqC5wsarscTpgY-70" style="edgeStyle=orthogonalEdgeStyle;shape=connector;rounded=0;orthogonalLoop=1;jettySize=auto;html=1;exitX=0.5;exitY=1;exitDx=0;exitDy=0;labelBackgroundColor=none;strokeColor=default;strokeWidth=1;fontFamily=Verdana;fontSize=8;fontColor=default;endArrow=classicThin;endFill=1;startSize=5;endSize=5;entryX=0.5;entryY=0;entryDx=0;entryDy=0;" parent="1" source="FMaZAtzqC5wsarscTpgY-69" target="FMaZAtzqC5wsarscTpgY-71" edge="1">
          <mxGeometry relative="1" as="geometry">
            <mxPoint x="-680" y="1320" as="targetPoint" />
          </mxGeometry>
        </mxCell>
        <mxCell id="FMaZAtzqC5wsarscTpgY-78" style="edgeStyle=orthogonalEdgeStyle;shape=connector;rounded=0;orthogonalLoop=1;jettySize=auto;html=1;exitX=1;exitY=0.5;exitDx=0;exitDy=0;entryX=0.5;entryY=0;entryDx=0;entryDy=0;labelBackgroundColor=none;strokeColor=default;strokeWidth=1;fontFamily=Verdana;fontSize=8;fontColor=default;endArrow=classicThin;endFill=1;startSize=5;endSize=5;" parent="1" source="FMaZAtzqC5wsarscTpgY-69" target="KZAsET0lDErMvSsKAa-C-59" edge="1">
          <mxGeometry relative="1" as="geometry">
            <Array as="points">
              <mxPoint x="-620" y="1258" />
              <mxPoint x="-620" y="1450" />
              <mxPoint x="-690" y="1450" />
            </Array>
          </mxGeometry>
        </mxCell>
        <mxCell id="FMaZAtzqC5wsarscTpgY-69" value="collect&lt;br&gt;&amp;nbsp;clipart library ?" style="rhombus;whiteSpace=wrap;html=1;rounded=0;shadow=1;labelBackgroundColor=none;strokeWidth=1;fontFamily=Verdana;fontSize=8;align=center;" parent="1" vertex="1">
          <mxGeometry x="-740.01" y="1227.5" width="100" height="60" as="geometry" />
        </mxCell>
        <mxCell id="FMaZAtzqC5wsarscTpgY-73" style="edgeStyle=orthogonalEdgeStyle;shape=connector;rounded=0;orthogonalLoop=1;jettySize=auto;html=1;exitX=0.5;exitY=1;exitDx=0;exitDy=0;entryX=0.5;entryY=0;entryDx=0;entryDy=0;labelBackgroundColor=none;strokeColor=default;strokeWidth=1;fontFamily=Verdana;fontSize=8;fontColor=default;endArrow=classicThin;endFill=1;startSize=5;endSize=5;" parent="1" source="FMaZAtzqC5wsarscTpgY-71" target="FMaZAtzqC5wsarscTpgY-72" edge="1">
          <mxGeometry relative="1" as="geometry" />
        </mxCell>
        <mxCell id="FMaZAtzqC5wsarscTpgY-71" value="RUN&lt;br&gt;Get Clipart library" style="rounded=1;whiteSpace=wrap;html=1;shadow=1;labelBackgroundColor=none;strokeWidth=1;fontFamily=Verdana;fontSize=8;align=center;" parent="1" vertex="1">
          <mxGeometry x="-740.0100000000002" y="1309" width="100" height="40" as="geometry" />
        </mxCell>
        <mxCell id="FMaZAtzqC5wsarscTpgY-74" style="edgeStyle=orthogonalEdgeStyle;shape=connector;rounded=0;orthogonalLoop=1;jettySize=auto;html=1;exitX=0.5;exitY=1;exitDx=0;exitDy=0;entryX=0.5;entryY=0;entryDx=0;entryDy=0;labelBackgroundColor=none;strokeColor=default;strokeWidth=1;fontFamily=Verdana;fontSize=8;fontColor=default;endArrow=classicThin;endFill=1;startSize=5;endSize=5;" parent="1" source="FMaZAtzqC5wsarscTpgY-72" target="KZAsET0lDErMvSsKAa-C-59" edge="1">
          <mxGeometry relative="1" as="geometry" />
        </mxCell>
        <mxCell id="FMaZAtzqC5wsarscTpgY-75" style="edgeStyle=orthogonalEdgeStyle;shape=connector;rounded=0;orthogonalLoop=1;jettySize=auto;html=1;exitX=0;exitY=0.5;exitDx=0;exitDy=0;entryX=0.5;entryY=0;entryDx=0;entryDy=0;labelBackgroundColor=none;strokeColor=default;strokeWidth=1;fontFamily=Verdana;fontSize=8;fontColor=default;endArrow=classicThin;endFill=1;startSize=5;endSize=5;" parent="1" source="FMaZAtzqC5wsarscTpgY-72" target="KZAsET0lDErMvSsKAa-C-60" edge="1">
          <mxGeometry relative="1" as="geometry" />
        </mxCell>
        <mxCell id="FMaZAtzqC5wsarscTpgY-72" value="was Clipart&lt;br&gt;library&lt;br&gt;successfully&lt;br&gt;collected ?" style="rhombus;whiteSpace=wrap;html=1;rounded=0;shadow=1;labelBackgroundColor=none;strokeWidth=1;fontFamily=Verdana;fontSize=8;align=center;" parent="1" vertex="1">
          <mxGeometry x="-740.0100000000002" y="1370" width="100" height="60" as="geometry" />
        </mxCell>
        <mxCell id="FMaZAtzqC5wsarscTpgY-83" style="edgeStyle=orthogonalEdgeStyle;shape=connector;rounded=0;orthogonalLoop=1;jettySize=auto;html=1;exitX=0.5;exitY=1;exitDx=0;exitDy=0;entryX=0.5;entryY=0;entryDx=0;entryDy=0;labelBackgroundColor=none;strokeColor=default;strokeWidth=1;fontFamily=Verdana;fontSize=8;fontColor=default;endArrow=classicThin;endFill=1;startSize=5;endSize=5;" parent="1" source="FMaZAtzqC5wsarscTpgY-82" target="KZAsET0lDErMvSsKAa-C-52" edge="1">
          <mxGeometry relative="1" as="geometry" />
        </mxCell>
        <mxCell id="FMaZAtzqC5wsarscTpgY-82" value="detect and terminate&lt;br&gt;(kill -9) LibreOffice quickstarter" style="whiteSpace=wrap;html=1;rounded=0;shadow=1;labelBackgroundColor=none;strokeWidth=1;fontFamily=Verdana;fontSize=8;align=center;" parent="1" vertex="1">
          <mxGeometry x="-1509.47" y="890" width="120" height="40" as="geometry" />
        </mxCell>
        <mxCell id="FMaZAtzqC5wsarscTpgY-101" style="edgeStyle=orthogonalEdgeStyle;shape=connector;rounded=0;orthogonalLoop=1;jettySize=auto;html=1;exitX=0;exitY=0.5;exitDx=0;exitDy=0;entryX=0.5;entryY=0;entryDx=0;entryDy=0;labelBackgroundColor=none;strokeColor=default;strokeWidth=1;fontFamily=Verdana;fontSize=8;fontColor=default;endArrow=classicThin;endFill=1;startSize=5;endSize=5;" parent="1" source="FMaZAtzqC5wsarscTpgY-85" target="FMaZAtzqC5wsarscTpgY-100" edge="1">
          <mxGeometry relative="1" as="geometry">
            <Array as="points">
              <mxPoint x="-1519" y="1243" />
              <mxPoint x="-1519" y="1470" />
              <mxPoint x="-1449" y="1470" />
            </Array>
          </mxGeometry>
        </mxCell>
        <mxCell id="FMaZAtzqC5wsarscTpgY-85" value="Any &lt;br&gt;Office/Office components&lt;br&gt;needs to&lt;br&gt;&amp;nbsp;be removed ?" style="rhombus;whiteSpace=wrap;html=1;rounded=0;shadow=1;labelBackgroundColor=none;strokeWidth=1;fontFamily=Verdana;fontSize=8;align=center;" parent="1" vertex="1">
          <mxGeometry x="-1499.47" y="1212.5" width="100" height="60" as="geometry" />
        </mxCell>
        <mxCell id="FMaZAtzqC5wsarscTpgY-90" style="edgeStyle=orthogonalEdgeStyle;shape=connector;rounded=0;orthogonalLoop=1;jettySize=auto;html=1;exitX=1;exitY=0.5;exitDx=0;exitDy=0;entryX=0.5;entryY=0;entryDx=0;entryDy=0;labelBackgroundColor=none;strokeColor=default;strokeWidth=1;fontFamily=Verdana;fontSize=8;fontColor=default;endArrow=classicThin;endFill=1;startSize=5;endSize=5;" parent="1" source="FMaZAtzqC5wsarscTpgY-88" target="KZAsET0lDErMvSsKAa-C-87" edge="1">
          <mxGeometry relative="1" as="geometry" />
        </mxCell>
        <mxCell id="FMaZAtzqC5wsarscTpgY-102" style="edgeStyle=orthogonalEdgeStyle;shape=connector;rounded=0;orthogonalLoop=1;jettySize=auto;html=1;exitX=0.5;exitY=1;exitDx=0;exitDy=0;entryX=0.5;entryY=0;entryDx=0;entryDy=0;labelBackgroundColor=none;strokeColor=default;strokeWidth=1;fontFamily=Verdana;fontSize=8;fontColor=default;endArrow=classicThin;endFill=1;startSize=5;endSize=5;" parent="1" source="FMaZAtzqC5wsarscTpgY-88" target="FMaZAtzqC5wsarscTpgY-100" edge="1">
          <mxGeometry relative="1" as="geometry" />
        </mxCell>
        <mxCell id="FMaZAtzqC5wsarscTpgY-88" value="Office componets&lt;br&gt;successfully&lt;br&gt;removed ?&lt;br&gt;" style="rhombus;whiteSpace=wrap;html=1;rounded=0;shadow=1;labelBackgroundColor=none;strokeWidth=1;fontFamily=Verdana;fontSize=8;align=center;" parent="1" vertex="1">
          <mxGeometry x="-1499.47" y="1360" width="100" height="60" as="geometry" />
        </mxCell>
        <mxCell id="FMaZAtzqC5wsarscTpgY-110" style="edgeStyle=orthogonalEdgeStyle;shape=connector;rounded=0;orthogonalLoop=1;jettySize=auto;html=1;exitX=0;exitY=0.5;exitDx=0;exitDy=0;entryX=0.5;entryY=0;entryDx=0;entryDy=0;labelBackgroundColor=none;strokeColor=default;strokeWidth=1;fontFamily=Verdana;fontSize=8;fontColor=default;endArrow=classicThin;endFill=1;startSize=5;endSize=5;" parent="1" source="FMaZAtzqC5wsarscTpgY-100" target="FMaZAtzqC5wsarscTpgY-109" edge="1">
          <mxGeometry relative="1" as="geometry">
            <Array as="points">
              <mxPoint x="-1519" y="1519" />
              <mxPoint x="-1519" y="1700" />
              <mxPoint x="-1449" y="1700" />
            </Array>
          </mxGeometry>
        </mxCell>
        <mxCell id="FMaZAtzqC5wsarscTpgY-100" value="Any &lt;br&gt;Office/Office components&lt;br&gt;needs to be&lt;br&gt;installed ?" style="rhombus;whiteSpace=wrap;html=1;rounded=0;shadow=1;labelBackgroundColor=none;strokeWidth=1;fontFamily=Verdana;fontSize=8;align=center;" parent="1" vertex="1">
          <mxGeometry x="-1499.47" y="1489" width="100" height="60" as="geometry" />
        </mxCell>
        <mxCell id="FMaZAtzqC5wsarscTpgY-105" style="edgeStyle=orthogonalEdgeStyle;shape=connector;rounded=0;orthogonalLoop=1;jettySize=auto;html=1;exitX=1;exitY=0.5;exitDx=0;exitDy=0;entryX=0.5;entryY=0;entryDx=0;entryDy=0;labelBackgroundColor=none;strokeColor=default;strokeWidth=1;fontFamily=Verdana;fontSize=8;fontColor=default;endArrow=classicThin;endFill=1;startSize=5;endSize=5;" parent="1" source="FMaZAtzqC5wsarscTpgY-103" target="KZAsET0lDErMvSsKAa-C-87" edge="1">
          <mxGeometry relative="1" as="geometry" />
        </mxCell>
        <mxCell id="FMaZAtzqC5wsarscTpgY-111" style="edgeStyle=orthogonalEdgeStyle;shape=connector;rounded=0;orthogonalLoop=1;jettySize=auto;html=1;exitX=0.5;exitY=1;exitDx=0;exitDy=0;entryX=0.5;entryY=0;entryDx=0;entryDy=0;labelBackgroundColor=none;strokeColor=default;strokeWidth=1;fontFamily=Verdana;fontSize=8;fontColor=default;endArrow=classicThin;endFill=1;startSize=5;endSize=5;" parent="1" source="FMaZAtzqC5wsarscTpgY-103" target="FMaZAtzqC5wsarscTpgY-109" edge="1">
          <mxGeometry relative="1" as="geometry" />
        </mxCell>
        <mxCell id="FMaZAtzqC5wsarscTpgY-103" value="Office componets&lt;br&gt;successfully&lt;br&gt;installed ?" style="rhombus;whiteSpace=wrap;html=1;rounded=0;shadow=1;labelBackgroundColor=none;strokeWidth=1;fontFamily=Verdana;fontSize=8;align=center;" parent="1" vertex="1">
          <mxGeometry x="-1499.47" y="1630" width="100" height="60" as="geometry" />
        </mxCell>
        <mxCell id="FMaZAtzqC5wsarscTpgY-106" value="Includes:&lt;br&gt;* OpenOffice packages&amp;nbsp;&lt;br&gt;* LibreOffice packages&lt;br&gt;* Clipart library" style="text;html=1;strokeColor=default;fillColor=none;align=left;verticalAlign=top;whiteSpace=wrap;rounded=0;fontSize=8;fontFamily=Verdana;fontColor=default;dashed=1;" parent="1" vertex="1">
          <mxGeometry x="-1119.1100000000001" y="1349" width="89.47" height="61" as="geometry" />
        </mxCell>
        <mxCell id="FMaZAtzqC5wsarscTpgY-107" style="edgeStyle=orthogonalEdgeStyle;shape=connector;rounded=0;orthogonalLoop=1;jettySize=auto;html=1;labelBackgroundColor=none;strokeColor=default;strokeWidth=1;fontFamily=Verdana;fontSize=8;fontColor=default;endArrow=none;endFill=0;startSize=5;endSize=5;dashed=1;curved=1;startArrow=none;startFill=0;" parent="1" source="gZyHitp84woVGNt1j31F-63" target="FMaZAtzqC5wsarscTpgY-106" edge="1">
          <mxGeometry relative="1" as="geometry">
            <mxPoint x="-1389.47" y="1597.9999999999995" as="sourcePoint" />
            <mxPoint x="-1169.4699999999998" y="1553.0270270270266" as="targetPoint" />
            <Array as="points">
              <mxPoint x="-1370" y="1320" />
              <mxPoint x="-1370" y="1380" />
            </Array>
          </mxGeometry>
        </mxCell>
        <mxCell id="FMaZAtzqC5wsarscTpgY-108" style="edgeStyle=orthogonalEdgeStyle;shape=connector;rounded=0;orthogonalLoop=1;jettySize=auto;html=1;labelBackgroundColor=none;strokeColor=default;strokeWidth=1;fontFamily=Verdana;fontSize=8;fontColor=default;endArrow=none;endFill=0;startSize=5;endSize=5;dashed=1;curved=1;startArrow=none;startFill=0;" parent="1" source="gZyHitp84woVGNt1j31F-72" target="FMaZAtzqC5wsarscTpgY-106" edge="1">
          <mxGeometry relative="1" as="geometry">
            <mxPoint x="-1379.47" y="1607.9999999999995" as="sourcePoint" />
            <mxPoint x="-1159.4699999999998" y="1563.0270270270266" as="targetPoint" />
            <Array as="points">
              <mxPoint x="-1340" y="1588" />
              <mxPoint x="-1340" y="1380" />
            </Array>
          </mxGeometry>
        </mxCell>
        <mxCell id="FMaZAtzqC5wsarscTpgY-112" style="edgeStyle=orthogonalEdgeStyle;shape=connector;rounded=0;orthogonalLoop=1;jettySize=auto;html=1;exitX=0;exitY=0.5;exitDx=0;exitDy=0;entryX=0.5;entryY=0;entryDx=0;entryDy=0;labelBackgroundColor=none;strokeColor=default;strokeWidth=1;fontFamily=Verdana;fontSize=8;fontColor=default;endArrow=classicThin;endFill=1;startSize=5;endSize=5;" parent="1" source="FMaZAtzqC5wsarscTpgY-109" target="gZyHitp84woVGNt1j31F-9" edge="1">
          <mxGeometry relative="1" as="geometry">
            <Array as="points">
              <mxPoint x="-1519" y="1770" />
              <mxPoint x="-1519" y="2020" />
              <mxPoint x="-1450" y="2020" />
            </Array>
          </mxGeometry>
        </mxCell>
        <mxCell id="FMaZAtzqC5wsarscTpgY-109" value="Any Office base&lt;br&gt;package was affected ?" style="rhombus;whiteSpace=wrap;html=1;rounded=0;shadow=1;labelBackgroundColor=none;strokeWidth=1;fontFamily=Verdana;fontSize=8;align=center;" parent="1" vertex="1">
          <mxGeometry x="-1499.47" y="1740" width="100" height="60" as="geometry" />
        </mxCell>
        <mxCell id="j1TnudKSoMf6J_vbDHsm-122" style="edgeStyle=orthogonalEdgeStyle;shape=connector;rounded=0;orthogonalLoop=1;jettySize=auto;html=1;exitX=0.5;exitY=1;exitDx=0;exitDy=0;entryX=0.5;entryY=0;entryDx=0;entryDy=0;labelBackgroundColor=none;strokeColor=default;strokeWidth=1;fontFamily=Verdana;fontSize=8;fontColor=default;endArrow=classicThin;endFill=1;startSize=5;endSize=5;" parent="1" source="FMaZAtzqC5wsarscTpgY-117" target="j1TnudKSoMf6J_vbDHsm-121" edge="1">
          <mxGeometry relative="1" as="geometry" />
        </mxCell>
        <mxCell id="FMaZAtzqC5wsarscTpgY-117" value="Choose interface&lt;br&gt;(GUI/CLI)" style="whiteSpace=wrap;html=1;rounded=0;shadow=1;labelBackgroundColor=none;strokeWidth=1;fontFamily=Verdana;fontSize=8;align=center;" parent="1" vertex="1">
          <mxGeometry x="-599.82" y="-2880" width="120" height="40" as="geometry" />
        </mxCell>
        <mxCell id="vTeHq6-nuDfhrwUV0Sy5-3" style="edgeStyle=orthogonalEdgeStyle;rounded=0;orthogonalLoop=1;jettySize=auto;html=1;exitX=0;exitY=0.5;exitDx=0;exitDy=0;entryX=0.5;entryY=0;entryDx=0;entryDy=0;entryPerimeter=0;" parent="1" source="vTeHq6-nuDfhrwUV0Sy5-1" target="gZyHitp84woVGNt1j31F-135" edge="1">
          <mxGeometry relative="1" as="geometry">
            <Array as="points">
              <mxPoint x="680" y="-3200" />
              <mxPoint x="680" y="-1040" />
              <mxPoint x="-540" y="-1040" />
            </Array>
          </mxGeometry>
        </mxCell>
        <mxCell id="vTeHq6-nuDfhrwUV0Sy5-1" value="Is the program&lt;br&gt;running with&lt;br&gt;root privileges ?" style="rhombus;whiteSpace=wrap;html=1;rounded=0;shadow=1;labelBackgroundColor=none;strokeWidth=1;fontFamily=Verdana;fontSize=8;align=center;" parent="1" vertex="1">
          <mxGeometry x="-590.1800000000001" y="-3230" width="100" height="60" as="geometry" />
        </mxCell>
        <mxCell id="j1TnudKSoMf6J_vbDHsm-23" style="edgeStyle=orthogonalEdgeStyle;shape=connector;rounded=0;orthogonalLoop=1;jettySize=auto;html=1;exitX=0.5;exitY=1;exitDx=0;exitDy=0;labelBackgroundColor=none;strokeColor=default;strokeWidth=1;fontFamily=Verdana;fontSize=8;fontColor=default;endArrow=classicThin;endFill=1;startSize=5;endSize=5;entryX=0.5;entryY=0;entryDx=0;entryDy=0;" parent="1" source="j1TnudKSoMf6J_vbDHsm-6" target="gZyHitp84woVGNt1j31F-153" edge="1">
          <mxGeometry relative="1" as="geometry">
            <mxPoint x="-530" y="-2730" as="targetPoint" />
          </mxGeometry>
        </mxCell>
        <mxCell id="j1TnudKSoMf6J_vbDHsm-6" value="read configuration file" style="whiteSpace=wrap;html=1;rounded=0;shadow=1;labelBackgroundColor=none;strokeWidth=1;fontFamily=Verdana;fontSize=8;align=center;" parent="1" vertex="1">
          <mxGeometry x="-599.82" y="-3120" width="120" height="40" as="geometry" />
        </mxCell>
        <mxCell id="j1TnudKSoMf6J_vbDHsm-16" value="This part must be started in a separate&lt;br&gt;thread" style="text;html=1;align=center;verticalAlign=middle;whiteSpace=wrap;rounded=0;fontSize=8;fontFamily=Verdana;dashed=1;strokeColor=default;" parent="1" vertex="1">
          <mxGeometry x="49.999999999999886" y="-1565" width="79.89" height="50" as="geometry" />
        </mxCell>
        <mxCell id="j1TnudKSoMf6J_vbDHsm-17" value="" style="edgeStyle=orthogonalEdgeStyle;shape=connector;rounded=0;orthogonalLoop=1;jettySize=auto;html=1;labelBackgroundColor=none;strokeColor=default;strokeWidth=1;fontFamily=Verdana;fontSize=8;fontColor=default;endArrow=none;endFill=0;startSize=5;endSize=5;dashed=1;curved=1;startArrow=none;startFill=0;" parent="1" source="j1TnudKSoMf6J_vbDHsm-16" target="gZyHitp84woVGNt1j31F-139" edge="1">
          <mxGeometry relative="1" as="geometry">
            <mxPoint x="69.94117647058829" y="-1610.13" as="sourcePoint" />
            <mxPoint x="209.77999999999975" y="-690.8800000000002" as="targetPoint" />
          </mxGeometry>
        </mxCell>
        <mxCell id="j1TnudKSoMf6J_vbDHsm-27" style="edgeStyle=orthogonalEdgeStyle;shape=connector;rounded=0;orthogonalLoop=1;jettySize=auto;html=1;exitX=0.5;exitY=1;exitDx=0;exitDy=0;entryX=0.5;entryY=0;entryDx=0;entryDy=0;labelBackgroundColor=none;strokeColor=default;strokeWidth=1;fontFamily=Verdana;fontSize=8;fontColor=default;endArrow=classicThin;endFill=1;startSize=5;endSize=5;" parent="1" source="j1TnudKSoMf6J_vbDHsm-26" target="vTeHq6-nuDfhrwUV0Sy5-1" edge="1">
          <mxGeometry relative="1" as="geometry" />
        </mxCell>
        <mxCell id="j1TnudKSoMf6J_vbDHsm-26" value="parse command line options&lt;br&gt;(argparse)" style="whiteSpace=wrap;html=1;rounded=0;shadow=1;labelBackgroundColor=none;strokeWidth=1;fontFamily=Verdana;fontSize=8;align=center;" parent="1" vertex="1">
          <mxGeometry x="-600.1800000000001" y="-3320" width="120" height="40" as="geometry" />
        </mxCell>
        <mxCell id="CaTrGZt4zre4TjSHEbGF-8" style="edgeStyle=orthogonalEdgeStyle;rounded=0;orthogonalLoop=1;jettySize=auto;html=1;exitX=0.1;exitY=0.5;exitDx=0;exitDy=0;exitPerimeter=0;entryX=0;entryY=0.5;entryDx=0;entryDy=0;entryPerimeter=0;endArrow=none;endFill=0;" edge="1" parent="1" source="j1TnudKSoMf6J_vbDHsm-30" target="j1TnudKSoMf6J_vbDHsm-32">
          <mxGeometry relative="1" as="geometry" />
        </mxCell>
        <mxCell id="j1TnudKSoMf6J_vbDHsm-30" value="" style="shape=curlyBracket;whiteSpace=wrap;html=1;rounded=1;labelPosition=left;verticalLabelPosition=middle;align=right;verticalAlign=middle;shadow=1;labelBackgroundColor=none;strokeColor=default;strokeWidth=1;fontFamily=Verdana;fontSize=8;fontColor=default;fillColor=default;" parent="1" vertex="1">
          <mxGeometry x="-1169.8" y="-3400" width="529.79" height="560" as="geometry" />
        </mxCell>
        <mxCell id="j1TnudKSoMf6J_vbDHsm-32" value="main file&lt;br&gt;(lomanager2.py)" style="shape=note;whiteSpace=wrap;html=1;backgroundOutline=1;fontColor=#000000;darkOpacity=0.05;fillColor=#FFF9B2;strokeColor=none;fillStyle=solid;direction=west;gradientDirection=north;gradientColor=#FFF2A1;shadow=1;size=20;pointerEvents=1;rounded=1;labelBackgroundColor=none;strokeWidth=1;fontFamily=Verdana;fontSize=8;" parent="1" vertex="1">
          <mxGeometry x="-1340" y="-3152.5" width="140" height="65" as="geometry" />
        </mxCell>
        <mxCell id="j1TnudKSoMf6J_vbDHsm-76" style="edgeStyle=orthogonalEdgeStyle;shape=connector;rounded=0;orthogonalLoop=1;jettySize=auto;html=1;exitX=0.5;exitY=1;exitDx=0;exitDy=0;labelBackgroundColor=none;strokeColor=default;strokeWidth=1;fontFamily=Verdana;fontSize=8;fontColor=default;endArrow=classicThin;endFill=1;startSize=5;endSize=5;entryX=0.5;entryY=0;entryDx=0;entryDy=0;" parent="1" source="j1TnudKSoMf6J_vbDHsm-67" target="j1TnudKSoMf6J_vbDHsm-75" edge="1">
          <mxGeometry relative="1" as="geometry">
            <mxPoint x="-339.91999999999996" y="-1563" as="targetPoint" />
          </mxGeometry>
        </mxCell>
        <mxCell id="j1TnudKSoMf6J_vbDHsm-67" value="Create a list of packages to install/uninstall based on user&#39;s choice and system state" style="rounded=0;whiteSpace=wrap;html=1;shadow=1;labelBackgroundColor=none;strokeWidth=1;fontFamily=Verdana;fontSize=8;align=center;" parent="1" vertex="1">
          <mxGeometry x="-430.00000000000006" y="-1560" width="100" height="40" as="geometry" />
        </mxCell>
        <mxCell id="j1TnudKSoMf6J_vbDHsm-81" style="edgeStyle=orthogonalEdgeStyle;shape=connector;rounded=0;orthogonalLoop=1;jettySize=auto;html=1;exitX=0.5;exitY=1;exitDx=0;exitDy=0;exitPerimeter=0;entryX=0.5;entryY=0;entryDx=0;entryDy=0;labelBackgroundColor=none;strokeColor=default;strokeWidth=1;fontFamily=Verdana;fontSize=8;fontColor=default;endArrow=classicThin;endFill=1;startSize=5;endSize=5;" parent="1" source="j1TnudKSoMf6J_vbDHsm-71" target="j1TnudKSoMf6J_vbDHsm-67" edge="1">
          <mxGeometry relative="1" as="geometry" />
        </mxCell>
        <mxCell id="j1TnudKSoMf6J_vbDHsm-71" value="emit state signal&lt;br&gt;for the GUI to update&lt;br&gt;(this is handled by QTableView automaticaly)" style="strokeWidth=1;html=1;shape=mxgraph.flowchart.display;whiteSpace=wrap;rounded=0;shadow=1;labelBackgroundColor=none;strokeColor=default;fontFamily=Verdana;fontSize=8;fontColor=default;fillColor=default;" parent="1" vertex="1">
          <mxGeometry x="-430.00000000000006" y="-1640" width="100" height="45" as="geometry" />
        </mxCell>
        <mxCell id="j1TnudKSoMf6J_vbDHsm-77" style="edgeStyle=orthogonalEdgeStyle;shape=connector;rounded=0;orthogonalLoop=1;jettySize=auto;html=1;exitX=0.5;exitY=1;exitDx=0;exitDy=0;labelBackgroundColor=none;strokeColor=default;strokeWidth=1;fontFamily=Verdana;fontSize=8;fontColor=default;endArrow=classicThin;endFill=1;startSize=5;endSize=5;entryX=0.5;entryY=0;entryDx=0;entryDy=0;" parent="1" source="Q7OsvflCETNWhosahGd8-26" target="j1TnudKSoMf6J_vbDHsm-130" edge="1">
          <mxGeometry relative="1" as="geometry">
            <mxPoint x="-399.91999999999996" y="-1813" as="targetPoint" />
            <Array as="points">
              <mxPoint x="-220" y="-1240" />
              <mxPoint x="600" y="-1240" />
              <mxPoint x="600" y="-2180" />
              <mxPoint x="-540" y="-2180" />
            </Array>
          </mxGeometry>
        </mxCell>
        <mxCell id="j1TnudKSoMf6J_vbDHsm-78" style="edgeStyle=orthogonalEdgeStyle;shape=connector;rounded=0;orthogonalLoop=1;jettySize=auto;html=1;exitX=0.5;exitY=1;exitDx=0;exitDy=0;entryX=0.5;entryY=0;entryDx=0;entryDy=0;labelBackgroundColor=none;strokeColor=default;strokeWidth=1;fontFamily=Verdana;fontSize=8;fontColor=default;endArrow=classicThin;endFill=1;startSize=5;endSize=5;" parent="1" source="j1TnudKSoMf6J_vbDHsm-75" target="Q7OsvflCETNWhosahGd8-24" edge="1">
          <mxGeometry relative="1" as="geometry">
            <mxPoint x="-360.10000000000025" y="-1473" as="targetPoint" />
          </mxGeometry>
        </mxCell>
        <mxCell id="Q7OsvflCETNWhosahGd8-27" style="edgeStyle=orthogonalEdgeStyle;shape=connector;rounded=0;orthogonalLoop=1;jettySize=auto;html=1;exitX=1;exitY=0.5;exitDx=0;exitDy=0;entryX=0.5;entryY=0;entryDx=0;entryDy=0;labelBackgroundColor=none;strokeColor=default;strokeWidth=1;fontFamily=Verdana;fontSize=8;fontColor=default;endArrow=classicThin;endFill=1;startSize=5;endSize=5;" parent="1" source="j1TnudKSoMf6J_vbDHsm-75" target="Q7OsvflCETNWhosahGd8-26" edge="1">
          <mxGeometry relative="1" as="geometry" />
        </mxCell>
        <mxCell id="j1TnudKSoMf6J_vbDHsm-75" value="is there enough&lt;br&gt;HDD space&lt;br&gt;available ?" style="rhombus;whiteSpace=wrap;html=1;rounded=0;shadow=1;labelBackgroundColor=none;strokeWidth=1;fontFamily=Verdana;fontSize=8;align=center;" parent="1" vertex="1">
          <mxGeometry x="-430.00000000000006" y="-1470" width="100" height="60" as="geometry" />
        </mxCell>
        <mxCell id="Q7OsvflCETNWhosahGd8-19" style="edgeStyle=orthogonalEdgeStyle;shape=connector;rounded=0;orthogonalLoop=1;jettySize=auto;html=1;exitX=0.5;exitY=1;exitDx=0;exitDy=0;entryX=0.5;entryY=0;entryDx=0;entryDy=0;labelBackgroundColor=none;strokeColor=default;strokeWidth=1;fontFamily=Verdana;fontSize=8;fontColor=default;endArrow=classicThin;endFill=1;startSize=5;endSize=5;" parent="1" source="CaTrGZt4zre4TjSHEbGF-20" target="j1TnudKSoMf6J_vbDHsm-130" edge="1">
          <mxGeometry relative="1" as="geometry">
            <mxPoint x="240" y="-1320" as="sourcePoint" />
            <Array as="points">
              <mxPoint x="500" y="-1240" />
              <mxPoint x="600" y="-1240" />
              <mxPoint x="600" y="-2180" />
              <mxPoint x="-540" y="-2180" />
            </Array>
          </mxGeometry>
        </mxCell>
        <mxCell id="Q7OsvflCETNWhosahGd8-20" style="edgeStyle=orthogonalEdgeStyle;shape=connector;rounded=0;orthogonalLoop=1;jettySize=auto;html=1;exitX=0.5;exitY=1;exitDx=0;exitDy=0;entryX=0.5;entryY=0;entryDx=0;entryDy=0;labelBackgroundColor=none;strokeColor=default;strokeWidth=1;fontFamily=Verdana;fontSize=8;fontColor=default;endArrow=classicThin;endFill=1;startSize=5;endSize=5;" parent="1" source="Q7OsvflCETNWhosahGd8-85" target="j1TnudKSoMf6J_vbDHsm-130" edge="1">
          <mxGeometry relative="1" as="geometry">
            <mxPoint x="120.18000000000029" y="-1270" as="sourcePoint" />
            <Array as="points">
              <mxPoint x="340" y="-1240" />
              <mxPoint x="600" y="-1240" />
              <mxPoint x="600" y="-2180" />
              <mxPoint x="-540" y="-2180" />
            </Array>
          </mxGeometry>
        </mxCell>
        <mxCell id="j1TnudKSoMf6J_vbDHsm-121" value="Create Adapter, View and Model and&lt;br&gt;link them" style="whiteSpace=wrap;html=1;rounded=0;shadow=1;labelBackgroundColor=none;strokeWidth=1;fontFamily=Verdana;fontSize=8;align=center;" parent="1" vertex="1">
          <mxGeometry x="-599.82" y="-2800" width="120" height="40" as="geometry" />
        </mxCell>
        <mxCell id="j1TnudKSoMf6J_vbDHsm-123" value="" style="shape=curlyBracket;whiteSpace=wrap;html=1;rounded=1;labelPosition=left;verticalLabelPosition=middle;align=right;verticalAlign=middle;shadow=1;labelBackgroundColor=none;strokeColor=default;strokeWidth=1;fontFamily=Verdana;fontSize=8;fontColor=default;fillColor=default;" parent="1" vertex="1">
          <mxGeometry x="-1179.8" y="-2800" width="539.79" height="40" as="geometry" />
        </mxCell>
        <mxCell id="j1TnudKSoMf6J_vbDHsm-126" style="edgeStyle=orthogonalEdgeStyle;shape=connector;rounded=0;orthogonalLoop=1;jettySize=auto;html=1;exitX=0;exitY=0.5;exitDx=0;exitDy=0;exitPerimeter=0;labelBackgroundColor=none;strokeColor=default;strokeWidth=1;fontFamily=Verdana;fontSize=8;fontColor=default;endArrow=none;endFill=0;startSize=5;endSize=5;entryX=0.1;entryY=0.5;entryDx=0;entryDy=0;entryPerimeter=0;" parent="1" source="j1TnudKSoMf6J_vbDHsm-125" target="CaTrGZt4zre4TjSHEbGF-31" edge="1">
          <mxGeometry relative="1" as="geometry" />
        </mxCell>
        <mxCell id="j1TnudKSoMf6J_vbDHsm-125" value="app logic file" style="shape=note;whiteSpace=wrap;html=1;backgroundOutline=1;fontColor=#000000;darkOpacity=0.05;fillColor=#FFF9B2;strokeColor=none;fillStyle=solid;direction=west;gradientDirection=north;gradientColor=#FFF2A1;shadow=1;size=20;pointerEvents=1;rounded=1;labelBackgroundColor=none;strokeWidth=1;fontFamily=Verdana;fontSize=8;" parent="1" vertex="1">
          <mxGeometry x="-1340" y="-1917.5" width="140" height="35" as="geometry" />
        </mxCell>
        <mxCell id="j1TnudKSoMf6J_vbDHsm-140" style="edgeStyle=orthogonalEdgeStyle;shape=connector;rounded=0;orthogonalLoop=1;jettySize=auto;html=1;exitX=1;exitY=0.5;exitDx=0;exitDy=0;entryX=0.5;entryY=0;entryDx=0;entryDy=0;labelBackgroundColor=none;strokeColor=default;strokeWidth=1;fontFamily=Verdana;fontSize=8;fontColor=default;endArrow=classicThin;endFill=1;startSize=5;endSize=5;" parent="1" source="j1TnudKSoMf6J_vbDHsm-130" target="j1TnudKSoMf6J_vbDHsm-134" edge="1">
          <mxGeometry relative="1" as="geometry" />
        </mxCell>
        <mxCell id="j1TnudKSoMf6J_vbDHsm-159" style="edgeStyle=orthogonalEdgeStyle;shape=connector;rounded=0;orthogonalLoop=1;jettySize=auto;html=1;exitX=0.5;exitY=1;exitDx=0;exitDy=0;entryX=0.5;entryY=0;entryDx=0;entryDy=0;labelBackgroundColor=none;strokeColor=default;strokeWidth=1;fontFamily=Verdana;fontSize=8;fontColor=default;endArrow=classicThin;endFill=1;startSize=5;endSize=5;" parent="1" source="j1TnudKSoMf6J_vbDHsm-130" target="KZAsET0lDErMvSsKAa-C-99" edge="1">
          <mxGeometry relative="1" as="geometry" />
        </mxCell>
        <mxCell id="j1TnudKSoMf6J_vbDHsm-130" value="quit button&lt;br&gt;pressed ?&lt;br&gt;(GUI event loop)" style="rhombus;whiteSpace=wrap;html=1;rounded=0;shadow=1;labelBackgroundColor=none;strokeWidth=1;fontFamily=Verdana;fontSize=8;align=center;" parent="1" vertex="1">
          <mxGeometry x="-589.8200000000002" y="-2150" width="100" height="60" as="geometry" />
        </mxCell>
        <mxCell id="j1TnudKSoMf6J_vbDHsm-142" style="edgeStyle=orthogonalEdgeStyle;shape=connector;rounded=0;orthogonalLoop=1;jettySize=auto;html=1;exitX=0.5;exitY=1;exitDx=0;exitDy=0;entryX=0.5;entryY=0;entryDx=0;entryDy=0;labelBackgroundColor=none;strokeColor=default;strokeWidth=1;fontFamily=Verdana;fontSize=8;fontColor=default;endArrow=classicThin;endFill=1;startSize=5;endSize=5;" parent="1" source="j1TnudKSoMf6J_vbDHsm-134" target="j1TnudKSoMf6J_vbDHsm-141" edge="1">
          <mxGeometry relative="1" as="geometry" />
        </mxCell>
        <mxCell id="j1TnudKSoMf6J_vbDHsm-134" value="this is an Qt event queue&lt;br&gt;or a switch case" style="whiteSpace=wrap;html=1;rounded=0;shadow=1;labelBackgroundColor=none;strokeWidth=1;fontFamily=Verdana;fontSize=8;align=center;dashed=1;dashPattern=1 1;" parent="1" vertex="1">
          <mxGeometry x="-440.0000000000002" y="-2040" width="120" height="40" as="geometry" />
        </mxCell>
        <mxCell id="j1TnudKSoMf6J_vbDHsm-152" style="edgeStyle=orthogonalEdgeStyle;shape=connector;rounded=0;orthogonalLoop=1;jettySize=auto;html=1;exitX=1;exitY=0.5;exitDx=0;exitDy=0;entryX=0;entryY=0.5;entryDx=0;entryDy=0;labelBackgroundColor=none;strokeColor=default;strokeWidth=1;fontFamily=Verdana;fontSize=8;fontColor=default;endArrow=classicThin;endFill=1;startSize=5;endSize=5;" parent="1" source="j1TnudKSoMf6J_vbDHsm-141" target="KeaiH_9psKvAQMgdjnc_-1" edge="1">
          <mxGeometry relative="1" as="geometry" />
        </mxCell>
        <mxCell id="Q7OsvflCETNWhosahGd8-21" style="edgeStyle=orthogonalEdgeStyle;shape=connector;rounded=0;orthogonalLoop=1;jettySize=auto;html=1;exitX=0.5;exitY=1;exitDx=0;exitDy=0;entryX=0.5;entryY=0;entryDx=0;entryDy=0;labelBackgroundColor=none;strokeColor=default;strokeWidth=1;fontFamily=Verdana;fontSize=8;fontColor=default;endArrow=classicThin;endFill=1;startSize=5;endSize=5;" parent="1" source="CaTrGZt4zre4TjSHEbGF-10" target="FMaZAtzqC5wsarscTpgY-22" edge="1">
          <mxGeometry relative="1" as="geometry">
            <mxPoint x="-359.82000000000016" y="-1830" as="targetPoint" />
          </mxGeometry>
        </mxCell>
        <mxCell id="CaTrGZt4zre4TjSHEbGF-14" style="edgeStyle=orthogonalEdgeStyle;shape=connector;rounded=0;orthogonalLoop=1;jettySize=auto;html=1;exitX=0.5;exitY=1;exitDx=0;exitDy=0;entryX=0.5;entryY=0;entryDx=0;entryDy=0;labelBackgroundColor=none;strokeColor=default;strokeWidth=1;fontFamily=Verdana;fontSize=8;fontColor=default;endArrow=classicThin;endFill=1;startSize=5;endSize=5;" edge="1" parent="1" source="j1TnudKSoMf6J_vbDHsm-141" target="CaTrGZt4zre4TjSHEbGF-10">
          <mxGeometry relative="1" as="geometry" />
        </mxCell>
        <mxCell id="j1TnudKSoMf6J_vbDHsm-141" value="user&lt;br&gt;makes a selection&lt;br&gt;in the PackageMenu" style="rhombus;whiteSpace=wrap;html=1;rounded=0;shadow=1;labelBackgroundColor=none;strokeWidth=1;fontFamily=Verdana;fontSize=8;align=center;" parent="1" vertex="1">
          <mxGeometry x="-430.0000000000001" y="-1950" width="100" height="60" as="geometry" />
        </mxCell>
        <mxCell id="j1TnudKSoMf6J_vbDHsm-153" style="edgeStyle=orthogonalEdgeStyle;shape=connector;rounded=0;orthogonalLoop=1;jettySize=auto;html=1;exitX=1;exitY=0.5;exitDx=0;exitDy=0;entryX=0;entryY=0.5;entryDx=0;entryDy=0;labelBackgroundColor=none;strokeColor=default;strokeWidth=1;fontFamily=Verdana;fontSize=8;fontColor=default;endArrow=classicThin;endFill=1;startSize=5;endSize=5;" parent="1" source="j1TnudKSoMf6J_vbDHsm-146" target="j1TnudKSoMf6J_vbDHsm-150" edge="1">
          <mxGeometry relative="1" as="geometry">
            <mxPoint x="-150" y="-1915.75" as="targetPoint" />
          </mxGeometry>
        </mxCell>
        <mxCell id="j1TnudKSoMf6J_vbDHsm-162" style="edgeStyle=orthogonalEdgeStyle;shape=connector;rounded=0;orthogonalLoop=1;jettySize=auto;html=1;exitX=0.5;exitY=1;exitDx=0;exitDy=0;entryX=0.5;entryY=0;entryDx=0;entryDy=0;labelBackgroundColor=none;strokeColor=default;strokeWidth=1;fontFamily=Verdana;fontSize=8;fontColor=default;endArrow=classicThin;endFill=1;startSize=5;endSize=5;" parent="1" source="j1TnudKSoMf6J_vbDHsm-146" target="j1TnudKSoMf6J_vbDHsm-161" edge="1">
          <mxGeometry relative="1" as="geometry" />
        </mxCell>
        <mxCell id="j1TnudKSoMf6J_vbDHsm-146" value="user&lt;br&gt;clicks Apply button" style="rhombus;whiteSpace=wrap;html=1;rounded=0;shadow=1;labelBackgroundColor=none;strokeWidth=1;fontFamily=Verdana;fontSize=8;align=center;" parent="1" vertex="1">
          <mxGeometry x="89.99999999999989" y="-1950" width="100" height="60" as="geometry" />
        </mxCell>
        <mxCell id="Q7OsvflCETNWhosahGd8-6" style="edgeStyle=orthogonalEdgeStyle;shape=connector;rounded=0;orthogonalLoop=1;jettySize=auto;html=1;exitX=1;exitY=0.5;exitDx=0;exitDy=0;entryX=0.5;entryY=0;entryDx=0;entryDy=0;labelBackgroundColor=none;strokeColor=default;strokeWidth=1;fontFamily=Verdana;fontSize=8;fontColor=default;endArrow=classicThin;endFill=1;startSize=5;endSize=5;" parent="1" source="Q7OsvflCETNWhosahGd8-87" target="j1TnudKSoMf6J_vbDHsm-130" edge="1">
          <mxGeometry relative="1" as="geometry">
            <Array as="points">
              <mxPoint x="600" y="-1920" />
              <mxPoint x="600" y="-2180" />
              <mxPoint x="-540" y="-2180" />
            </Array>
          </mxGeometry>
        </mxCell>
        <mxCell id="Q7OsvflCETNWhosahGd8-86" style="edgeStyle=orthogonalEdgeStyle;shape=connector;rounded=0;orthogonalLoop=1;jettySize=auto;html=1;exitX=0.5;exitY=1;exitDx=0;exitDy=0;entryX=0.5;entryY=0;entryDx=0;entryDy=0;labelBackgroundColor=none;strokeColor=default;strokeWidth=1;fontFamily=Verdana;fontSize=8;fontColor=default;endArrow=classicThin;endFill=1;startSize=5;endSize=5;" parent="1" source="j1TnudKSoMf6J_vbDHsm-150" target="Q7OsvflCETNWhosahGd8-85" edge="1">
          <mxGeometry relative="1" as="geometry" />
        </mxCell>
        <mxCell id="Q7OsvflCETNWhosahGd8-88" style="edgeStyle=orthogonalEdgeStyle;shape=connector;rounded=0;orthogonalLoop=1;jettySize=auto;html=1;exitX=1;exitY=0.5;exitDx=0;exitDy=0;entryX=0;entryY=0.5;entryDx=0;entryDy=0;labelBackgroundColor=none;strokeColor=default;strokeWidth=1;fontFamily=Verdana;fontSize=8;fontColor=default;endArrow=classicThin;endFill=1;startSize=5;endSize=5;" parent="1" source="j1TnudKSoMf6J_vbDHsm-150" target="Q7OsvflCETNWhosahGd8-87" edge="1">
          <mxGeometry relative="1" as="geometry" />
        </mxCell>
        <mxCell id="j1TnudKSoMf6J_vbDHsm-150" value="signal&lt;br&gt;&quot;thread finished&quot;" style="rhombus;whiteSpace=wrap;html=1;rounded=0;shadow=1;labelBackgroundColor=none;strokeWidth=1;fontFamily=Verdana;fontSize=8;align=center;" parent="1" vertex="1">
          <mxGeometry x="289.9999999999999" y="-1950" width="100" height="60" as="geometry" />
        </mxCell>
        <mxCell id="j1TnudKSoMf6J_vbDHsm-165" style="edgeStyle=orthogonalEdgeStyle;shape=connector;rounded=0;orthogonalLoop=1;jettySize=auto;html=1;exitX=0.5;exitY=1;exitDx=0;exitDy=0;entryX=0.5;entryY=0;entryDx=0;entryDy=0;labelBackgroundColor=none;strokeColor=default;strokeWidth=1;fontFamily=Verdana;fontSize=8;fontColor=default;endArrow=classicThin;endFill=1;startSize=5;endSize=5;" parent="1" source="j1TnudKSoMf6J_vbDHsm-161" target="CaTrGZt4zre4TjSHEbGF-17" edge="1">
          <mxGeometry relative="1" as="geometry">
            <mxPoint x="110" y="-1710" as="targetPoint" />
          </mxGeometry>
        </mxCell>
        <mxCell id="Q7OsvflCETNWhosahGd8-28" style="edgeStyle=orthogonalEdgeStyle;shape=connector;rounded=0;orthogonalLoop=1;jettySize=auto;html=1;exitX=1;exitY=0.5;exitDx=0;exitDy=0;labelBackgroundColor=none;strokeColor=default;strokeWidth=1;fontFamily=Verdana;fontSize=8;fontColor=default;endArrow=classicThin;endFill=1;startSize=5;endSize=5;entryX=0.5;entryY=0;entryDx=0;entryDy=0;" parent="1" source="j1TnudKSoMf6J_vbDHsm-161" target="j1TnudKSoMf6J_vbDHsm-130" edge="1">
          <mxGeometry relative="1" as="geometry">
            <mxPoint x="-40" y="-1760" as="targetPoint" />
            <Array as="points">
              <mxPoint x="240" y="-1800" />
              <mxPoint x="240" y="-1240" />
              <mxPoint x="600" y="-1240" />
              <mxPoint x="600" y="-2180" />
              <mxPoint x="-540" y="-2180" />
            </Array>
          </mxGeometry>
        </mxCell>
        <mxCell id="j1TnudKSoMf6J_vbDHsm-161" value="is&lt;br style=&quot;border-color: var(--border-color);&quot;&gt;&quot;ready_to_apply_changes&quot; True ?" style="rhombus;whiteSpace=wrap;html=1;rounded=0;shadow=1;labelBackgroundColor=none;strokeWidth=1;fontFamily=Verdana;fontSize=8;align=center;" parent="1" vertex="1">
          <mxGeometry x="89.99999999999989" y="-1830" width="100" height="60" as="geometry" />
        </mxCell>
        <mxCell id="Q7OsvflCETNWhosahGd8-3" value="&lt;br&gt;&lt;br&gt;Create&lt;br&gt;objects representing&lt;br&gt;state/data" style="shape=internalStorage;whiteSpace=wrap;html=1;dx=15;dy=15;rounded=1;arcSize=8;strokeWidth=1;shadow=1;labelBackgroundColor=none;fontFamily=Verdana;fontSize=8;" parent="1" vertex="1">
          <mxGeometry x="-599.8199999999999" y="-2650" width="120" height="50" as="geometry" />
        </mxCell>
        <mxCell id="Q7OsvflCETNWhosahGd8-83" style="edgeStyle=orthogonalEdgeStyle;shape=connector;rounded=0;orthogonalLoop=1;jettySize=auto;html=1;exitX=0.5;exitY=1;exitDx=0;exitDy=0;entryX=0.5;entryY=0;entryDx=0;entryDy=0;labelBackgroundColor=none;strokeColor=default;strokeWidth=1;fontFamily=Verdana;fontSize=8;fontColor=default;endArrow=classicThin;endFill=1;startSize=5;endSize=5;" parent="1" source="Q7OsvflCETNWhosahGd8-22" target="CaTrGZt4zre4TjSHEbGF-22" edge="1">
          <mxGeometry relative="1" as="geometry" />
        </mxCell>
        <mxCell id="Q7OsvflCETNWhosahGd8-22" value="RUN&lt;br&gt;Initial Package State&amp;nbsp;&lt;br&gt;procedure" style="whiteSpace=wrap;html=1;rounded=1;shadow=1;labelBackgroundColor=none;strokeWidth=1;fontFamily=Verdana;fontSize=8;align=center;" parent="1" vertex="1">
          <mxGeometry x="-600.1800000000001" y="-2320" width="120" height="40" as="geometry" />
        </mxCell>
        <mxCell id="Q7OsvflCETNWhosahGd8-25" style="edgeStyle=orthogonalEdgeStyle;shape=connector;rounded=0;orthogonalLoop=1;jettySize=auto;html=1;exitX=0.5;exitY=1;exitDx=0;exitDy=0;entryX=0.5;entryY=0;entryDx=0;entryDy=0;labelBackgroundColor=none;strokeColor=default;strokeWidth=1;fontFamily=Verdana;fontSize=8;fontColor=default;endArrow=classicThin;endFill=1;startSize=5;endSize=5;" parent="1" source="Q7OsvflCETNWhosahGd8-24" target="j1TnudKSoMf6J_vbDHsm-130" edge="1">
          <mxGeometry relative="1" as="geometry">
            <Array as="points">
              <mxPoint x="-380" y="-1240" />
              <mxPoint x="600" y="-1240" />
              <mxPoint x="600" y="-2180" />
              <mxPoint x="-540" y="-2180" />
            </Array>
          </mxGeometry>
        </mxCell>
        <mxCell id="Q7OsvflCETNWhosahGd8-24" value="set&lt;br&gt;&quot;ready_to_apply_changes&quot; = True" style="whiteSpace=wrap;html=1;rounded=0;shadow=1;labelBackgroundColor=none;strokeWidth=1;fontFamily=Verdana;fontSize=8;align=center;" parent="1" vertex="1">
          <mxGeometry x="-440.00000000000017" y="-1360" width="120" height="40" as="geometry" />
        </mxCell>
        <mxCell id="Q7OsvflCETNWhosahGd8-26" value="set&lt;br style=&quot;border-color: var(--border-color);&quot;&gt;&quot;ready_to_apply_changes&quot; = False" style="whiteSpace=wrap;html=1;rounded=0;shadow=1;labelBackgroundColor=none;strokeWidth=1;fontFamily=Verdana;fontSize=8;align=center;" parent="1" vertex="1">
          <mxGeometry x="-280.00000000000017" y="-1360" width="120" height="40" as="geometry" />
        </mxCell>
        <mxCell id="Q7OsvflCETNWhosahGd8-29" style="edgeStyle=orthogonalEdgeStyle;shape=connector;rounded=0;orthogonalLoop=1;jettySize=auto;html=1;exitX=0.5;exitY=1;exitDx=0;exitDy=0;labelBackgroundColor=none;strokeColor=default;strokeWidth=1;fontFamily=Verdana;fontSize=8;fontColor=default;endArrow=classicThin;endFill=1;startSize=5;endSize=5;entryX=0.5;entryY=0;entryDx=0;entryDy=0;" parent="1" source="Q7OsvflCETNWhosahGd8-31" target="Q7OsvflCETNWhosahGd8-34" edge="1">
          <mxGeometry relative="1" as="geometry">
            <mxPoint x="-539.974358974359" y="-497.3599999999999" as="targetPoint" />
          </mxGeometry>
        </mxCell>
        <mxCell id="Q7OsvflCETNWhosahGd8-30" style="edgeStyle=orthogonalEdgeStyle;shape=connector;rounded=0;orthogonalLoop=1;jettySize=auto;html=1;exitX=0;exitY=0.5;exitDx=0;exitDy=0;entryX=0.5;entryY=0;entryDx=0;entryDy=0;labelBackgroundColor=none;strokeColor=default;strokeWidth=1;fontFamily=Verdana;fontSize=8;fontColor=default;endArrow=classicThin;endFill=1;startSize=5;endSize=5;" parent="1" source="Q7OsvflCETNWhosahGd8-31" target="Q7OsvflCETNWhosahGd8-63" edge="1">
          <mxGeometry relative="1" as="geometry">
            <mxPoint x="-670.0500000000001" y="-382.4999999999998" as="targetPoint" />
          </mxGeometry>
        </mxCell>
        <mxCell id="Q7OsvflCETNWhosahGd8-31" value="Every&lt;br&gt;&amp;nbsp;package manager&lt;br style=&quot;border-color: var(--border-color);&quot;&gt;stopped ?" style="rhombus;whiteSpace=wrap;html=1;rounded=0;shadow=1;labelBackgroundColor=none;strokeWidth=1;fontFamily=Verdana;fontSize=8;align=center;" parent="1" vertex="1">
          <mxGeometry x="-589.82" y="-629.9999999999998" width="100" height="60" as="geometry" />
        </mxCell>
        <mxCell id="Q7OsvflCETNWhosahGd8-32" style="edgeStyle=orthogonalEdgeStyle;shape=connector;rounded=0;orthogonalLoop=1;jettySize=auto;html=1;exitX=0;exitY=0.5;exitDx=0;exitDy=0;entryX=0.5;entryY=0;entryDx=0;entryDy=0;labelBackgroundColor=none;strokeColor=default;strokeWidth=1;fontFamily=Verdana;fontSize=8;fontColor=default;endArrow=classicThin;endFill=1;startSize=5;endSize=5;" parent="1" source="Q7OsvflCETNWhosahGd8-34" target="Q7OsvflCETNWhosahGd8-65" edge="1">
          <mxGeometry relative="1" as="geometry">
            <mxPoint x="-700.0000000000001" y="-292.3599999999999" as="targetPoint" />
          </mxGeometry>
        </mxCell>
        <mxCell id="Q7OsvflCETNWhosahGd8-33" style="edgeStyle=orthogonalEdgeStyle;shape=connector;rounded=0;orthogonalLoop=1;jettySize=auto;html=1;exitX=0.5;exitY=1;exitDx=0;exitDy=0;labelBackgroundColor=none;strokeColor=default;strokeWidth=1;fontFamily=Verdana;fontSize=8;fontColor=default;endArrow=classicThin;endFill=1;startSize=5;endSize=5;entryX=0.5;entryY=0;entryDx=0;entryDy=0;" parent="1" source="Q7OsvflCETNWhosahGd8-34" target="Q7OsvflCETNWhosahGd8-70" edge="1">
          <mxGeometry relative="1" as="geometry">
            <mxPoint x="-390.0000000000001" y="-172.3599999999999" as="targetPoint" />
          </mxGeometry>
        </mxCell>
        <mxCell id="Q7OsvflCETNWhosahGd8-34" value="All&lt;br&gt;Office software&lt;br&gt;stopped ?" style="rhombus;whiteSpace=wrap;html=1;rounded=0;shadow=1;labelBackgroundColor=none;strokeWidth=1;fontFamily=Verdana;fontSize=8;align=center;" parent="1" vertex="1">
          <mxGeometry x="-589.82" y="-429.9999999999999" width="100" height="60" as="geometry" />
        </mxCell>
        <mxCell id="Q7OsvflCETNWhosahGd8-58" style="edgeStyle=orthogonalEdgeStyle;shape=connector;rounded=0;orthogonalLoop=1;jettySize=auto;html=1;exitX=0.5;exitY=1;exitDx=0;exitDy=0;entryX=0.5;entryY=0;entryDx=0;entryDy=0;labelBackgroundColor=none;strokeColor=default;strokeWidth=1;fontFamily=Verdana;fontSize=8;fontColor=default;endArrow=classicThin;endFill=1;startSize=5;endSize=5;" parent="1" source="Q7OsvflCETNWhosahGd8-37" target="Q7OsvflCETNWhosahGd8-39" edge="1">
          <mxGeometry relative="1" as="geometry">
            <mxPoint x="-540.0500000000003" y="-62.3599999999999" as="targetPoint" />
          </mxGeometry>
        </mxCell>
        <mxCell id="Q7OsvflCETNWhosahGd8-68" style="edgeStyle=orthogonalEdgeStyle;shape=connector;rounded=0;orthogonalLoop=1;jettySize=auto;html=1;exitX=0;exitY=0.5;exitDx=0;exitDy=0;entryX=0.5;entryY=0;entryDx=0;entryDy=0;labelBackgroundColor=none;strokeColor=default;strokeWidth=1;fontFamily=Verdana;fontSize=8;fontColor=default;endArrow=classicThin;endFill=1;startSize=5;endSize=5;" parent="1" source="Q7OsvflCETNWhosahGd8-37" target="Q7OsvflCETNWhosahGd8-67" edge="1">
          <mxGeometry relative="1" as="geometry" />
        </mxCell>
        <mxCell id="Q7OsvflCETNWhosahGd8-37" value="was check successful&lt;br&gt;AND&lt;br&gt;is system&lt;br&gt;fully updated ?" style="rhombus;whiteSpace=wrap;html=1;rounded=0;shadow=1;labelBackgroundColor=none;strokeWidth=1;fontFamily=Verdana;fontSize=8;align=center;" parent="1" vertex="1">
          <mxGeometry x="-589.8200000000003" y="-29.999999999999886" width="100" height="60" as="geometry" />
        </mxCell>
        <mxCell id="Q7OsvflCETNWhosahGd8-38" style="edgeStyle=orthogonalEdgeStyle;shape=connector;rounded=0;orthogonalLoop=1;jettySize=auto;html=1;exitX=0;exitY=0.5;exitDx=0;exitDy=0;labelBackgroundColor=none;strokeColor=default;strokeWidth=1;fontFamily=Verdana;fontSize=8;fontColor=default;endArrow=classicThin;endFill=1;startSize=5;endSize=5;" parent="1" source="Q7OsvflCETNWhosahGd8-39" target="Q7OsvflCETNWhosahGd8-79" edge="1">
          <mxGeometry relative="1" as="geometry" />
        </mxCell>
        <mxCell id="Q7OsvflCETNWhosahGd8-60" style="edgeStyle=orthogonalEdgeStyle;shape=connector;rounded=0;orthogonalLoop=1;jettySize=auto;html=1;exitX=0.5;exitY=1;exitDx=0;exitDy=0;entryX=0.5;entryY=0;entryDx=0;entryDy=0;labelBackgroundColor=none;strokeColor=default;strokeWidth=1;fontFamily=Verdana;fontSize=8;fontColor=default;endArrow=classicThin;endFill=1;startSize=5;endSize=5;entryPerimeter=0;" parent="1" source="Q7OsvflCETNWhosahGd8-39" target="Q7OsvflCETNWhosahGd8-77" edge="1">
          <mxGeometry relative="1" as="geometry">
            <mxPoint x="-540.0500000000008" y="402.6400000000001" as="targetPoint" />
          </mxGeometry>
        </mxCell>
        <mxCell id="Q7OsvflCETNWhosahGd8-39" value="is this program&lt;br&gt;at latest version ?" style="rhombus;whiteSpace=wrap;html=1;rounded=0;shadow=1;labelBackgroundColor=none;strokeWidth=1;fontFamily=Verdana;fontSize=8;align=center;" parent="1" vertex="1">
          <mxGeometry x="-590.0500000000003" y="170.0000000000001" width="100" height="60" as="geometry" />
        </mxCell>
        <mxCell id="Q7OsvflCETNWhosahGd8-49" style="edgeStyle=orthogonalEdgeStyle;shape=connector;rounded=0;orthogonalLoop=1;jettySize=auto;html=1;exitX=0.5;exitY=1;exitDx=0;exitDy=0;entryX=0.5;entryY=0;entryDx=0;entryDy=0;labelBackgroundColor=none;strokeColor=default;strokeWidth=1;fontFamily=Verdana;fontSize=8;fontColor=default;endArrow=classicThin;endFill=1;startSize=5;endSize=5;" parent="1" source="Q7OsvflCETNWhosahGd8-47" target="Q7OsvflCETNWhosahGd8-31" edge="1">
          <mxGeometry relative="1" as="geometry" />
        </mxCell>
        <mxCell id="Q7OsvflCETNWhosahGd8-47" value="block_viewing_installed: False&lt;br&gt;block_viewing_available: False&lt;br&gt;block_removal: False&lt;br&gt;block_network_install: False&lt;br&gt;block_local_copy_install: False&lt;br&gt;block_checking_4_updates: False" style="whiteSpace=wrap;html=1;rounded=0;shadow=1;labelBackgroundColor=none;strokeWidth=1;fontFamily=Verdana;fontSize=8;align=center;" parent="1" vertex="1">
          <mxGeometry x="-599.82" y="-719.9999999999999" width="120" height="65" as="geometry" />
        </mxCell>
        <mxCell id="Q7OsvflCETNWhosahGd8-64" style="edgeStyle=orthogonalEdgeStyle;shape=connector;rounded=0;orthogonalLoop=1;jettySize=auto;html=1;exitX=0.5;exitY=1;exitDx=0;exitDy=0;entryX=0.5;entryY=0;entryDx=0;entryDy=0;labelBackgroundColor=none;strokeColor=default;strokeWidth=1;fontFamily=Verdana;fontSize=8;fontColor=default;endArrow=classicThin;endFill=1;startSize=5;endSize=5;" parent="1" source="Q7OsvflCETNWhosahGd8-63" target="Q7OsvflCETNWhosahGd8-34" edge="1">
          <mxGeometry relative="1" as="geometry" />
        </mxCell>
        <mxCell id="Q7OsvflCETNWhosahGd8-63" value="&lt;br&gt;&lt;br&gt;block_removal: True&lt;br&gt;block_network_install: True&lt;br&gt;block_local_copy_install: True&lt;br&gt;block_checking_4_updates: True" style="whiteSpace=wrap;html=1;rounded=0;shadow=1;labelBackgroundColor=none;strokeWidth=1;fontFamily=Verdana;fontSize=8;align=center;" parent="1" vertex="1">
          <mxGeometry x="-740.1100000000002" y="-559.9999999999999" width="120" height="65" as="geometry" />
        </mxCell>
        <mxCell id="Q7OsvflCETNWhosahGd8-66" style="edgeStyle=orthogonalEdgeStyle;shape=connector;rounded=0;orthogonalLoop=1;jettySize=auto;html=1;exitX=0.5;exitY=1;exitDx=0;exitDy=0;labelBackgroundColor=none;strokeColor=default;strokeWidth=1;fontFamily=Verdana;fontSize=8;fontColor=default;endArrow=classicThin;endFill=1;startSize=5;endSize=5;entryX=0.5;entryY=0;entryDx=0;entryDy=0;" parent="1" source="Q7OsvflCETNWhosahGd8-65" target="Q7OsvflCETNWhosahGd8-70" edge="1">
          <mxGeometry relative="1" as="geometry">
            <mxPoint x="-430.0000000000001" y="-202.3599999999999" as="targetPoint" />
          </mxGeometry>
        </mxCell>
        <mxCell id="Q7OsvflCETNWhosahGd8-65" value="&lt;br&gt;&lt;br&gt;block_removal: True&lt;br&gt;block_network_install: True&lt;br&gt;block_local_copy_install: True&lt;br&gt;&amp;nbsp; &amp;nbsp;" style="whiteSpace=wrap;html=1;rounded=0;shadow=1;labelBackgroundColor=none;strokeWidth=1;fontFamily=Verdana;fontSize=8;align=center;" parent="1" vertex="1">
          <mxGeometry x="-740.1100000000002" y="-359.9999999999999" width="120" height="65" as="geometry" />
        </mxCell>
        <mxCell id="Q7OsvflCETNWhosahGd8-74" style="edgeStyle=orthogonalEdgeStyle;shape=connector;rounded=0;orthogonalLoop=1;jettySize=auto;html=1;exitX=0.5;exitY=1;exitDx=0;exitDy=0;entryX=0.5;entryY=0;entryDx=0;entryDy=0;labelBackgroundColor=none;strokeColor=default;strokeWidth=1;fontFamily=Verdana;fontSize=8;fontColor=default;endArrow=classicThin;endFill=1;startSize=5;endSize=5;" parent="1" source="Q7OsvflCETNWhosahGd8-67" target="Q7OsvflCETNWhosahGd8-39" edge="1">
          <mxGeometry relative="1" as="geometry" />
        </mxCell>
        <mxCell id="Q7OsvflCETNWhosahGd8-67" value="&lt;br&gt;&lt;br&gt;&lt;br&gt;block_network_install: True&lt;br&gt;&amp;nbsp;&lt;br&gt;" style="whiteSpace=wrap;html=1;rounded=0;shadow=1;labelBackgroundColor=none;strokeWidth=1;fontFamily=Verdana;fontSize=8;align=center;" parent="1" vertex="1">
          <mxGeometry x="-740.1100000000002" y="40.000000000000114" width="120" height="65" as="geometry" />
        </mxCell>
        <mxCell id="Q7OsvflCETNWhosahGd8-71" style="edgeStyle=orthogonalEdgeStyle;shape=connector;rounded=0;orthogonalLoop=1;jettySize=auto;html=1;entryX=0.5;entryY=0;entryDx=0;entryDy=0;labelBackgroundColor=none;strokeColor=default;strokeWidth=1;fontFamily=Verdana;fontSize=8;fontColor=default;endArrow=classicThin;endFill=1;startSize=5;endSize=5;exitX=0.5;exitY=1;exitDx=0;exitDy=0;" parent="1" source="Q7OsvflCETNWhosahGd8-75" target="Q7OsvflCETNWhosahGd8-37" edge="1">
          <mxGeometry relative="1" as="geometry">
            <mxPoint x="-620.0000000000001" y="-62.3599999999999" as="sourcePoint" />
          </mxGeometry>
        </mxCell>
        <mxCell id="Q7OsvflCETNWhosahGd8-73" style="edgeStyle=orthogonalEdgeStyle;shape=connector;rounded=0;orthogonalLoop=1;jettySize=auto;html=1;exitX=0;exitY=0.5;exitDx=0;exitDy=0;entryX=0.5;entryY=0;entryDx=0;entryDy=0;labelBackgroundColor=none;strokeColor=default;strokeWidth=1;fontFamily=Verdana;fontSize=8;fontColor=default;endArrow=classicThin;endFill=1;startSize=5;endSize=5;" parent="1" source="Q7OsvflCETNWhosahGd8-70" target="Q7OsvflCETNWhosahGd8-72" edge="1">
          <mxGeometry relative="1" as="geometry" />
        </mxCell>
        <mxCell id="Q7OsvflCETNWhosahGd8-76" style="edgeStyle=orthogonalEdgeStyle;shape=connector;rounded=0;orthogonalLoop=1;jettySize=auto;html=1;exitX=0.5;exitY=1;exitDx=0;exitDy=0;entryX=0.5;entryY=0;entryDx=0;entryDy=0;labelBackgroundColor=none;strokeColor=default;strokeWidth=1;fontFamily=Verdana;fontSize=8;fontColor=default;endArrow=classicThin;endFill=1;startSize=5;endSize=5;" parent="1" source="Q7OsvflCETNWhosahGd8-70" target="Q7OsvflCETNWhosahGd8-75" edge="1">
          <mxGeometry relative="1" as="geometry" />
        </mxCell>
        <mxCell id="Q7OsvflCETNWhosahGd8-70" value="is check for update&lt;br&gt;allowed ?" style="rhombus;whiteSpace=wrap;html=1;rounded=0;shadow=1;labelBackgroundColor=none;strokeWidth=1;fontFamily=Verdana;fontSize=8;align=center;" parent="1" vertex="1">
          <mxGeometry x="-589.8200000000003" y="-229.9999999999999" width="100" height="60" as="geometry" />
        </mxCell>
        <mxCell id="Q7OsvflCETNWhosahGd8-78" style="edgeStyle=orthogonalEdgeStyle;shape=connector;rounded=0;orthogonalLoop=1;jettySize=auto;html=1;exitX=0.5;exitY=1;exitDx=0;exitDy=0;entryX=0.5;entryY=0;entryDx=0;entryDy=0;entryPerimeter=0;labelBackgroundColor=none;strokeColor=default;strokeWidth=1;fontFamily=Verdana;fontSize=8;fontColor=default;endArrow=classicThin;endFill=1;startSize=5;endSize=5;" parent="1" source="Q7OsvflCETNWhosahGd8-72" target="Q7OsvflCETNWhosahGd8-77" edge="1">
          <mxGeometry relative="1" as="geometry" />
        </mxCell>
        <mxCell id="Q7OsvflCETNWhosahGd8-72" value="&lt;br&gt;&lt;br&gt;&lt;br&gt;block_network_install: True&lt;br&gt;&amp;nbsp;&lt;br&gt;" style="whiteSpace=wrap;html=1;rounded=0;shadow=1;labelBackgroundColor=none;strokeWidth=1;fontFamily=Verdana;fontSize=8;align=center;" parent="1" vertex="1">
          <mxGeometry x="-869.11" y="240.0000000000001" width="120" height="65" as="geometry" />
        </mxCell>
        <mxCell id="Q7OsvflCETNWhosahGd8-75" value="check for updates" style="whiteSpace=wrap;html=1;rounded=0;shadow=1;labelBackgroundColor=none;strokeWidth=1;fontFamily=Verdana;fontSize=8;align=center;" parent="1" vertex="1">
          <mxGeometry x="-599.8200000000003" y="-119.99999999999977" width="120" height="40" as="geometry" />
        </mxCell>
        <mxCell id="Q7OsvflCETNWhosahGd8-81" style="edgeStyle=orthogonalEdgeStyle;shape=connector;rounded=0;orthogonalLoop=1;jettySize=auto;html=1;exitX=0.5;exitY=1;exitDx=0;exitDy=0;labelBackgroundColor=none;strokeColor=default;strokeWidth=1;fontFamily=Verdana;fontSize=8;fontColor=default;endArrow=classicThin;endFill=1;startSize=5;endSize=5;entryX=0.5;entryY=0;entryDx=0;entryDy=0;" parent="1" source="CaTrGZt4zre4TjSHEbGF-26" target="xJih_f-aQpD8Sjbb2BLX-1" edge="1">
          <mxGeometry relative="1" as="geometry">
            <mxPoint x="-370" y="-2350" as="targetPoint" />
          </mxGeometry>
        </mxCell>
        <mxCell id="Q7OsvflCETNWhosahGd8-77" value="" style="strokeWidth=1;html=1;shape=mxgraph.flowchart.terminator;whiteSpace=wrap;rounded=0;shadow=1;labelBackgroundColor=none;fontFamily=Verdana;fontSize=8;align=center;" parent="1" vertex="1">
          <mxGeometry x="-569.4700000000001" y="360.0000000000001" width="60" height="30" as="geometry" />
        </mxCell>
        <mxCell id="Q7OsvflCETNWhosahGd8-80" style="edgeStyle=orthogonalEdgeStyle;shape=connector;rounded=0;orthogonalLoop=1;jettySize=auto;html=1;exitX=0.5;exitY=1;exitDx=0;exitDy=0;entryX=0.5;entryY=0;entryDx=0;entryDy=0;entryPerimeter=0;labelBackgroundColor=none;strokeColor=default;strokeWidth=1;fontFamily=Verdana;fontSize=8;fontColor=default;endArrow=classicThin;endFill=1;startSize=5;endSize=5;" parent="1" source="Q7OsvflCETNWhosahGd8-79" target="Q7OsvflCETNWhosahGd8-77" edge="1">
          <mxGeometry relative="1" as="geometry" />
        </mxCell>
        <mxCell id="Q7OsvflCETNWhosahGd8-79" value="&lt;br&gt;&lt;br&gt;&lt;br&gt;block_network_install: True&lt;br&gt;&amp;nbsp;&lt;br&gt;" style="whiteSpace=wrap;html=1;rounded=0;shadow=1;labelBackgroundColor=none;strokeWidth=1;fontFamily=Verdana;fontSize=8;align=center;" parent="1" vertex="1">
          <mxGeometry x="-740.11" y="240.0000000000001" width="120" height="65" as="geometry" />
        </mxCell>
        <mxCell id="Q7OsvflCETNWhosahGd8-84" value="" style="edgeStyle=orthogonalEdgeStyle;shape=connector;rounded=0;orthogonalLoop=1;jettySize=auto;html=1;labelBackgroundColor=none;strokeColor=default;strokeWidth=1;fontFamily=Verdana;fontSize=8;fontColor=default;endArrow=none;endFill=0;startSize=5;endSize=5;dashed=1;curved=1;startArrow=none;startFill=0;" parent="1" source="CaTrGZt4zre4TjSHEbGF-29" target="FMaZAtzqC5wsarscTpgY-22" edge="1">
          <mxGeometry relative="1" as="geometry">
            <mxPoint x="-580" y="-1733.5" as="sourcePoint" />
            <mxPoint x="-530.083333333333" y="-1632.9899999999998" as="targetPoint" />
          </mxGeometry>
        </mxCell>
        <mxCell id="Q7OsvflCETNWhosahGd8-85" value="emit&lt;br&gt;&quot;refresh&quot;&lt;br&gt;signal" style="whiteSpace=wrap;html=1;rounded=0;shadow=1;labelBackgroundColor=none;strokeWidth=1;fontFamily=Verdana;fontSize=8;align=center;" parent="1" vertex="1">
          <mxGeometry x="279.9999999999998" y="-1720" width="120" height="40" as="geometry" />
        </mxCell>
        <mxCell id="Q7OsvflCETNWhosahGd8-92" style="edgeStyle=orthogonalEdgeStyle;shape=connector;rounded=0;orthogonalLoop=1;jettySize=auto;html=1;entryX=0.5;entryY=0;entryDx=0;entryDy=0;labelBackgroundColor=none;strokeColor=default;strokeWidth=1;fontFamily=Verdana;fontSize=8;fontColor=default;endArrow=classicThin;endFill=1;startSize=5;endSize=5;exitX=0.5;exitY=1;exitDx=0;exitDy=0;" parent="1" source="gZyHitp84woVGNt1j31F-128" target="Q7OsvflCETNWhosahGd8-91" edge="1">
          <mxGeometry relative="1" as="geometry">
            <mxPoint x="640" y="-1820" as="sourcePoint" />
          </mxGeometry>
        </mxCell>
        <mxCell id="Q7OsvflCETNWhosahGd8-87" value="signal&lt;br&gt;&quot;refresh&quot;" style="rhombus;whiteSpace=wrap;html=1;rounded=0;shadow=1;labelBackgroundColor=none;strokeWidth=1;fontFamily=Verdana;fontSize=8;align=center;" parent="1" vertex="1">
          <mxGeometry x="449.9999999999999" y="-1950" width="100" height="60" as="geometry" />
        </mxCell>
        <mxCell id="Q7OsvflCETNWhosahGd8-93" value="" style="edgeStyle=orthogonalEdgeStyle;shape=connector;rounded=0;orthogonalLoop=1;jettySize=auto;html=1;labelBackgroundColor=none;strokeColor=default;strokeWidth=1;fontFamily=Verdana;fontSize=8;fontColor=default;endArrow=classicThin;endFill=1;startSize=5;endSize=5;exitX=0.5;exitY=1;exitDx=0;exitDy=0;" parent="1" source="Q7OsvflCETNWhosahGd8-87" target="gZyHitp84woVGNt1j31F-128" edge="1">
          <mxGeometry relative="1" as="geometry" />
        </mxCell>
        <mxCell id="CaTrGZt4zre4TjSHEbGF-21" style="edgeStyle=orthogonalEdgeStyle;shape=connector;rounded=0;orthogonalLoop=1;jettySize=auto;html=1;exitX=0.5;exitY=1;exitDx=0;exitDy=0;entryX=0.5;entryY=0;entryDx=0;entryDy=0;labelBackgroundColor=none;strokeColor=default;strokeWidth=1;fontFamily=Verdana;fontSize=8;fontColor=default;endArrow=classicThin;endFill=1;startSize=5;endSize=5;" edge="1" parent="1" source="Q7OsvflCETNWhosahGd8-91" target="CaTrGZt4zre4TjSHEbGF-20">
          <mxGeometry relative="1" as="geometry" />
        </mxCell>
        <mxCell id="Q7OsvflCETNWhosahGd8-91" value="RUN&lt;br&gt;Initial Package State&amp;nbsp;&lt;br&gt;procedure" style="whiteSpace=wrap;html=1;rounded=1;shadow=1;labelBackgroundColor=none;strokeWidth=1;fontFamily=Verdana;fontSize=8;align=center;" parent="1" vertex="1">
          <mxGeometry x="440" y="-1640" width="120" height="40" as="geometry" />
        </mxCell>
        <mxCell id="Q7OsvflCETNWhosahGd8-95" style="edgeStyle=orthogonalEdgeStyle;rounded=0;orthogonalLoop=1;jettySize=auto;html=1;exitX=0.5;exitY=1;exitDx=0;exitDy=0;entryX=0.5;entryY=0;entryDx=0;entryDy=0;" parent="1" source="Q7OsvflCETNWhosahGd8-94" target="Q7OsvflCETNWhosahGd8-22" edge="1">
          <mxGeometry relative="1" as="geometry" />
        </mxCell>
        <mxCell id="Q7OsvflCETNWhosahGd8-94" value="RUN&lt;br&gt;Gather&amp;nbsp;system&lt;br style=&quot;border-color: var(--border-color);&quot;&gt;information&lt;br&gt;procedure" style="whiteSpace=wrap;html=1;rounded=1;shadow=1;labelBackgroundColor=none;strokeWidth=1;fontFamily=Verdana;fontSize=8;align=center;" parent="1" vertex="1">
          <mxGeometry x="-599.8200000000002" y="-2400" width="120" height="40" as="geometry" />
        </mxCell>
        <mxCell id="CaTrGZt4zre4TjSHEbGF-13" style="edgeStyle=orthogonalEdgeStyle;shape=connector;rounded=0;orthogonalLoop=1;jettySize=auto;html=1;exitX=1;exitY=0.5;exitDx=0;exitDy=0;entryX=0;entryY=0.5;entryDx=0;entryDy=0;labelBackgroundColor=none;strokeColor=default;strokeWidth=1;fontFamily=Verdana;fontSize=8;fontColor=default;endArrow=classicThin;endFill=1;startSize=5;endSize=5;" edge="1" parent="1" source="KeaiH_9psKvAQMgdjnc_-1" target="j1TnudKSoMf6J_vbDHsm-146">
          <mxGeometry relative="1" as="geometry" />
        </mxCell>
        <mxCell id="CaTrGZt4zre4TjSHEbGF-15" style="edgeStyle=orthogonalEdgeStyle;shape=connector;rounded=0;orthogonalLoop=1;jettySize=auto;html=1;exitX=0.5;exitY=1;exitDx=0;exitDy=0;entryX=0.5;entryY=0;entryDx=0;entryDy=0;labelBackgroundColor=none;strokeColor=default;strokeWidth=1;fontFamily=Verdana;fontSize=8;fontColor=default;endArrow=classicThin;endFill=1;startSize=5;endSize=5;" edge="1" parent="1" source="KeaiH_9psKvAQMgdjnc_-1" target="KeaiH_9psKvAQMgdjnc_-2">
          <mxGeometry relative="1" as="geometry" />
        </mxCell>
        <mxCell id="KeaiH_9psKvAQMgdjnc_-1" value="viewmodel&lt;br&gt;reads&lt;br&gt;PackageMenu state" style="rhombus;whiteSpace=wrap;html=1;rounded=0;shadow=1;labelBackgroundColor=none;strokeWidth=1;fontFamily=Verdana;fontSize=8;align=center;" parent="1" vertex="1">
          <mxGeometry x="-70.00000000000011" y="-1950" width="100" height="60" as="geometry" />
        </mxCell>
        <mxCell id="CaTrGZt4zre4TjSHEbGF-2" style="edgeStyle=orthogonalEdgeStyle;rounded=0;orthogonalLoop=1;jettySize=auto;html=1;exitX=0.5;exitY=1;exitDx=0;exitDy=0;entryX=0.5;entryY=0;entryDx=0;entryDy=0;" edge="1" parent="1" source="KeaiH_9psKvAQMgdjnc_-2" target="j1TnudKSoMf6J_vbDHsm-130">
          <mxGeometry relative="1" as="geometry">
            <mxPoint x="-360" y="-1580" as="targetPoint" />
            <Array as="points">
              <mxPoint x="-20" y="-1240" />
              <mxPoint x="600" y="-1240" />
              <mxPoint x="600" y="-2180" />
              <mxPoint x="-540" y="-2180" />
            </Array>
          </mxGeometry>
        </mxCell>
        <mxCell id="KeaiH_9psKvAQMgdjnc_-2" value="USE&lt;br style=&quot;border-color: var(--border-color);&quot;&gt;PackageMenu getter function" style="whiteSpace=wrap;html=1;rounded=1;shadow=1;labelBackgroundColor=none;strokeWidth=1;fontFamily=Verdana;fontSize=8;align=center;" parent="1" vertex="1">
          <mxGeometry x="-80" y="-1720" width="120" height="40" as="geometry" />
        </mxCell>
        <mxCell id="CaTrGZt4zre4TjSHEbGF-16" style="edgeStyle=orthogonalEdgeStyle;shape=connector;rounded=0;orthogonalLoop=1;jettySize=auto;html=1;exitX=0.5;exitY=1;exitDx=0;exitDy=0;entryX=0.5;entryY=0;entryDx=0;entryDy=0;labelBackgroundColor=none;strokeColor=default;strokeWidth=1;fontFamily=Verdana;fontSize=8;fontColor=default;endArrow=classicThin;endFill=1;startSize=5;endSize=5;" edge="1" parent="1" source="xJih_f-aQpD8Sjbb2BLX-1" target="Q7OsvflCETNWhosahGd8-94">
          <mxGeometry relative="1" as="geometry" />
        </mxCell>
        <mxCell id="xJih_f-aQpD8Sjbb2BLX-1" value="register&lt;br&gt;&quot;refresh&quot;&lt;br&gt;signal" style="whiteSpace=wrap;html=1;rounded=0;shadow=1;labelBackgroundColor=none;strokeWidth=1;fontFamily=Verdana;fontSize=8;align=center;" parent="1" vertex="1">
          <mxGeometry x="-600.1800000000002" y="-2480" width="120" height="40" as="geometry" />
        </mxCell>
        <mxCell id="CaTrGZt4zre4TjSHEbGF-12" style="edgeStyle=orthogonalEdgeStyle;rounded=0;orthogonalLoop=1;jettySize=auto;html=1;exitX=1;exitY=0.5;exitDx=0;exitDy=0;entryX=0.5;entryY=0;entryDx=0;entryDy=0;" edge="1" parent="1" source="CaTrGZt4zre4TjSHEbGF-10" target="j1TnudKSoMf6J_vbDHsm-130">
          <mxGeometry relative="1" as="geometry">
            <Array as="points">
              <mxPoint x="-120" y="-1800" />
              <mxPoint x="-120" y="-1240" />
              <mxPoint x="600" y="-1240" />
              <mxPoint x="600" y="-2180" />
              <mxPoint x="-540" y="-2180" />
            </Array>
          </mxGeometry>
        </mxCell>
        <mxCell id="CaTrGZt4zre4TjSHEbGF-10" value="is&lt;br&gt;&quot;selecting allowed&quot;&lt;br style=&quot;border-color: var(--border-color);&quot;&gt;True ?" style="rhombus;whiteSpace=wrap;html=1;rounded=0;shadow=1;labelBackgroundColor=none;strokeWidth=1;fontFamily=Verdana;fontSize=8;align=center;" vertex="1" parent="1">
          <mxGeometry x="-430.00000000000006" y="-1830" width="100" height="60" as="geometry" />
        </mxCell>
        <mxCell id="CaTrGZt4zre4TjSHEbGF-19" style="edgeStyle=orthogonalEdgeStyle;shape=connector;rounded=0;orthogonalLoop=1;jettySize=auto;html=1;exitX=0.5;exitY=1;exitDx=0;exitDy=0;entryX=0.5;entryY=0;entryDx=0;entryDy=0;labelBackgroundColor=none;strokeColor=default;strokeWidth=1;fontFamily=Verdana;fontSize=8;fontColor=default;endArrow=classicThin;endFill=1;startSize=5;endSize=5;" edge="1" parent="1" source="CaTrGZt4zre4TjSHEbGF-17" target="gZyHitp84woVGNt1j31F-139">
          <mxGeometry relative="1" as="geometry" />
        </mxCell>
        <mxCell id="CaTrGZt4zre4TjSHEbGF-17" value="set&lt;br style=&quot;border-color: var(--border-color);&quot;&gt;&quot;ready_to_apply_changes&quot; = False&lt;br&gt;&quot;selecting allowed&quot; = False" style="whiteSpace=wrap;html=1;rounded=0;shadow=1;labelBackgroundColor=none;strokeWidth=1;fontFamily=Verdana;fontSize=8;align=center;" vertex="1" parent="1">
          <mxGeometry x="79.99999999999983" y="-1720" width="120" height="40" as="geometry" />
        </mxCell>
        <mxCell id="CaTrGZt4zre4TjSHEbGF-20" value="set&lt;br style=&quot;border-color: var(--border-color);&quot;&gt;&lt;br&gt;&quot;selecting allowed&quot; = True" style="whiteSpace=wrap;html=1;rounded=0;shadow=1;labelBackgroundColor=none;strokeWidth=1;fontFamily=Verdana;fontSize=8;align=center;" vertex="1" parent="1">
          <mxGeometry x="439.9999999999999" y="-1560" width="120" height="40" as="geometry" />
        </mxCell>
        <mxCell id="CaTrGZt4zre4TjSHEbGF-23" style="edgeStyle=orthogonalEdgeStyle;shape=connector;rounded=0;orthogonalLoop=1;jettySize=auto;html=1;exitX=0.5;exitY=1;exitDx=0;exitDy=0;entryX=0.5;entryY=0;entryDx=0;entryDy=0;labelBackgroundColor=none;strokeColor=default;strokeWidth=1;fontFamily=Verdana;fontSize=8;fontColor=default;endArrow=classicThin;endFill=1;startSize=5;endSize=5;" edge="1" parent="1" source="CaTrGZt4zre4TjSHEbGF-22" target="j1TnudKSoMf6J_vbDHsm-130">
          <mxGeometry relative="1" as="geometry" />
        </mxCell>
        <mxCell id="CaTrGZt4zre4TjSHEbGF-22" value="set&lt;br style=&quot;border-color: var(--border-color);&quot;&gt;&quot;ready_to_apply_changes&quot; = False&lt;br&gt;&quot;selecting allowed&quot; = True" style="whiteSpace=wrap;html=1;rounded=0;shadow=1;labelBackgroundColor=none;strokeWidth=1;fontFamily=Verdana;fontSize=8;align=center;" vertex="1" parent="1">
          <mxGeometry x="-599.8200000000002" y="-2240" width="120" height="40" as="geometry" />
        </mxCell>
        <mxCell id="CaTrGZt4zre4TjSHEbGF-25" style="edgeStyle=orthogonalEdgeStyle;shape=connector;rounded=0;orthogonalLoop=1;jettySize=auto;html=1;exitX=0.5;exitY=1;exitDx=0;exitDy=0;entryX=0.5;entryY=0;entryDx=0;entryDy=0;labelBackgroundColor=none;strokeColor=default;strokeWidth=1;fontFamily=Verdana;fontSize=8;fontColor=default;endArrow=classicThin;endFill=1;startSize=5;endSize=5;" edge="1" parent="1" source="CaTrGZt4zre4TjSHEbGF-24" target="Q7OsvflCETNWhosahGd8-47">
          <mxGeometry relative="1" as="geometry" />
        </mxCell>
        <mxCell id="CaTrGZt4zre4TjSHEbGF-24" value="System&lt;br&gt;state&lt;br&gt;flags" style="ellipse;whiteSpace=wrap;html=1;aspect=fixed;rounded=0;shadow=1;labelBackgroundColor=none;strokeColor=default;strokeWidth=1;fontFamily=Verdana;fontSize=8;fontColor=default;fillColor=default;" vertex="1" parent="1">
          <mxGeometry x="-560.0500000000001" y="-799.9999999999998" width="40" height="40" as="geometry" />
        </mxCell>
        <mxCell id="CaTrGZt4zre4TjSHEbGF-26" value="RUN&lt;br&gt;System state flags&lt;br&gt;procedure" style="rounded=1;whiteSpace=wrap;html=1;shadow=1;labelBackgroundColor=none;strokeWidth=1;fontFamily=Verdana;fontSize=8;align=center;" vertex="1" parent="1">
          <mxGeometry x="-590.1800000000001" y="-2560" width="100" height="40" as="geometry" />
        </mxCell>
        <mxCell id="CaTrGZt4zre4TjSHEbGF-29" value="PackageMenu setter has&lt;br style=&quot;border-color: var(--border-color);&quot;&gt;to include value of system state flags as they can override any selection logic based on package dependencies alone" style="text;html=1;strokeColor=default;fillColor=none;align=center;verticalAlign=middle;whiteSpace=wrap;rounded=0;fontSize=8;fontFamily=Verdana;fontColor=default;dashed=1;" vertex="1" parent="1">
          <mxGeometry x="-290.00000000000006" y="-1770" width="89.93" height="63" as="geometry" />
        </mxCell>
        <mxCell id="CaTrGZt4zre4TjSHEbGF-30" style="edgeStyle=orthogonalEdgeStyle;shape=connector;rounded=0;orthogonalLoop=1;jettySize=auto;html=1;labelBackgroundColor=none;strokeColor=default;strokeWidth=1;fontFamily=Verdana;fontSize=8;fontColor=default;endArrow=none;endFill=0;startSize=5;endSize=5;dashed=1;curved=1;startArrow=none;startFill=0;" edge="1" parent="1" source="FMaZAtzqC5wsarscTpgY-54" target="j1TnudKSoMf6J_vbDHsm-67">
          <mxGeometry relative="1" as="geometry">
            <mxPoint x="-710" y="-1510" as="sourcePoint" />
            <mxPoint x="-990" y="-1726" as="targetPoint" />
          </mxGeometry>
        </mxCell>
        <mxCell id="CaTrGZt4zre4TjSHEbGF-31" value="" style="shape=curlyBracket;whiteSpace=wrap;html=1;rounded=1;labelPosition=left;verticalLabelPosition=middle;align=right;verticalAlign=middle;shadow=1;labelBackgroundColor=none;strokeColor=default;strokeWidth=1;fontFamily=Verdana;fontSize=8;fontColor=default;fillColor=default;" vertex="1" parent="1">
          <mxGeometry x="-1179.8" y="-2720" width="539.79" height="1640" as="geometry" />
        </mxCell>
        <mxCell id="CaTrGZt4zre4TjSHEbGF-32" value="adapter file" style="shape=note;whiteSpace=wrap;html=1;backgroundOutline=1;fontColor=#000000;darkOpacity=0.05;fillColor=#FFF9B2;strokeColor=none;fillStyle=solid;direction=west;gradientDirection=north;gradientColor=#FFF2A1;shadow=1;size=20;pointerEvents=1;rounded=1;labelBackgroundColor=none;strokeWidth=1;fontFamily=Verdana;fontSize=8;" vertex="1" parent="1">
          <mxGeometry x="-1340" y="-2797.5" width="140" height="35" as="geometry" />
        </mxCell>
        <mxCell id="CaTrGZt4zre4TjSHEbGF-33" style="edgeStyle=orthogonalEdgeStyle;rounded=0;orthogonalLoop=1;jettySize=auto;html=1;exitX=0.1;exitY=0.5;exitDx=0;exitDy=0;exitPerimeter=0;entryX=0;entryY=0.5;entryDx=0;entryDy=0;entryPerimeter=0;endArrow=none;endFill=0;" edge="1" parent="1" source="j1TnudKSoMf6J_vbDHsm-123" target="CaTrGZt4zre4TjSHEbGF-32">
          <mxGeometry relative="1" as="geometry">
            <mxPoint x="-1107" y="-3110" as="sourcePoint" />
            <mxPoint x="-1190" y="-3110" as="targetPoint" />
          </mxGeometry>
        </mxCell>
      </root>
    </mxGraphModel>
  </diagram>
</mxfile>
